<svg width="468" height="394" xmlns="http://www.w3.org/2000/svg"><g fill="none" fill-rule="evenodd"><path fill="#2B4782" d="M234 338.811l41.516 7.357v12.876L234 352.211v-13.4"/><path d="M266.286 353.531l-25.885-4.244m30.5 0l-34.276-5.619" stroke="#AAC5D5"/><path fill="#2B4782" d="M275.516 346.168l25.225-16.028v13.4l-25.225 15.504v-12.876"/><path d="M296.929 336.884l-16.549 10.171m17.483-5.746l-17.483 10.746" stroke="#AAC5D5"/><path fill="#2A76A7" d="M260.014 324.359l40.727 5.781-25.225 16.028L234 338.811l26.014-14.452"/><path fill="#AAC5D5" d="M278.259 324.359l-40.729 5.781 25.227 16.028 41.515-7.357-26.013-14.452"/><path d="M415.149 374.368c.101-.195.156-.399.156-.608 0-1.621-3.201-2.935-7.149-2.935-3.946 0-7.147 1.314-7.147 2.935 0 1.62 3.201 2.933 7.147 2.933.276 0 .546-.007.812-.019-.024.095-.064.189-.064.286 0 1.443 2.579 2.614 5.761 2.614 3.183 0 5.762-1.171 5.762-2.614 0-1.368-2.326-2.48-5.278-2.592M401.009 378.134c0 .796-1.719 1.44-3.841 1.44-2.121 0-3.841-.644-3.841-1.44 0-.795 1.72-1.441 3.841-1.441 2.122 0 3.841.646 3.841 1.441M454.833 388.963c-.764 0-1.477.09-2.115.238-.361-2.037-5.215-3.653-11.167-3.653-1.07 0-2.099.054-3.077.152.263-.243.41-.51.41-.791 0-1.12-2.317-2.028-5.175-2.028-2.858 0-5.175.908-5.175 2.028 0 1.03 1.973 1.873 4.518 2-1.681.683-2.703 1.567-2.703 2.533 0 2.152 5.015 3.895 11.202 3.895 3.575 0 6.753-.585 8.802-1.491.634.865 2.389 1.491 4.48 1.491 2.621 0 4.747-.979 4.747-2.188 0-1.208-2.126-2.186-4.747-2.186M465.661 380.427c0 .707-1.529 1.28-3.415 1.28-1.885 0-3.412-.573-3.412-1.28 0-.707 1.527-1.281 3.412-1.281 1.886 0 3.415.574 3.415 1.281" fill="#2B4782"/><path d="M455.16 366.408c0 1.1-.9 2-2 2h-28.916c-1.1 0-2-.9-2-2v-26.569c0-1.1.9-2 2-2h28.916c1.1 0 2 .9 2 2v26.569" fill="#2A76A7"/><path d="M455.16 338.52c0 1.51-4.59 2.79-11 3.26-1.37.11-2.82.17-4.32.19-.38.01-.76.01-1.14.01-9.09 0-16.46-1.55-16.46-3.46s7.37-3.46 16.46-3.46c1.11 0 2.19.02 3.24.07 1.45.06 2.829.16 4.12.3 5.4.56 9.1 1.74 9.1 3.09" fill="#2B4782"/><path d="M450.47 320.66l-4.41 14.77-1.9 6.35c-1.37.11-2.82.17-4.32.19l6.88-22.42c.299-1.03 1.39-1.62 2.43-1.32a1.97 1.97 0 0 1 1.32 2.43" fill="#A0AEC0"/><path d="M450.471 359.853c0 .55-.451 1-1 1h-21.537c-.55 0-1-.45-1-1v-8.252c0-.55.45-1 1-1h21.537c.549 0 1 .45 1 1v8.252" fill="#FFFFFE"/><path d="M455.16 339.158s8.634-25.028-16.458-25.028-16.458 25.028-16.458 25.028m0 0h-1.434m34.35 0h1.528" stroke="#383863"/><path d="M407.426 250.264c0 6.627-5.373 12-12 12H72.574c-6.628 0-12-5.373-12-12V67.97c0-6.628 5.372-12 12-12h322.852c6.627 0 12 5.372 12 12v182.294" fill="#AAC5D5"/><path d="M60.574 79.014V67.648c0-6.628 5.372-12 12-12h322.852c6.627 0 12 5.372 12 12v11.366H60.574" fill="#A0AEC0"/><path d="M395.5 67.331a3.5 3.5 0 1 1-7 0 3.5 3.5 0 0 1 7 0M378.5 67.331a3.5 3.5 0 1 1-7 0 3.5 3.5 0 0 1 7 0M361.5 67.331a3.5 3.5 0 1 1-7 0 3.5 3.5 0 0 1 7 0" fill="#2B4782"/><path d="M240.401 67.331c0 2.946-2.739 5.334-6.118 5.334H78.592c-3.379 0-6.118-2.388-6.118-5.334 0-2.946 2.739-5.333 6.118-5.333h155.691c3.379 0 6.118 2.387 6.118 5.333M71.343 181.6h74.323v-12.432H71.343zM71.343 201.6h74.323v-12.432H71.343zM71.343 221.6h62.907v-12.432H71.343zM71.343 241.6h29.039v-12.432H71.343z" fill="#FFFFFE"/><path d="M76.647 181.6s4.93 6.818-1.064 14.28c-6.334 7.886-3.694-13.86-3.694-13.86l4.758-.42" fill="#2B4782"/><path d="M467.454 304.644H.546" stroke="#383863" stroke-width="2"/><path d="M46.027 319.073c-1.117 2.189-4.778 3.115-6.124 3.78-1.928.957-4.81 1.91-4.64 7.25.086 2.665 15.338-.165 19.806-2.378 2.14-1.061 3.09-1.878 3.802-6.833.388-2.698-11.729-4.002-12.844-1.819M89.611 319.073c1.117 2.189 4.778 3.115 6.124 3.78 1.929.957 4.81 1.91 4.64 7.25-.085 2.665-15.338-.165-19.806-2.378-2.14-1.061-3.09-1.878-3.801-6.833-.389-2.698 11.729-4.002 12.843-1.819" fill="#2B4782"/><path d="M51.253 254.17l-6.049 64.998s4.5 4.25 15.75 0l3.943-46.75h5.307l5.25 46.75s6.5 2.25 15.5-.75l-7.641-65.466-32.06 1.218" fill="#A0AEC0"/><path d="M45.232 218.194c-8.534-5.625-19.788-19.903-10.98-55.026 0 0-9.152-12.879-3.713-16.5 3.88-2.584 9.054 11.703 9.054 11.703s3.243-3.7 4.005-3.048c.988.845.738 2.095-3.144 7.095 0 0-7.28 34.975 9.468 46.29M78.199 208.537c7.966-5.841 12.755-19.361 12.755-47.119 0-2.176-3.813-8.938-2.563-9.5 1.097-.493 2.15 2.041 2.438 2.75 0 0 2.345-3.083 7.458-3.834 10.917-1.604 5.54 5.215-2.167 8.283 0 0 9.164 44.03-14.262 59.268" fill="#EB959B"/><path d="M49.922 208.708c2.503 1.691 5.542 2.854 9.222 3.293 7.394.882 13.892.322 19.055-3.464l3.659 9.848c-2.044 1.33-4.336 2.44-6.904 3.283l9.856 30.666s-15.333 7.334-35.333 1.334l3.67-32s-3.612-.637-7.915-3.474l4.69-9.486" fill="#383863"/><path d="M68.484 201.251s-1.75 8 3.75 10.75c0 0-1.5 4-7.5 4h.325c-6 0-7.5-4-7.5-4 5.5-2.75 3.75-10.75 3.75-10.75h7.175" fill="#EB959B"/><path d="M76.647 189.751c0 8.146-4.413 15.499-11.751 15.499-7.337 0-11.749-7.353-11.749-15.499 0-8.147 5.26-14.75 11.75-14.75 6.488 0 11.75 6.603 11.75 14.75" fill="#EB959B"/><path d="M54.406 196.39s-1.654-14.526 4.846-14.79c6.5-.265 14.584 6.568 21-.599 0 0-3 .599-5.833-3.25-3.009-4.087-12.167-7.416-20 .084-8.921 8.542-.013 18.555-.013 18.555" fill="#2B4782"/><path d="M337.28 195.693l24 163m20.5-163l24 163m-66.285-147.958h44.5m-41.5 20h44.5m-41.5 20h44.711m-41.711 20h44.5m-41.5 20h44.279m-41.279 20h44.224m-41.224 20h44.536" stroke="#383863" stroke-width="1.5"/><path d="M310.228 173.366v79.586h-63.456v-79.586" stroke="#383863" stroke-dasharray="6,6"/><path fill="#FFFFFE" d="M246.772 169.168h63.456v-77.5h-63.456z"/><path d="M271.045 113.043c0 5.662-4.59 10.252-10.252 10.252-5.662 0-10.253-4.59-10.253-10.252 0-5.662 4.591-10.253 10.253-10.253s10.252 4.591 10.252 10.253" fill="#A0AEC0"/><path fill="#383863" d="M251.5 135.668h54.956v-5.25H251.5zM274.5 125.668h31.956v-5.25H274.5zM274.5 115.668h31.956v-5.25H274.5zM274.5 105.668h31.956v-5.25H274.5zM251.5 145.668h54.956v-5.25H251.5zM251.5 155.668h54.956v-5.25H251.5zM251.5 165.668h54.956v-5.25H251.5zM296.861 47.752c-12.403-14.25 2.557-23.05-2.596-37.035C290.132-.499 279.222.644 278.312 1.168c0 0-11.679-1.667-15.812 9.549-5.153 13.985 9.807 22.785-2.597 37.035"/><path d="M256 55.97s1.766-13.969 22.383-13.969C299 42.001 301 55.97 301 55.97h-45" fill="#2A76A7"/><path d="M281.97 32.983s-1.75 8 3.75 10.75c0 0-1.5 4-7.5 4h.325c-6 0-7.5-4-7.5-4 5.5-2.75 3.75-10.75 3.75-10.75h7.175" fill="#EB959B"/><path d="M290.133 20.009c0 8.147-5.262 14.75-11.75 14.75-6.49 0-11.75-6.603-11.75-14.75 0-8.146 5.26-14.75 11.75-14.75 6.488 0 11.75 6.604 11.75 14.75" fill="#EB959B"/><path d="M277.084 4.001c-8.042 0-9.577 8-9.577 8s2.6-2.727 4.979 0c2.376 2.728 4.463.834 5.19 0 .725-.833 3.993-2.416 6.097 0 2.108 2.417 3.662 1.934 5.346 0 0 0-.202-8-12.035-8" fill="#383863"/><path d="M269.756 42.994s-30.755 5.674-15.422 48.674l7.177-2.691s-8.844-21.646 8.245-35.643M286.75 42.994s30.755 5.674 15.422 48.674l-7.177-2.691s8.844-21.646-8.245-35.643" fill="#2A76A7"/><path d="M254.334 91.668s3.166 11.5 7.416 11.5 1.5-8.5 1.5-8.5 1.75 2.5 3 .5c0 0 1.021-3.633-4.739-6.191l-7.177 2.691M302.172 91.668s-3.166 11.5-7.416 11.5-1.5-8.5-1.5-8.5-1.75 2.5-3 .5c0 0-1.022-3.633 4.739-6.191l7.177 2.691" fill="#EB959B"/><path d="M130.25 148.25h3" stroke="#383863"/><path d="M139.35 148.25h82.35" stroke="#383863" stroke-dasharray="6.100000000000001,6.100000000000001"/><path stroke="#383863" d="M224.75 148.25h3v-3"/><path d="M227.75 138.607v-36.536" stroke="#383863" stroke-dasharray="6.643,6.643"/><path stroke="#383863" d="M227.75 98.75v-3h-3"/><path d="M219.059 95.75h-88.213" stroke="#383863" stroke-dasharray="5.691,5.691"/><path d="M128 95.75h-3" stroke="#383863"/><path fill="#A0AEC0" d="M122.098 98.424l-88.917 9.343 5.225 49.726 88.917-9.343-5.225-49.726"/><path fill="#2A76A7" d="M112.086 139.355L47.1 146.183l.466 4.43 64.986-6.828-.466-4.43M120.082 127.58l-40.722 4.278.466 4.43 40.722-4.279-.466-4.429M119.082 117.58l-40.722 4.278.466 4.43 40.722-4.279-.466-4.429M118.082 107.58l-40.722 4.278.466 4.43 40.722-4.279-.466-4.429"/><path fill="#383863" d="M59.824 109.938l-20.416 2.145 1.669 15.875 20.416-2.145-1.669-15.875"/><path fill="#EB959B" d="M73.563 117.188l-20.416 2.145 1.668 15.876 20.416-2.146-1.668-15.875"/><path fill="#2B4782" d="M387.097 181.478l-64.839-5.053 4.68-60.07 64.839 5.053-4.68 60.07"/><path fill="#2A76A7" d="M400.424 159.588l-64.699 6.598-6.114-59.941 64.699-6.598 6.114 59.941"/><path d="M368.85 103.168a7.35 7.35 0 1 1-14.7 0 7.35 7.35 0 1 1 14.7 0" fill="#FFFFFE"/><path d="M371.53 107.58a5.495 5.495 0 1 1-10.99-.001 5.495 5.495 0 0 1 10.99.001" fill="#EB959B"/><path d="M337 117.58l53.146-4.537m-51.702 17.184l53.147-4.537m-52.129 15.933l53.146-4.537m-51.146 15.537l53.146-4.537" stroke="#383863"/><path d="M395.5 252.952H325v-63.201h70.5v63.201z" stroke="#383863" stroke-dasharray="6,6"/><path fill="#2A76A7" d="M153.666 243.252h74.084v-74.084h-74.084z"/><path d="M186.946 184.303c0 5.135-4.164 9.3-9.301 9.3a9.301 9.301 0 1 1 9.301-9.3" fill="#EB959B"/><path d="M182.355 205.295h-2.383c.009-.094.028-.186.028-.282a2.678 2.678 0 0 0-2.678-2.678h-6.394a2.678 2.678 0 0 0-2.678 2.678c0 .096.019.188.028.282h-.383a2.395 2.395 0 1 0 0 4.79h14.46a2.395 2.395 0 1 0 0-4.79M214.5 190.634h-3.158c.015-.108.033-.213.033-.324a2.324 2.324 0 0 0-2.324-2.325h-4.352a2.324 2.324 0 0 0-2.324 2.325c0 .123.018.241.036.358a2.369 2.369 0 0 0 .339 4.716h11.75a2.376 2.376 0 0 0 0-4.75" fill="#FFFFFE"/><path d="M153.666 219.75s16.084-2.25 40.584 3.25c24.5 5.5 33.5-4.826 33.5-4.826v25.078h-74.084V219.75" fill="#2B4782"/><path fill="#AAC5D5" d="M162.653 336.148l-60.061 9.329 25.226 15.028 60.848-9.904-26.013-14.453"/><path fill="#A0AEC0" d="M102.592 345.477v5.273l24.658 15.5 61.416-9.887v-5.762l-60.848 9.904-25.226-15.028"/><path stroke="#2B4782" d="M107.157 351.196l20.661 12.309 58.25-9.482"/><path d="M91.728 381c0 .252-.346.457-.775.457-.428 0-.775-.205-.775-.457 0-.253.347-.458.775-.458.429 0 .775.205.775.458M100.129 385.7c0 .36-.494.652-1.106.652-.61 0-1.105-.292-1.105-.652 0-.361.495-.653 1.105-.653.612 0 1.106.292 1.106.653M209.108 340.511c0 .252-.346.457-.775.457-.428 0-.775-.205-.775-.457 0-.253.347-.458.775-.458.429 0 .775.205.775.458M194.275 330.141c0 .581-.798 1.052-1.783 1.052-.986 0-1.784-.471-1.784-1.052 0-.582.798-1.054 1.784-1.054.985 0 1.783.472 1.783 1.054M188.707 334.621c0 .355-.487.643-1.089.643s-1.09-.288-1.09-.643c0-.355.488-.644 1.09-.644.602 0 1.089.289 1.089.644M268.602 364.267c0 .496-.682.899-1.523.899-.842 0-1.522-.403-1.522-.899 0-.497.68-.9 1.522-.9.841 0 1.523.403 1.523.9M272.665 368.408c0 .287-.396.521-.882.521-.487 0-.882-.234-.882-.521 0-.288.395-.521.882-.521.486 0 .882.233.882.521M331.119 321.058c0 .581-.799 1.052-1.783 1.052-.985 0-1.783-.471-1.783-1.052 0-.582.798-1.054 1.783-1.054.984 0 1.783.472 1.783 1.054M337 329.088c0 .287-.396.52-.882.52-.487 0-.882-.233-.882-.52 0-.288.395-.522.882-.522.486 0 .882.234.882.522" fill="#383863"/></g></svg>
