<svg width="500" height="335" xmlns="http://www.w3.org/2000/svg"><g fill="none" fill-rule="evenodd"><path fill="#E3E9F0" d="M59.451 284.791h378.176V35.084H59.45z"/><path fill="#AFCBE0" d="M59.822 76.238h378.176V36.196H59.822z"/><path fill="#4F4C8E" d="M59.822 46.207h378.176V20.069H59.822z"/><path d="M367.369 33.693a3.755 3.755 0 0 1-7.509 0 3.755 3.755 0 0 1 7.509 0" fill="#DF4D6A"/><path d="M394.48 33.693a3.755 3.755 0 0 1-7.509 0 3.754 3.754 0 0 1 7.509 0" fill="#DEAB6E"/><path d="M421.591 33.693a3.754 3.754 0 1 1-7.508-.001 3.754 3.754 0 0 1 7.508.001" fill="#80BD4B"/><path d="M415.473 67.34H313.7a6.674 6.674 0 0 1 0-13.347h101.773a6.673 6.673 0 0 1 0 13.347" fill="#FCFCFC"/><path d="M95.971 60.667a8.9 8.9 0 1 1-17.797-.003 8.9 8.9 0 0 1 17.797.003" fill="#80A6CC"/><path fill="#FCFCFC" d="M101.949 60.18h52.971v-4.798h-52.971zM101.949 69.564h26.904v-4.588H101.95z"/><path d="M122.547 328.5c0 2.191-20.26 3.962-45.256 3.962-24.995 0-45.255-1.77-45.255-3.962 0-2.187 20.26-3.96 45.255-3.96 24.996 0 45.256 1.773 45.256 3.96" fill="#E3E9F0"/><path d="M164.769 321.833c0 2.191-20.26 3.963-45.256 3.963-24.995 0-45.255-1.772-45.255-3.963 0-2.186 20.26-3.96 45.255-3.96 24.996 0 45.256 1.774 45.256 3.96M417.136 293.778c0 1.933-29.996 3.5-66.994 3.5-37.002 0-66.998-1.567-66.998-3.5 0-1.934 29.996-3.5 66.998-3.5 36.998 0 66.994 1.566 66.994 3.5" fill="#E3E9F0"/><path fill="#F6BE5D" d="M286.727 213.049h114.286V92.922H286.727z"/><path d="M499.451 330.742c0 2.19-20.262 3.962-45.255 3.962-24.996 0-45.256-1.773-45.256-3.962 0-2.186 20.26-3.962 45.256-3.962 24.993 0 45.255 1.776 45.255 3.962" fill="#E3E9F0"/><path d="M395.382 115.793s-.555-1.39-.138-3.684c0 0 3.754-.278 7.232.555 0 0 .206 2.365-.21 3.27-.42.904-5.562 1.388-6.884-.14" fill="#F6BE5D"/><path d="M397.329 120.591s-1.773 10.011-.938 10.531c.833.522 2.191.627 2.711-.313.52-.938.52-10.322.52-10.322s2.296 0 2.818-1.251c.52-1.252.209-3.652.209-3.652l-7.822-.208s-.21 3.128.417 4.068c.625.938 2.085 1.147 2.085 1.147" fill="#4F4C8E"/><path d="M468.727 260.38v12.773c0 .887.337 1.765 1.01 2.343 1.079.924 3.25 1.984 7.54 1.984 0 0 3.052.204 5.599-1.084 1.062-.536 1.702-1.656 1.702-2.843V260.38h-15.851" fill="#E3E9F0"/><path d="M484.578 260.38c0 .804-3.55 1.458-7.927 1.458-4.375 0-7.924-.654-7.924-1.458 0-.807 3.549-1.46 7.924-1.46 4.378 0 7.927.653 7.927 1.46" fill="#E3E9F0"/><path d="M476.651 261.838c2.453 0 4.62-.21 6.073-.531-.54-.527-3.048-.927-6.073-.927-3.022 0-5.531.4-6.071.927 1.453.322 3.62.53 6.071.53" fill="#F6BE5D"/><path d="M475.096 250.109c-.027.007-1.563.335-3.107 1.702-1.547 1.367-3.08 3.787-3.076 7.873 0 .267.007.543.02.825l.556-.027c-.013-.273-.02-.54-.02-.798.004-3.948 1.453-6.18 2.889-7.457a7.561 7.561 0 0 1 1.975-1.27c.27-.117.494-.195.647-.241l.233-.065-.115-.542" fill="#E3E9F0"/><path d="M472.756 246.278l.695 2.086s-1.111 1.947-.833 2.92c.278.974 2.224.418 2.362.834.14.418 2.642 2.502 3.893 1.253 1.251-1.253 1.947-3.2 1.39-4.451-.556-1.251-2.64-2.78-2.919-3.476-.277-.695-4.588.834-4.588.834" fill="#EC9470"/><path d="M455.238 191.358s2.502 1.669 5.006 10.289c2.503 8.622 18.352 43.937 18.352 43.937s-3.616 1.947-6.396 1.39c0 0-10.567-15.294-16.127-26.138-5.562-10.847-10.289-22.525-9.455-27.81.833-5.282 8.62-1.668 8.62-1.668" fill="#DF4D6A"/><path d="M484.364 260.889l-.415-.022c.402-7.547-6.205-10.614-6.273-10.643l.17-.382c.07.031 6.94 3.21 6.518 11.047" fill="#E3E9F0"/><path d="M435.724 173.391s-1.824 5.416-2.83 8.691c0 0 8.937-.19 12.086-4.346l-3.336-7.994-5.92 3.65" fill="#F3D0A3"/><path fill="#EC9470" d="M434.382 322.678l.765 3.406 4.935.278-1.042-4.17-4.658.486"/><path d="M435.147 326.084s-8.274 4.312-8.205 4.59c.071.277 13.974-1.183 13.974-1.183l-.834-3.129-4.935-.278" fill="#4F4C8E"/><path fill="#EC9470" d="M476.096 315.816l1.937 2.904 4.707-1.518-2.476-3.515-4.168 2.129"/><path d="M478.033 318.72s-6.166 6.998-6.002 7.233c.167.234 12.613-6.13 12.613-6.13l-1.904-2.62-4.707 1.517M425.207 232.651s-14.183 46.3 8.342 90.931h6.673s-13.349-50.47 3.338-91.346l-18.353.415" fill="#4F4C8E"/><path d="M437.518 234.291s2.198 48.369 38.406 82.84l6.287-2.242s-29.529-43.053-27.547-87.158l-17.146 6.56" fill="#4F4C8E"/><path d="M429.793 155.211s-4.17 13.88-1.529 17.378c2.643 3.5 12.372.329 16.152-5.269 3.775-5.6 4.53-18.198-1.892-19.247-6.422-1.05-11.22 1.538-12.73 7.138" fill="#EC9470"/><path d="M454.82 236.407s3.756-40.043 3.756-50.887c0-.496-.01-.96-.018-1.427-2.791-7.05-9.72-6.915-12.496-6.36-2.782.556-13.626 4.034-13.558 4.45l-.026-.036c-3.736 2.713-6.594 5.929-6.854 6.709 0 0-10.01 20.855-1.253 45.882l30.449 1.669" fill="#DF4D6A"/><path d="M401.809 127.342l-.485-2.81-.113-.359-.891-1.913-1.531.693-1.902-1.217a1.409 1.409 0 0 0-2.123.813c-.313 1.158-.642 2.64-.635 3.722.004.431.215.827.56 1.089l2.982 2.287a1.408 1.408 0 0 0 1.489.142l1.889-.945c.558-.277.867-.886.76-1.502" fill="#EC9470"/><path d="M436.884 184.684s-21.688-16.266-24.19-23.355c-2.505-7.093-10.012-33.787-10.012-33.787l-5.422 2.087s5.007 39.209 7.509 43.38c2.502 4.169 17.518 25.024 25.024 25.858 7.51.833 11.263-7.09 7.091-14.183" fill="#DF4D6A"/><path d="M445.227 147.98s-11.123-4.727-16.407 5.007c-2.78 6.117 6.118.277 7.787 2.224 1.669 1.947-2.225 5.84-1.111 7.229 1.11 1.391 3.057-2.502 4.17-.278 1.112 2.225-1.668 2.502-3.615 5.007-1.947 2.502 1.669 6.118-1.113 8.34-2.78 2.224-10.567 3.893-5.838 15.849 4.727 11.958-7.787 15.018-2.504 31.424 5.284 16.407 41.155 25.582 47.828 6.118 6.674-19.467-15.57-24.193-14.18-32.813 1.39-8.62 6.396-10.847-.277-19.467-6.676-8.618-10.847-13.622-8.9-19.184 1.946-5.563-3.336-9.456-5.84-9.456" fill="#F6BE5D"/><path d="M448.564 150.482s3.127-3.962-2.086-6.255c-5.214-2.294-17.31 3.335-17.1 5.213.209 1.878 12.929 4.171 19.186 1.042" fill="#DF4D6A"/><path fill="#DF4D6A" d="M441.264 144.644l1.043-3.546 2.086.418-2.086 3.337"/><path fill="#D1DDE9" d="M286.858 227.222H399.08v-6.11H286.858zM286.858 241.667H399.08v-6.111H286.858z"/><path fill="#C4CCDE" d="M73.247 97.222h118.055v-6.944H73.247zM73.247 108.333h118.055v-6.944H73.247zM99.516 320.364l13.06-117.33 6.902.768-13.06 117.331-6.902-.769"/><path fill="#4F4C8E" d="M36.838 227.542l20.578 100.66 15.57-1.669-10.566-3.893 3.893-1.111-5.56-93.987H36.838"/><path d="M69.651 225.873s26.138 24.47 22.247 53.947c-4.451 23.358-13.905 32.256-13.905 32.256l-2.782-.556 4.311 11.4-12.513-13.347s15.433-21.273 5.84-43.38C63.256 244.087 42.4 236.16 42.4 236.16s17.936-16.264 19.187-15.847c1.25.416 8.064 5.56 8.064 5.56" fill="#4F4C8E"/><path d="M84.913 104.167l3.751-3.334s3.194-1.944 3.194-2.36c0-.417-.694-1.25-.694-1.25l-3.333.833 2.916-8.612-2.223.278-4.582 4.722-1.529 5.14-1.11 2.083 3.61 2.5M105.331 114.862l.556-5 3.61-4.166 1.112 1.11-.833 2.36 10.415-1.666-.555 2.222-9.167 4.167-1.111 1.667-4.027-.694" fill="#F3D0A3"/><path d="M80.773 100.602S37.811 152.74 32.807 163.17c0 0-2.087 3.753-2.087 14.598 0 10.844 3.753 50.889 3.753 50.889l43.798 2.502s-14.182-48.802-14.598-50.054c-.417-1.25-7.509-8.757-14.182-10.426l36.705-66.322-5.423-3.754" fill="#83A9CD"/><path d="M53.569 165.64s1.824 5.416 2.833 8.687c0 0-8.94-.19-12.086-4.345l3.335-7.993 5.918 3.651" fill="#F3D0A3"/><path d="M60.367 148.718s2.644 15.4 0 18.9c-2.643 3.498-11.71-2.451-15.485-8.05-3.778-5.601-4.533-18.2 1.89-19.248 6.42-1.051 12.086 2.8 13.595 8.398" fill="#F3D0A3"/><path d="M56.302 177.222s34.445-21.666 37.222-26.11c2.778-4.445 10.556-37.5 10.556-37.5l6.667 1.666s-3.89 36.944-5 40.833c-1.111 3.889-35 40-42.778 40-7.778 0-10.556-10-6.667-18.889" fill="#83A9CD"/><path d="M50.562 164.816l3.518-6.854s-3.702-2.035-2.962-4.258c.74-2.222 2.962-.37 2.962-.37l.927 1.11 1.11-.926-2.221-4.814s3.704-3.148 4.444-4.63c.74-1.48-1.296-6.48-7.778-7.592-6.482-1.11-4.629 3.147-4.629 3.147s-7.409 3.704-7.593 9.26c-.184 5.555.371 15.74 12.222 15.927" fill="#4F4C8E"/><path d="M274.213 312.944c0 2.192-37.277 3.963-83.26 3.963-45.984 0-83.262-1.771-83.262-3.963 0-2.186 37.278-3.96 83.262-3.96 45.983 0 83.26 1.774 83.26 3.96" fill="#E3E9F0"/><path d="M266.118 224.816l-22.85 59.975h36.57c-3.427-15.035-13.72-59.975-13.72-59.975" fill="#D1DDE9"/><path fill="#83A9CD" d="M121.673 311.851H268.34v-88.147H121.673z"/><path fill="#4F4C8E" d="M257.251 150.204l-20.578 100.663-15.57-1.667 10.566-3.893-3.893-1.114 5.562-93.989h23.913"/><path d="M224.438 148.536s-26.136 24.473-22.245 53.946c4.451 23.358 13.903 32.256 13.903 32.256l2.782-.556-4.311 11.402 12.513-13.348s-15.433-21.272-5.838-43.38c9.591-22.107 30.447-30.03 30.447-30.03s-17.933-16.268-19.187-15.85c-1.249.415-8.064 5.56-8.064 5.56M211.647 257.262l-11.678 53.39h3.753l12.096-53.39h-4.171M246.684 257.262l11.68 53.39h-3.755l-12.096-53.39h4.171M227.08 258.513l.418 56.31 3.755-.419-.835-56.724-5.005.418" fill="#4F4C8E"/><path fill="#AFCBE0" d="M201.638 259.209h52.278v-9.453h-52.278z"/><path fill="#C4CCDE" d="M134.056 322.298l-10.48-117.591 6.917-.616 10.483 117.591-6.92.616"/><path d="M213.213 24.309s-6.569-5.527-8.76-5.945c-2.19-.415-5.11.627-5.006.94.104.312 5.735 4.692 5.735 4.692s-2.92-.625-3.024 0c-.105.626.21 1.668.21 1.668l5.42.21 1.67 1.668 3.755-3.233" fill="#F3D0A3"/><path d="M213.316 23.267s42.962 52.137 47.966 62.564c0 0 2.087 3.753 2.087 14.6 0 10.845-3.756 50.887-3.756 50.887l-43.795 2.502s14.182-48.802 14.6-50.053c.415-1.251 7.509-8.76 14.182-10.427l-36.707-66.32 5.423-3.753" fill="#DF4D6A"/><path d="M240.522 88.302s-1.829 5.416-2.835 8.69c0 0 8.94-.19 12.089-4.345l-3.338-7.996-5.916 3.651" fill="#F3D0A3"/><path d="M233.722 71.382s-2.644 15.398 0 18.896c2.645 3.502 11.71-2.45 15.487-8.05 3.775-5.597 4.531-18.197-1.889-19.246-6.42-1.049-12.087 2.8-13.598 8.4" fill="#F3D0A3"/><path d="M252.229 66.773s1.26-2.769-2.013-5.54c-3.274-2.769-14.858 2.016-19.138.756-4.28-1.258-4.03 4.533-.254 7.302 3.78 2.771 13.852-.755 13.852-.755s-3.023 8.813-1.763 10.073c1.51 1.007 2.045-4.445 4.283-2.645 4.53 3.652-3.527 6.423-3.025 8.185.505 1.762 2.771 6.042 5.793 1.762 3.02-4.282 8.058-16.871 2.265-19.138" fill="#4F4C8E"/><path d="M200.387 81.104l-.836-3.475s-1.391-1.251-3.058-1.251l-4.03-2.087-1.114 1.391 1.529.834-7.51-.416 1.392 1.947 8.898 2.502 1.39 2.084 3.339-1.529" fill="#F3D0A3"/><path d="M237.298 97.093l-28.36 8.134-8.134-25.651-5.006 2.084s3.753 32.951 6.882 35.247c3.129 2.293 32.744-3.756 35.662-6.467 2.92-2.709 3.756-12.929-1.044-13.347M395.747 293.333h-92.594a8.52 8.52 0 0 1 0-17.038h92.594a8.52 8.52 0 0 1 0 17.038M294.729 28.518C294.729 13.178 282.29.74 266.95.74c-15.342 0-27.778 12.438-27.778 27.778 0 13.889 10.205 25.364 23.518 27.418v7.397s3.478-2.553 5.76-7.113c14.64-.784 26.278-12.867 26.278-27.702" fill="#DF4D6A"/><path d="M.656 101.851c0-15.34 12.435-27.778 27.777-27.778 15.34 0 27.778 12.438 27.778 27.778 0 13.889-10.207 25.365-23.52 27.418v7.398s-3.478-2.554-5.76-7.114C12.291 128.77.656 116.687.656 101.851" fill="#83A9CD"/></g></svg>
