
<svg width="100" height="35" xmlns="http://www.w3.org/2000/svg" xmlns:xlink="http://www.w3.org/1999/xlink"><defs><linearGradient x1="0%" y1="100%" x2="113.14%" y2="100%" id="a"><stop stop-color="#2C327C" offset="0%"/><stop stop-color="#FFF" offset="100%"/></linearGradient><path id="b" d="M85.039 18.32h14.766V35H85.039z"/></defs><g fill="none" fill-rule="evenodd"><path d="M12.045 5.72C11.1 4.562 9.93 3.982 8.538 3.982c-.612 0-1.18.112-1.701.336a4.14 4.14 0 0 0-1.347.911 4.199 4.199 0 0 0-.887 1.373 4.52 4.52 0 0 0-.324 1.718c0 .629.108 1.208.324 1.74a4.19 4.19 0 0 0 2.244 2.304 4.148 4.148 0 0 0 1.67.335c1.308 0 2.484-.558 3.528-1.676v4.861l-.417.147a12.04 12.04 0 0 1-1.754.493 8.466 8.466 0 0 1-1.607.157 8.078 8.078 0 0 1-3.121-.618 8.158 8.158 0 0 1-2.63-1.74 8.653 8.653 0 0 1-1.827-2.66C.229 10.633 0 9.512 0 8.297c0-1.215.226-2.33.678-3.342a8.319 8.319 0 0 1 1.817-2.62A8.303 8.303 0 0 1 5.135.618 8.207 8.207 0 0 1 8.288 0c.626 0 1.242.066 1.847.2.605.132 1.242.338 1.91.617v4.904zm5.674 1.782h.772c.807 0 1.427-.168 1.858-.503.431-.336.647-.817.647-1.446s-.216-1.11-.647-1.446c-.431-.335-1.05-.503-1.858-.503h-.772v3.898zm8.997 8.738h-5.094l-3.903-6.077v6.077h-4.092V.44h6.367c.877 0 1.642.13 2.296.388.654.258 1.194.61 1.618 1.058.425.447.745.964.96 1.55a5.42 5.42 0 0 1 .324 1.886c0 1.202-.289 2.176-.866 2.924-.578.747-1.43 1.253-2.558 1.519l4.948 6.475zm9.264-5.868l-1.837-5.26-1.837 5.26h3.674zm1.086 3.123H31.22l-.94 2.745h-4.363L31.91.44h4.468l5.991 15.8h-4.363l-.94-2.745zm14.733-9.01a5.049 5.049 0 0 0-1.336-.808 3.536 3.536 0 0 0-1.294-.261c-.529 0-.96.125-1.294.377-.334.251-.501.58-.501.985 0 .279.083.51.25.691.167.182.386.339.658.472.271.132.577.248.918.345.341.098.679.203 1.013.315 1.336.447 2.313 1.044 2.933 1.791.619.748.929 1.722.929 2.923 0 .81-.136 1.544-.408 2.2a4.59 4.59 0 0 1-1.19 1.687c-.521.468-1.161.832-1.92 1.09-.758.258-1.618.388-2.578.388-1.99 0-3.834-.594-5.532-1.781l1.754-3.311c.612.545 1.217.95 1.816 1.215a4.34 4.34 0 0 0 1.774.398c.668 0 1.166-.153 1.493-.46.327-.308.49-.657.49-1.048a1.42 1.42 0 0 0-.125-.619 1.337 1.337 0 0 0-.418-.482 3.342 3.342 0 0 0-.761-.408 24.983 24.983 0 0 0-1.138-.42 22.784 22.784 0 0 1-1.555-.555 4.89 4.89 0 0 1-1.357-.806 3.747 3.747 0 0 1-.96-1.268c-.244-.51-.366-1.156-.366-1.938 0-.783.129-1.492.386-2.127.258-.636.62-1.18 1.086-1.635A4.836 4.836 0 0 1 46.278.377C46.953.126 47.708 0 48.543 0c.779 0 1.593.108 2.442.325.849.216 1.663.534 2.442.953L51.8 4.484zm7.928 2.053h5.908V.44h4.092v15.8h-4.092V9.723h-5.908v6.517h-4.091V.44h4.091v6.098zM12.045 24.04c-.946-1.159-2.115-1.738-3.507-1.738-.612 0-1.18.111-1.701.335a4.14 4.14 0 0 0-1.347.911 4.199 4.199 0 0 0-.887 1.373 4.52 4.52 0 0 0-.323 1.718c0 .629.107 1.209.323 1.74a4.186 4.186 0 0 0 2.244 2.304 4.149 4.149 0 0 0 1.67.336c1.309 0 2.485-.56 3.528-1.677v4.862l-.417.146c-.626.224-1.21.388-1.754.493A8.467 8.467 0 0 1 8.267 35a8.078 8.078 0 0 1-3.121-.618 8.158 8.158 0 0 1-2.63-1.74 8.653 8.653 0 0 1-1.827-2.66C.229 28.954 0 27.833 0 26.617c0-1.215.226-2.33.678-3.342a8.319 8.319 0 0 1 1.817-2.62 8.303 8.303 0 0 1 2.64-1.718 8.208 8.208 0 0 1 3.153-.618 8.58 8.58 0 0 1 1.847.2c.606.132 1.242.338 1.91.618v4.903zm5.382 2.62c0 .629.118 1.209.355 1.74a4.339 4.339 0 0 0 2.37 2.295 4.498 4.498 0 0 0 1.7.324 4.498 4.498 0 0 0 3.122-1.237 4.3 4.3 0 0 0 .97-1.383c.237-.53.355-1.11.355-1.739 0-.628-.118-1.208-.355-1.74a4.316 4.316 0 0 0-.97-1.382 4.498 4.498 0 0 0-3.121-1.236 4.51 4.51 0 0 0-1.702.324 4.339 4.339 0 0 0-2.37 2.295 4.224 4.224 0 0 0-.354 1.74zm-4.28 0a8.28 8.28 0 0 1 .648-3.28 8.185 8.185 0 0 1 1.795-2.65 8.2 8.2 0 0 1 2.745-1.77c1.065-.427 2.237-.64 3.518-.64 1.266 0 2.435.213 3.507.64a8.292 8.292 0 0 1 2.766 1.77 8.105 8.105 0 0 1 1.806 2.65 8.28 8.28 0 0 1 .647 3.28 8.28 8.28 0 0 1-.647 3.28 8.105 8.105 0 0 1-1.806 2.65 8.292 8.292 0 0 1-2.766 1.77c-1.072.427-2.24.64-3.507.64-1.28 0-2.453-.213-3.518-.64a8.2 8.2 0 0 1-2.745-1.77 8.185 8.185 0 0 1-1.795-2.65 8.28 8.28 0 0 1-.648-3.28zm23.106-7.9v8.592c0 .46.017.932.052 1.414.035.482.14.919.313 1.31.174.39.449.709.825.953.376.245.904.367 1.586.367s1.208-.122 1.576-.367a2.27 2.27 0 0 0 .825-.953c.181-.391.289-.828.324-1.31.034-.482.052-.953.052-1.414V18.76h4.07v9.157c0 2.46-.56 4.254-1.68 5.386C43.076 34.434 41.354 35 39.03 35c-2.324 0-4.05-.566-5.177-1.697-1.127-1.132-1.69-2.927-1.69-5.386V18.76h4.09zm16.007 7.062h.773c.807 0 1.426-.168 1.858-.503.431-.335.647-.817.647-1.446 0-.628-.216-1.11-.647-1.446-.432-.335-1.051-.503-1.858-.503h-.773v3.898zm8.998 8.738h-5.094l-3.904-6.077v6.077h-4.09v-15.8h6.367c.877 0 1.642.13 2.296.388.654.258 1.194.611 1.618 1.058.425.447.745.964.96 1.55.216.588.324 1.216.324 1.887 0 1.201-.289 2.175-.866 2.923-.578.747-1.43 1.254-2.558 1.52l4.948 6.474zm9.348-11.755a5.049 5.049 0 0 0-1.336-.807 3.536 3.536 0 0 0-1.295-.262c-.528 0-.96.126-1.294.377-.334.252-.5.58-.5.985 0 .28.083.51.25.691.167.182.386.34.657.472.272.133.578.248.919.346.34.097.678.202 1.012.314 1.336.447 2.314 1.044 2.933 1.792.62.747.93 1.721.93 2.923 0 .81-.136 1.543-.408 2.2a4.59 4.59 0 0 1-1.19 1.687c-.522.468-1.162.83-1.92 1.09-.759.258-1.618.387-2.578.387-1.99 0-3.835-.594-5.533-1.781l1.754-3.31c.612.544 1.218.949 1.816 1.214.599.266 1.19.399 1.775.399.668 0 1.165-.154 1.492-.461.327-.308.49-.657.49-1.048a1.42 1.42 0 0 0-.124-.618 1.337 1.337 0 0 0-.418-.482 3.342 3.342 0 0 0-.762-.409 24.984 24.984 0 0 0-1.138-.419 22.785 22.785 0 0 1-1.555-.555 4.89 4.89 0 0 1-1.357-.807 3.747 3.747 0 0 1-.96-1.268c-.244-.51-.365-1.156-.365-1.938s.128-1.491.386-2.127a4.74 4.74 0 0 1 1.085-1.634 4.836 4.836 0 0 1 1.712-1.059c.675-.251 1.43-.377 2.265-.377.78 0 1.594.109 2.443.325.849.217 1.663.534 2.442.954l-1.628 3.206zm12.792-.566h-4.864v2.64h4.593v3.478h-4.593v2.725h4.864v3.478h-8.955v-15.8h8.955v3.479z" fill="#2C327C"/><path fill="url(#a)" d="M72.188.547l27.617 1.1v-.013l-27.618 1.1zm0 4.375l27.617 1.1V6.01l-27.618 1.1zm0 4.648l27.617 1.1v-.013l-27.618 1.1zm0 4.649l27.617 1.1v-.013l-27.618 1.1z"/><mask id="c" fill="#fff"><use xlink:href="#b"/></mask><path fill="url(#a)" mask="url(#c)" d="M72.188 18.867l27.8 1.147V20l-27.8 1.147zm0 4.559l27.8 1.147v-.014l-27.8 1.147zm0 4.559l27.8 1.147v-.014l-27.8 1.146zm0 4.559l27.8 1.147v-.014l-27.8 1.146z"/></g></svg>
