<svg width="187" height="190" xmlns="http://www.w3.org/2000/svg" xmlns:xlink="http://www.w3.org/1999/xlink"><defs><path d="M.5 4.08A66.253 66.253 0 0 0 4.387.968h.002A65.154 65.154 0 0 1 .5 4.08z" id="a"/></defs><g fill="none" fill-rule="evenodd"><path d="M184.731 18.569l-26.307 76.524a2.47 2.47 0 0 1-3.138 1.533l-42.791-14.711a2.47 2.47 0 0 1-1.532-3.138l26.308-76.524a2.475 2.475 0 0 1 3.139-1.54l42.792 14.711a2.476 2.476 0 0 1 1.529 3.145" fill="#C4D5D9"/><path d="M186.657 19.231L160.35 95.756a2.47 2.47 0 0 1-3.138 1.532l-42.791-14.711a2.469 2.469 0 0 1-1.532-3.138l26.306-76.524a2.477 2.477 0 0 1 3.141-1.54l42.792 14.711a2.476 2.476 0 0 1 1.529 3.145" fill="#DAE7EA"/><path d="M181.212 20.999l-9.999 29.066-.002.01-8.149 23.728-.001.01-3.714 10.776-.872 2.542a1.331 1.331 0 0 1-1.696.828l-20.44-7.031-15.834-5.442a1.338 1.338 0 0 1-.837-1.698l22.736-66.132a1.333 1.333 0 0 1 1.619-.855l.086.029 6.179 2.127 13.757 4.733 16.329 5.611a1.331 1.331 0 0 1 .838 1.698" fill="#F3F8F6"/><path d="M136.507 87.924a2.324 2.324 0 1 1 1.51-4.393 2.324 2.324 0 0 1-1.51 4.393M146.998 6.404a.945.945 0 1 1 .615-1.784.945.945 0 0 1-.615 1.784" fill="#C4D5D9"/><path d="M155.563 70.12l-1.052-.362 1.575-4.584a8.47 8.47 0 0 0-.4-6.51l-2.901-5.938a3.802 3.802 0 0 1 1.746-5.079l5.939-2.9a8.466 8.466 0 0 0 4.319-4.887l1.575-4.584 1.053.363-1.575 4.583a9.575 9.575 0 0 1-4.884 5.526l-5.938 2.9a2.688 2.688 0 0 0-1.235 3.589l2.901 5.939a9.57 9.57 0 0 1 .453 7.36l-1.576 4.584M133.478 62.528l-1.052-.362 1.576-4.585a9.573 9.573 0 0 1 4.884-5.525l5.938-2.9a2.689 2.689 0 0 0 1.235-3.589l-2.901-5.938a9.569 9.569 0 0 1-.454-7.361l1.576-4.584 1.053.362-1.576 4.584a8.474 8.474 0 0 0 .401 6.51l2.901 5.938a3.802 3.802 0 0 1-1.747 5.079l-5.938 2.9a8.466 8.466 0 0 0-4.319 4.887l-1.577 4.584" fill="#CDE6E9"/><path d="M167.566 36.803c-.12 0-.242-.02-.362-.06l-23.434-8.057a1.114 1.114 0 1 1 .724-2.106l23.435 8.056a1.115 1.115 0 0 1-.363 2.167M155.712 71.285c-.12 0-.242-.02-.362-.061l-23.435-8.056a1.115 1.115 0 0 1 .725-2.107l23.434 8.056c.581.201.891.834.692 1.416-.16.461-.591.752-1.054.752" fill="#AEC3C6"/><path d="M145.992 36.872l4.367 8.945a.834.834 0 0 0 1.115.383l8.944-4.368a.833.833 0 0 0-.095-1.536l-13.312-4.576a.832.832 0 0 0-1.019 1.152M142.014 60.861l3.814-1.862a.831.831 0 0 1 1.113.383l1.864 3.814a.833.833 0 0 1-1.02 1.152l-5.677-1.951c-.701-.241-.76-1.21-.094-1.536M148.219 56.638a.905.905 0 1 1-1.712-.588.905.905 0 0 1 1.712.588M149.507 52.893a.906.906 0 1 1-1.71-.588.906.906 0 0 1 1.71.588M150.794 49.149a.905.905 0 1 1-1.712-.59.905.905 0 0 1 1.712.59" fill="#7493BF"/><path d="M157.215 88.033c-.145 0-.292-.024-.436-.074l-20.44-7.031-3.432-17.419 22.443 7.715a1.118 1.118 0 0 0 1.281-.423l2.716 13.788-.872 2.542a1.33 1.33 0 0 1-1.26.902m-.892-18.794a1.152 1.152 0 0 0-.249-.122l-.149-.051.232-.672.166.845m-1.45-.535l-21.032-7.23 1.214-3.53a8.466 8.466 0 0 1 4.319-4.887l5.938-2.9a3.802 3.802 0 0 0 1.747-5.079l-2.901-5.938a8.474 8.474 0 0 1-.401-6.51l1.214-3.531 3.695 1.271 1.251 6.349-2.906-.999a.837.837 0 0 0-.277-.048c-.58 0-1.024.623-.742 1.2l4.367 8.945a.835.835 0 0 0 1.115.383l.283-.139.784 3.979a3.786 3.786 0 0 0 .244 2.686l.478.978 2.465 12.512-.855 2.488m-8.68-9.79a.823.823 0 0 0-.365.085l-3.814 1.862c-.666.326-.607 1.295.094 1.536l5.677 1.951a.833.833 0 0 0 .277.048c.58 0 1.024-.623.743-1.2l-1.864-3.814a.83.83 0 0 0-.748-.468m1.171-3.475a.904.904 0 1 0-.001 1.809.904.904 0 0 0 .001-1.809m1.287-3.745a.905.905 0 1 0 0 1.81.905.905 0 0 0 0-1.81m1.287-3.744a.905.905 0 1 0 .294.049.885.885 0 0 0-.294-.049m-17.15 13.162l-.148-.051a1.219 1.219 0 0 0-.225-.052l-3.044-15.451 13.033-37.902a1.333 1.333 0 0 1 1.619-.855l4.146 21.042-3.675-1.263a1.112 1.112 0 0 0-.724 2.106l.148.051-1.214 3.531a9.569 9.569 0 0 0 .454 7.361l2.901 5.938a2.689 2.689 0 0 1-1.235 3.589l-5.938 2.9a9.573 9.573 0 0 0-4.884 5.525l-1.214 3.531" fill="#F8FAF9"/><path d="M155.925 69.066l-1.052-.362.855-2.488.429 2.178-.232.672m-2.662-15.362l-.478-.978a3.786 3.786 0 0 1-.244-2.686l.722 3.664M133.841 61.474l-1.053-.362 1.214-3.531a9.573 9.573 0 0 1 4.884-5.525l5.938-2.9a2.689 2.689 0 0 0 1.235-3.589l-2.901-5.938a9.569 9.569 0 0 1-.454-7.361l1.214-3.531 1.053.362-1.214 3.531a8.474 8.474 0 0 0 .401 6.51l2.901 5.938a3.802 3.802 0 0 1-1.747 5.079l-5.938 2.9a8.466 8.466 0 0 0-4.319 4.887l-1.214 3.53" fill="#DCEFF0"/><path d="M148.666 30.37l-3.695-1.271-1.053-.362-.148-.051a1.114 1.114 0 1 1 .724-2.106l3.675 1.263.497 2.527M155.712 71.285c-.12 0-.242-.02-.362-.061l-22.443-7.715-.492-2.5c.075.01.15.027.225.052l.148.051 22.085 7.592 1.052.362.149.051c.09.031.173.073.249.122l.308 1.562a1.118 1.118 0 0 1-.919.484" fill="#C6D7D7"/><path d="M151.109 46.285a.835.835 0 0 1-.75-.468l-4.367-8.945c-.282-.577.162-1.2.742-1.2.089 0 .183.015.277.048l2.906.999 1.84 9.342-.283.139a.837.837 0 0 1-.365.085M148.062 64.396a.833.833 0 0 1-.277-.048l-5.677-1.951c-.701-.241-.76-1.21-.094-1.536l3.814-1.862a.83.83 0 0 1 1.113.383l1.864 3.814c.281.577-.163 1.2-.743 1.2M147.364 57.249a.906.906 0 1 1 .294-1.761.904.904 0 0 1-.294 1.761M148.651 53.504a.906.906 0 1 1 0 0M149.938 49.76a.905.905 0 1 1 0 0" fill="#9DB3D1"/><path d="M163.062 73.803l-5.226-26.531 3.122-1.524a9.575 9.575 0 0 0 4.884-5.526l1.213-3.531.149.052a1.117 1.117 0 0 0 1.296-.445l2.713 13.767-.002.01-8.149 23.728m-5.449-27.661l-.528-2.682 3.333-1.628a.833.833 0 0 0-.095-1.536l-4.142-1.424-1.25-6.349 11.071 3.806-1.213 3.531a8.466 8.466 0 0 1-4.319 4.887l-2.857 1.395m10.586-11.369a1.089 1.089 0 0 0-.27-.137l-13.496-4.639-4.145-21.04 13.757 4.733 4.154 21.083" fill="#F8FAF9"/><path d="M157.836 47.272l-.223-1.13 2.857-1.395a8.466 8.466 0 0 0 4.319-4.887l1.213-3.531 1.053.362-1.213 3.531a9.575 9.575 0 0 1-4.884 5.526l-3.122 1.524" fill="#DCEFF0"/><path d="M167.566 36.803c-.12 0-.242-.02-.362-.06l-.149-.052-12.124-4.168-.498-2.526 13.496 4.639c.098.034.189.08.27.137l.301 1.525c-.206.316-.56.505-.934.505" fill="#C6D7D7"/><path d="M157.085 43.46l-.904-4.588 4.142 1.424a.833.833 0 0 1 .095 1.536l-3.333 1.628" fill="#9DB3D1"/><path d="M180.609 86.515l2.164 22.317a2.195 2.195 0 0 1-1.975 2.4l-30.58 2.966a2.198 2.198 0 0 1-2.4-1.976l-2.165-22.317a2.197 2.197 0 0 1 1.976-2.399l30.58-2.966a2.195 2.195 0 0 1 2.4 1.975" fill="#C7CFD1"/><path d="M181.093 82.703l3.582 22.134a2.196 2.196 0 0 1-1.82 2.52l-30.328 4.908a2.196 2.196 0 0 1-2.521-1.819l-3.581-22.134a2.195 2.195 0 0 1 1.818-2.52l30.329-4.908a2.197 2.197 0 0 1 2.521 1.819" fill="#D5DFE3"/><path d="M181.093 82.703l.795 4.91-34.669 5.61-.794-4.911a2.195 2.195 0 0 1 1.818-2.52l30.329-4.908a2.197 2.197 0 0 1 2.521 1.819" fill="#E28E58"/><path fill="#FFFFFE" d="M182.146 89.21l-34.668 5.609-.259-1.596 34.669-5.61.258 1.597"/><path d="M157.229 87.039a2.63 2.63 0 1 1-5.191.84 2.63 2.63 0 0 1 5.191-.84M175.629 84.062a2.63 2.63 0 1 1-5.191.84 2.63 2.63 0 0 1 5.191-.84" fill="#BC7143"/><path d="M154.632 89.257c-.867 0-1.63-.628-1.773-1.511l-.622-3.845a1.797 1.797 0 0 1 1.488-2.062 1.79 1.79 0 0 1 2.061 1.487l.622 3.846a1.796 1.796 0 0 1-1.776 2.085M173.031 86.28c-.867 0-1.63-.628-1.772-1.511l-.622-3.845a1.797 1.797 0 0 1 1.487-2.062 1.795 1.795 0 0 1 2.062 1.487l.622 3.846a1.797 1.797 0 0 1-1.777 2.085" fill="#5977A4"/><path fill="#A1B5C8" d="M155.759 99.239l-3.372.546-.464-2.864 3.373-.546.463 2.864M179.054 95.47l-3.373.545-.464-2.864 3.373-.546.464 2.865M173.229 96.412l-3.373.546-.462-2.864 3.373-.546.462 2.864M167.406 97.354l-3.373.546-.463-2.864 3.372-.546.464 2.864M161.583 98.297l-3.373.546-.464-2.865 3.373-.546.464 2.865M156.513 103.893l-3.373.546-.464-2.864 3.373-.546.464 2.864M179.807 100.124l-3.373.546-.464-2.865 3.373-.545.464 2.864M173.982 101.066l-3.372.546-.464-2.864 3.374-.546.462 2.864M168.159 102.009l-3.373.545-.463-2.864 3.373-.546.463 2.865M162.336 102.951l-3.373.546-.463-2.864 3.372-.546.464 2.864M157.266 108.548l-3.373.546-.464-2.865 3.373-.546.464 2.865M180.56 104.778l-3.373.546-.463-2.864 3.372-.546.464 2.864M174.736 105.721l-3.373.545-.464-2.864 3.373-.546.464 2.865M168.912 106.663l-3.373.546-.463-2.864 3.373-.546.463 2.864M163.089 107.605l-3.373.546-.463-2.864 3.372-.546.464 2.864"/><path d="M15.364 31.987L6.162 50.009a2.03 2.03 0 0 0 .885 2.731L41.76 70.465a2.03 2.03 0 0 0 2.73-.885l9.203-18.022a2.04 2.04 0 0 0 .09-1.641 2.042 2.042 0 0 0-.975-1.09L18.095 31.102a2.039 2.039 0 0 0-1.454-.151 2.045 2.045 0 0 0-1.277 1.036" fill="#6A6E6B"/><path d="M16.641 30.951l8.687 19.162a7.079 7.079 0 0 0 7.84 4.002l20.615-4.198a2.042 2.042 0 0 0-.975-1.09L18.095 31.102a2.039 2.039 0 0 0-1.454-.151" fill="#828E8B"/><path d="M39.088 19.508l5.526 12.986a1.416 1.416 0 0 0 1.858.748l25.013-10.645a1.415 1.415 0 0 0 .748-1.857L66.707 7.754a1.424 1.424 0 0 0-.838-.783 1.425 1.425 0 0 0-1.019.034L39.836 17.651a1.424 1.424 0 0 0-.732.711c-.158.35-.178.765-.016 1.146" fill="#E28E58"/><path d="M39.104 18.362l14.14 3.923a4.939 4.939 0 0 0 5.65-2.404l6.975-12.91a1.425 1.425 0 0 0-1.019.034L39.836 17.651a1.424 1.424 0 0 0-.732.711" fill="#F4BD92"/><path d="M.734 119.483a.5.5 0 0 1-.5-.5c0-5.12.556-10.225 1.653-15.177a69.396 69.396 0 0 1 7.339-19.127.498.498 0 0 1 .681-.19c.24.136.325.441.19.682a68.34 68.34 0 0 0-7.233 18.852 69.222 69.222 0 0 0-1.63 14.96.5.5 0 0 1-.5.5M3.02 137.208a.5.5 0 0 1-.483-.372 69.387 69.387 0 0 1-1.316-6.085.5.5 0 0 1 .986-.168 68.835 68.835 0 0 0 1.296 5.997.499.499 0 0 1-.356.611l-.127.017" fill="#C3C7C3"/><path d="M134.8 118.983c0 35.751-28.982 64.733-64.734 64.733-35.751 0-64.732-28.982-64.732-64.733 0-35.751 28.981-64.733 64.732-64.733 35.752 0 64.734 28.982 64.734 64.733" fill="#C3C7C3"/><path d="M128.504 118.979c0 19.325-9.374 36.451-23.821 47.089a58.074 58.074 0 0 1-14.139 7.659 55.817 55.817 0 0 1-7.023 2.136 58.091 58.091 0 0 1-13.451 1.561 58.35 58.35 0 0 1-17.363-2.619c-23.801-7.392-41.081-29.591-41.081-55.826a58.172 58.172 0 0 1 5.821-25.443A58.674 58.674 0 0 1 37.716 70.31a56.432 56.432 0 0 1 6.356-3.675 57.82 57.82 0 0 1 15.247-5.104 58.903 58.903 0 0 1 10.751-.985c32.272 0 58.434 26.162 58.434 58.433" fill="#AEAFAB"/><path d="M126.98 118.98c0 18.82-9.13 35.5-23.2 45.86a56.599 56.599 0 0 1-13.77 7.46c-2.22.839-4.5 1.53-6.84 2.08-4.21 1-8.59 1.52-13.1 1.52-5.89 0-11.57-.89-16.91-2.551-23.18-7.199-40.01-28.819-40.01-54.369 0-8.89 2.04-17.29 5.67-24.78 4.45-9.19 11.3-17 19.74-22.62 1.98-1.32 4.04-2.52 6.19-3.58 4.62-2.3 9.61-4 14.85-4.97 3.39-.63 6.89-.96 10.47-.96 31.43 0 56.91 25.48 56.91 56.91" fill="#F1F5F3"/><path d="M83.17 174.38c-4.21 1-8.59 1.52-13.1 1.52-5.89 0-11.57-.89-16.91-2.551L18.82 94.2c4.45-9.19 11.3-17 19.74-22.62l44.61 102.8M103.78 164.84a56.599 56.599 0 0 1-13.77 7.46L44.75 68c4.62-2.3 9.61-4 14.85-4.97l44.18 101.81" fill="#FFFFFE"/><path d="M70.069 121.984a3 3 0 0 1-1.393-5.659l30.558-15.983a3 3 0 0 1 2.782 5.316l-30.559 15.983a2.98 2.98 0 0 1-1.388.343" fill="#E28E58"/><path d="M81.75 118.983c0 6.452-5.23 11.683-11.684 11.683-6.452 0-11.682-5.231-11.682-11.683 0-6.453 5.23-11.683 11.682-11.683 6.454 0 11.684 5.23 11.684 11.683" fill="#6A6E6B"/><path d="M70.069 121.983a2.996 2.996 0 0 1-2.555-1.424L43.447 81.575a3 3 0 0 1 5.106-3.151l24.066 38.983a3.001 3.001 0 0 1-2.55 4.576" fill="#6A6E6B"/><g transform="translate(108 167)"><mask id="b" fill="#fff"><use xlink:href="#a"/></mask><path fill="#C3C7C3" mask="url(#b)" d="M.5 4.08h3.889V.968H.5z"/></g><path d="M112.387 167.968a65.05 65.05 0 0 0 .002 0h-.002m6.606-6.597l.007-.009-.007.009m15.807-42.388v-.007.004m0-.081v-.025.025m-.001-.087v-.043.043m0-.094c-.047-11.696-3.196-22.663-8.667-32.115h.001c5.471 9.453 8.62 20.418 8.666 32.115" fill="#B6BFBD"/><path d="M126.133 86.603h-.001a64.953 64.953 0 0 0 .001 0M116.079 73.45l-.033-.034.033.034m-.074-.075l-.018-.017.018.017m-.072-.072l-.001-.001.001.001" fill="#A7B4B5"/><path d="M108.5 171.08l-1.691-6.654c13.233-10.712 21.695-27.088 21.695-45.447 0-28.655-20.627-52.493-47.843-57.476l-.962-3.787a11.411 11.411 0 0 1-.349-2.796c14.205 2.034 26.922 8.684 36.582 18.382l.001.001.054.055a.281.281 0 0 1 .018.017l.041.041.033.034.001.001a64.953 64.953 0 0 1 10.052 13.152c5.471 9.452 8.62 20.419 8.667 32.115v.094l.001.062V118.983c0 16.203-5.958 31.022-15.8 42.379l-.007.009-.017.019a65.05 65.05 0 0 1-10.477 9.687" fill="#959D9A"/><path d="M106.809 164.426l-.414-1.631c12.575-10.438 20.585-26.189 20.585-43.815 0-27.665-19.742-50.72-45.905-55.847l-.414-1.63c27.216 4.983 47.843 28.821 47.843 57.476 0 18.359-8.462 34.735-21.695 45.447" fill="#868B87"/><path d="M106.395 162.795l-13.327-52.457 8.948-4.68a3 3 0 0 0-2.782-5.316l-7.684 4.019-10.475-41.228c26.163 5.127 45.905 28.182 45.905 55.847 0 17.626-8.01 33.377-20.585 43.815" fill="#B5BDBA"/><path d="M93.068 110.338l-1.518-5.977 7.684-4.019a2.997 2.997 0 0 1 4.049 1.267 3 3 0 0 1-1.267 4.049l-8.948 4.68" fill="#AD7148"/><path d="M43.087 186.85h53.956a1.566 1.566 0 1 0 0-3.134H43.087a1.567 1.567 0 1 0 0 3.134M118.979 189.184h28.644a1.568 1.568 0 0 0 0-3.134h-28.644a1.566 1.566 0 1 0 0 3.134" fill="#E0E0DB"/><path fill="#D3DAE2" d="M128.43 182.523l-1.334-8.294 3.73-1.128.594 8.789-2.99.633"/><path d="M131.562 181.003c.249.035.485.127.673.283 1.321 1.096 5.332 3.055 7.392 3.352 2.207.319 2.32 1.412-.786 1.412s-5.383-.278-6.767-.243c-1.385.036-1.025.243-4.429.243-2.615 0-1.796-3.333-.862-4.883.285-.472.668-.739 1.237-.658l3.542.494" fill="#E28E58"/><path fill="#D3DAE2" d="M116.419 174.791l5.207-6.593 3.353 1.986-6.072 6.381-2.488-1.774"/><path d="M119.657 176.069c.142.207.235.443.246.689.086 1.713 1.412 6.089 2.95 7.492 1.585 1.447.562 1.8-1.991.595-2.808-1.326-3.436-4.153-4.398-5.149-.962-.996-.871-.591-3.174-3.1-1.768-1.924 1.24-3.576 3.015-3.935.54-.109.996-.008 1.32.465l2.032 2.943" fill="#E28E58"/><path d="M114.118 34.938s-1.018 6.792.951 9.916c1.97 3.125 2.253 3.6 2.253 3.6" fill="#E1855E"/><path d="M119.123 51.49c-.56.33-1.189.49-1.8.49-1.2 0-2.37-.61-3.03-1.72-.04-.05-.39-.64-2.21-3.52-1.28-2.03-1.689-4.8-1.75-7.23-.08-2.38.19-4.43.29-5.1.29-1.93 2.1-3.26 4.021-2.96a3.52 3.52 0 0 1 2.969 4.01c-.15 1.02-.23 2.19-.23 3.31 0 1.14.08 2.23.27 3.06.1.48.23.87.4 1.14 2.01 3.19 2.301 3.68 2.301 3.68 1 1.67.449 3.84-1.231 4.84" fill="#F0A880"/><path d="M106.083 90.36c.74-10.13-2.67-35.3-4.42-45.32a2.49 2.49 0 0 1 2.45-2.91h20.821c1.119 0 2.109.75 2.399 1.84 2.38 9.09 3.9 46.39 3.9 46.39h-25.15" fill="#E8E7E3"/><path d="M140.483 69.25c-.35-1.89-2.67-6.77-5.28-11.87a493.792 493.792 0 0 0-7.29-13.64 2.988 2.988 0 0 0-5.229 2.89c2.199 3.97 4.469 8.2 6.429 11.98 2.241 4.31 4.422 6.978 5.302 9.098-1.625 1.417-5.625 1.508-8.824 1.317-.875-.102-4.265-.342-6.522 1.73-.882.809-1.912 2.27-1.806 4.629.072 1.603.306 2.264 1.735 2.96.578.281 1.359.359 2 .281 1.639-.2 1.781-1.094 1.797-3.016.011-1.347.703-2.73.703-2.734 0 0 4.831 1.182 8.875 1.687 4.044.505 5.67-.282 7.15-1.952.831-.93 1.18-2.15.96-3.36" fill="#F0A880"/><path d="M107.179 106.728s-3.063-5.616-1.093-16.368h25.145s.357 8.184-.219 16.368h-23.833" fill="#385994"/><path d="M135.203 57.38l-2.93.59-3.16.64c-1.96-3.78-4.23-8.01-6.429-11.98a2.988 2.988 0 0 1 5.229-2.89c1.43 2.57 4.521 8.23 7.29 13.64" fill="#E1855E"/><path d="M106.883 44.47a2.984 2.984 0 0 0-3.619-2.18c-7.211 1.77-12.221 3.41-15.711 4.87-8.02 3.38-7.949 5.88-7.92 7.17.039 1.459.323 4.28 17.628 10.586.011.497-.548 2.479-.893 3.116-.786 1.451.031 2.842.893 4.249.294.48.956 1.063 1.8 1.063 1.061 0 2.381-1.345 2.563-2.466.655-4.034.542-6.406.343-6.878l-.004-.009-.005-.013-.063-.116a3.153 3.153 0 0 0-.218-.394l-.174-.212-.196-.232a3.094 3.094 0 0 0-.373-.306l-.065-.052a3.049 3.049 0 0 0-.654-.332c-5.856-2.409-11.329-6.306-13.732-8.034.84-.48 2.04-1.04 3.51-1.63 3.71-1.49 9.14-3.21 14.7-4.58 1.6-.4 2.58-2.01 2.19-3.62" fill="#F0A880"/><path d="M135.673 56.08l-4.01.77-3.149.6h-.011l-2.66.51c-3.43-6.73-4.25-8.27-4.38-10.57-.14-2.6.56-3.89 2.25-4.82a3.5 3.5 0 0 1 4.76 1.36c.041.08 3.72 5.31 7.2 12.15" fill="#E8E7E3"/><path d="M146.623 140c-.37 2.47-1.71 5.12-3.58 8.389-3.14 5.451-7.939 11.481-12.25 16.551-3 3.53-5.75 6.59-7.52 8.67-.77.89-1.35 1.6-1.7 2.09l-3.55-4.601c1.32-1.859 2.55-4.369 4.09-6.71l.12-.179c2.9-4.37 5.97-9.3 8.46-13.781.1-.149.18-.299.26-.449 2.63-4.74 4.58-8.94 4.95-11.4.66-4.39-5.889-18.05-12.37-30.1a349.45 349.45 0 0 0-2.21-4.06 3.43 3.43 0 0 1-.42-1.46c-.19-2.22 1.44-4.77 3.42-5.861 2.43-1.339 5.571-2.029 6.91.401 2.74 4.97 17.01 31.76 15.39 42.5" fill="#385994"/><path d="M130.793 164.94c-3 3.53-5.75 6.59-7.52 8.67-.28-2.46-.58-5.13-.879-7.83-.061-.52-.111-1.04-.161-1.57 2.9-4.37 5.97-9.3 8.46-13.781.11 4.431.12 9.611.1 14.511" fill="#2E4D7A"/><path d="M130.144 141.349c-1.232-10.059-9.679-37.087-10.99-40.068-1.11-2.54-7.211-3.081-9.76-1.961a5.02 5.02 0 0 0-2.581 6.62c3.39 7.73 13.038 28.375 13.998 35.685.56 4.37 1.312 13.155 2.692 20.644.97 5.231 1.94 10.321 2.66 14.021.62 3.21.623 2.622.683 2.942l6.027-.92s-1.278-25.098-2.729-36.963" fill="#385994"/><path d="M104.693 48.09c-5.56 1.37-10.99 3.09-14.7 4.58l-2.44-5.51c3.49-1.46 8.5-3.1 15.711-4.87 1.599-.4 3.229.58 3.619 2.18.39 1.61-.59 3.22-2.19 3.62" fill="#E1855E"/><path d="M103.309 42.205c1.914-.276 3.293.629 3.806 2.493.515 1.862-.774 3.326-2.441 4.305-2.051 1.205-2.74 1.432-11.372 4.403l-4.798-6.656c11.033-4.265 11.601-4.082 14.805-4.545" fill="#E8E7E3"/><path d="M117.653 41.83c-.16.01-.32.01-.48.01-2.569 0-4.95-.87-6.84-2.33-.08-2.38.19-4.43.29-5.1.29-1.93 2.1-3.26 4.021-2.96a3.52 3.52 0 0 1 2.969 4.01c-.15 1.02-.23 2.19-.23 3.31 0 1.14.08 2.23.27 3.06" fill="#E1855E"/><path d="M127.658 29.274c-1.41 6.476-5.027 11.229-11.229 11.229-6.201 0-10.118-4.691-11.229-11.229-1.039-6.114 5.057-12.108 11.259-12.108 6.201 0 12.519 6.049 11.199 12.108" fill="#F0A880"/><path d="M128.501 179.267l-.028-.178c-1.702-10.518-4.271-26.412-5.573-36.408-.949-7.278-9.956-28.919-13.346-36.643l-.059-.173-.028-.09c-.55-1.489-2.221-7.017-.632-15.695l.492.09c-1.566 8.552.069 13.973.609 15.43l.041.129.034.108c3.399 7.742 12.428 29.443 13.385 36.78 1.301 9.987 3.87 25.877 5.57 36.393l.029.177-.494.08" fill="#6181AE"/><path d="M120.423 42.13c0 1.51-.6 4.06-4.58 4.06-2.9 0-6.54-1.23-7.88-3.56l-.29-.5h12.75" fill="#C5D2D2"/><path d="M108.831 42.128c1.063 1.851 4.25 3.059 7.011 3.059 2.762 0 3.578-1.369 3.578-3.059h-10.589" fill="#F0A880"/><path d="M123.952 73.5c-.001-.031.151-1.729-1.601-4.21l1.634-.971c2.076 3.077 1.868 5.307 1.868 5.452l-1.901-.271" fill="#7EA1BE"/><path d="M122.657 68.348c.94-.436 2.184-.232 2.78.454.596.686.318 1.595-.621 2.031-.939.436-2.183.233-2.779-.454-.597-.686-.318-1.596.62-2.031" fill="#4D729C"/><path d="M127.373 20.958c-3.375-5.458-11.74-5.917-13.371-5.833-.861.044-2.709.536-3.531 1.828-.056-.903.007-1.682.007-1.682-.738.905-.857 1.652-.72 2.233-.502-.663-.861-1.405-.861-1.405-.147.955.127 1.484.489 1.794-2.282.533-5.2 3.763-4.2 10.388.436 2.889 6.944.679 8.791-2.215 1.238 1.983 3.694 2.401 3.694 2.401-.864-.856-1.598-2.133-2.186-3.413 3.468 2.124 8.108 4.408 8.637 5.821 0 0 1-2.267.25-3.709 0 0 2.752.685 3.1 3.435 0 0 3.515-3.798-.099-9.643" fill="#3C3D3B"/><path fill="#6181AE" d="M121.516 107.173l-2.748-17.008.494-.08 2.748 17.008-.494.08"/><path d="M121.245 103.942l-.077-.494c.011-.002 1.055-.175 1.625-.963.334-.46.445-1.049.332-1.749l-1.741-10.776.494-.08 1.741 10.776c.135.839-.008 1.554-.424 2.127-.696.956-1.899 1.151-1.95 1.159" fill="#6181AE"/><path d="M104.801 28.627a3.914 3.914 0 0 0 .042 3.307c.565 1.178 2.277 1.113 2.812-.08l1.454-3.239c.536-1.192-.554-2.515-1.81-2.154a3.917 3.917 0 0 0-2.498 2.166" fill="#F0A880"/></g></svg>
