<svg width="563" height="566" xmlns="http://www.w3.org/2000/svg"><g fill="none" fill-rule="evenodd"><path d="M280.766 514.521c2.3-6.37 8.519-10.56 11.493-16.646 1.623-3.32 2.331-7.233 3.336-10.877-1.675.99-3.15 2.266-4.092 3.801-.306.5-1.152.442-1.293-.169-.418-1.812 1.916-4.009 3.021-5.239 1.083-1.207 2.326-1.902 3.75-2.65l.1-.055c.972-2.18 2.297-4.084 4.342-5.453 2.436-1.63 5.478-2.119 7.986-3.635 6.298-3.809 7.202-12.319 9.301-19.372.405-1.36.908-2.682 1.456-3.982-2.523-.365-4.989-.353-7.376.255-12.868 3.28-9.18 19.78-17.112 27.336-4.255 4.053-10.92 4.38-15.676 7.831-8.271 6.005-7.625 18.204-7.42 28.423a42.41 42.41 0 0 1-.582 7.884 213.49 213.49 0 0 0 8.908 14.58c.156.232.327.47.488.705a41.518 41.518 0 0 0-.406-4.885c-.829-5.96-2.267-12.192-.224-17.852" fill="#D198A5"/><path d="M351.331 481.108c-1.699-.342-2.657-1.884-4.4-2.165-1.74-.279-3.56-.54-5.313-.46-.61.028-.865-.884-.315-1.165 1.809-.923 3.517-1.129 5.548-1.298 2.222-.186 3.472.95 5.439 1.607 2.215.741 1.314 3.94-.959 3.481zm-1.721 16.671c-1.641 2.987-15.165 4.781-14.592.336.09-.7.824-1.132 1.383-.834 2.315-.695 5.002-.548 7.374-1.032 1.579-.322 4.15-2.069 5.537-.782.627.583.694 1.591.298 2.312zm-33.145 5.575c-1.714 1.658-5.285 2.31-7.625 2.275-4.113-.06-8.267-.457-12.382-.64-1.945-.087-1.942-2.934 0-3.02 6.154-.275 12.207-.134 18.1-1.889 1.875-.557 3.302 1.923 1.907 3.274zm3.98-53.354c-.547 1.3-1.05 2.621-1.455 3.982-2.1 7.053-3.003 15.563-9.301 19.372-2.508 1.516-5.55 2.005-7.986 3.635-2.045 1.369-3.37 3.273-4.342 5.453 1.14-.61 2.233-1.336 3.467-1.739 2.535-.827 3.589 3.525 1.072 3.89-1.97.286-4.126 1.038-6.025 2.161-1.005 3.644-1.713 7.556-3.336 10.877-2.974 6.086-9.193 10.275-11.493 16.646-2.043 5.66-.605 11.891.224 17.852.22 1.59.374 3.238.406 4.885 8.325 12.201 21.98 26.049 38.674 28.035 15.405 1.834 23.087-11.394 28.893-22.252 14.227-26.601 19.237-57.326 14.34-87.151-2.974 1.529-6.193 2.563-9.441 2.941-11.267 1.31-23-7.04-33.696-8.587z" fill="#E0A8B3"/><path d="M461.512 193.88c4.698-4.332 7.926-11.055 5.962-17.137-3.214-9.955-16.565-11.313-27-10.573-3.167.224-6.32.508-9.474.786 7.327 10.769 12.849 22.74 15.664 35.224 5.426-1.967 10.639-4.416 14.848-8.3M309 240.276c29.646-5.637 59.001-13.58 88.1-22.276-25.394 7.582-50.983 14.6-76.79 20.013-3.765.79-7.535 1.544-11.31 2.263M283.59 244c-.863.123-1.727.237-2.59.355.864-.117 1.727-.233 2.59-.355M253.252 211a761.306 761.306 0 0 0-16.178 6.747c-9.163 3.961-18.65 8.477-24.48 16.58-1.869 2.596-3.339 5.949-2.187 8.935 1.634 4.238 7.191 5.04 11.733 5.084 11.377.109 22.706-.331 33.992-1.226-2.157-7.995-3.072-16.389-3.208-24.685-.063-3.803.058-7.622.328-11.435" fill="#27305A"/><path d="M419.301 376.766c-3.07 0-3.066-4.766 0-4.766 3.072 0 3.067 4.766 0 4.766zm-6.205-39.424c-2.797 0-2.793-4.342 0-4.342 2.798 0 2.794 4.342 0 4.342zm-36.801-.478c-.518 2.05-2.612 3.296-4.633 3.025-2.021-.272-3.705-2.044-3.661-4.148l.003-.054a4.405 4.405 0 0 1 .214-1.52l.025-.113.007.005.02-.07c.695-1.97 2.482-3.232 4.589-2.95 2.1.284 3.579 2.03 3.649 4.133.019.56-.075 1.15-.213 1.692zm-5.067 67.854l-.555.825c-.844 1.255-2.47 1.666-3.71.708-1.047-.809-1.2-2.096-.652-3.162.13-.843.823-1.617 1.606-1.893.386-.137.767-.23 1.184-.185.89.1 1.652.408 2.127 1.221.423.723.483 1.768 0 2.486zm-44.388-86.114c-.59 2.305-3.912 3.38-5.56 1.468l-.005-.006c-1.488-.627-2.481-2.002-2.238-3.816.268-1.988 2.5-3.861 4.594-3.06l.764.293c1.6.614 2.455 1.719 2.62 3.444.056.56-.035 1.13-.175 1.677zm-9.412 88.719a28.327 28.327 0 0 1-.554 3.779c-1.722 8.048-6.858 15.312-13.697 19.963-7.896 5.368-17.84 7.37-27.329 6.307-8.293-.929-16.748-4.472-21.407-11.396-3.665-5.445-4.569-12.301-4.427-18.863.088-4.021.571-8.09 1.529-12.016 1.501-6.157 4.177-11.961 8.389-16.656 5.555-6.192 14.219-10.134 22.606-9.144l1.731.204c.366-.305.848-.501 1.458-.501.855 0 1.461.379 1.834.915 6.594.898 13.179 2.376 18.254 7.028 4.715 4.323 7.801 10.188 9.716 16.29 1.428 4.549 2.256 9.336 1.897 14.09zM250.69 509.567c-3.59 0-3.583-5.567 0-5.567 3.588 0 3.582 5.567 0 5.567zM258.028 324c2.706 0 2.702 4.2 0 4.2-2.707 0-2.702-4.2 0-4.2zm47.616 19c3.528 0 3.522 5.473 0 5.473-3.528 0-3.522-5.473 0-5.473zm-60.388 108.671c-3.01 0-3.006-4.671 0-4.671 3.01 0 3.006 4.671 0 4.671zM244.915 402c2.554 0 2.55 3.962 0 3.962-2.555 0-2.551-3.962 0-3.962zm-24.795-40.081c-.105.136-.2.285-.318.405l-.035.044c-.117.114-.252.193-.378.292-.126.098-.244.208-.378.291-.158.097-.326.164-.492.239-.132.061-.26.132-.397.179-.165.055-.335.084-.504.119-.153.033-.303.075-.46.092-.14.015-.28.006-.421.007-.191.003-.38.011-.57-.01-.107-.013-.211-.044-.32-.065-.213-.04-.427-.079-.635-.151-.1-.034-.192-.089-.29-.13-.2-.086-.4-.17-.59-.287-.114-.072-.214-.168-.324-.251-.141-.107-.291-.197-.422-.325l-.037-.047c-.11-.11-.194-.247-.291-.371-.99-1.204-1.371-2.75-1.23-4.298.119-1.29.486-2.332 1.362-3.287.838-.912 2.085-1.308 3.287-1.362 1.158-.051 2.48.556 3.286 1.362.92.92 1.246 2.029 1.362 3.287.14 1.528-.237 3.068-1.205 4.267zm-17.933 74.614l-.238.125c-1.62.854-3.472.614-4.818-.621-1.33-1.221-1.42-3.306-.621-4.82l.125-.236c1.229-2.331 4.59-2.604 6.373-.821 1.783 1.783 1.51 5.143-.821 6.373zm-23.899-94.81c-.824 1.118-1.842 1.892-3.3 1.892-1.459 0-2.477-.774-3.3-1.892-.524-.712-.677-1.676-.688-2.542-.016-1.223.504-2.188 1.285-3.071 1.308-1.478 4.096-1.481 5.406 0 .782.885 1.28 1.865 1.285 3.07.004.858-.17 1.84-.688 2.543zm-31.873-20.721c-3.223 0-3.218-5.002 0-5.002 3.224 0 3.22 5.002 0 5.002zm-11.772-22.529c-3.528 0-3.52-5.473 0-5.473 3.528 0 3.522 5.473 0 5.473zm-25.796 46.348c-2.465 0-2.46-3.821 0-3.821 2.463 0 2.459 3.821 0 3.821zM106.507 248c3.345 0 3.34 5.191 0 5.191-3.346 0-3.34-5.191 0-5.191zM95.77 212.765c-.889 1.28-2.405 1.913-4.058 1.537-.895-.204-1.787-.946-2.242-1.724-.555-.949-.525-1.848-.378-2.89l.114-.814c.177-1.255 1.514-2.376 2.673-2.673a7.004 7.004 0 0 1 1.811-.2c1.683.008 3.065 1.155 3.571 2.718.453 1.401-.232 3.252-1.49 4.046zM87.81 404.28l-.936-.159c-1.123-.19-1.824-1.414-1.871-2.457-.046-1.03.823-2.278 1.87-2.457l.938-.159c1.713-.29 3.434.75 3.434 2.616 0 1.88-1.722 2.907-3.434 2.616zM46.96 244.058c-2.616 0-2.61-4.058 0-4.058 2.615 0 2.611 4.058 0 4.058zm-26.183-72.492l-.17.128c-.759.565-1.887.563-2.768.362-.624-.142-1.104-.495-1.52-.923-1.78-1.065-1.76-4.125.07-5.132a3.73 3.73 0 0 1 1.45-.872c.771-.25 2.097-.14 2.768.36l.17.129c1.005.749 1.706 1.654 1.706 2.974 0 1.32-.7 2.225-1.706 2.974zM163.256 197c3.011 0 3.006 4.671 0 4.671-3.01 0-3.006-4.671 0-4.671zm39.765-160.518a2.455 2.455 0 0 1 .911-1.63c.46-1.295 2.075-2.185 3.394-1.733.217.074.434.15.651.223 2.072.71 2.751 3.124 1.26 4.77-1.15 1.265-2.73 1.518-4.34 1.243-1.287-.22-2.035-1.695-1.876-2.873zm4.984 57.67c-2.676 0-2.67-4.152 0-4.152 2.677 0 2.672 4.152 0 4.152zm20.011-32.256c.1-4.65.66-9.354 1.766-13.893 1.736-7.12 4.83-13.828 9.7-19.256 6.421-7.158 16.438-11.716 26.134-10.571 9.431 1.114 19.545 2.089 26.911 8.84 5.45 4.997 9.018 11.778 11.232 18.832 1.651 5.26 2.608 10.794 2.192 16.29a32.656 32.656 0 0 1-.639 4.368c-1.99 9.304-7.929 17.704-15.835 23.079-9.129 6.206-20.625 8.52-31.595 7.293-9.588-1.074-19.362-5.172-24.75-13.176-4.236-6.294-5.28-14.221-5.116-21.806zM328.48 49.298l1.097-.864c1.075-.846 2.075-1.37 3.453-1.43 1.301-.058 2.523.576 3.454 1.43.898.825 1.43 2.256 1.43 3.453 0 1.409-.596 2.394-1.43 3.454l-.864 1.097c-.808 1.026-2.325 1.423-3.57 1.479-1.344.06-2.607-.596-3.57-1.48-.929-.852-1.479-2.331-1.479-3.57 0-1.141.533-2.824 1.479-3.57zm-56.04 93.751c-3.254 0-3.25-5.049 0-5.049 3.254 0 3.248 5.049 0 5.049zm-31.667-1.247c-1.674 3.373-7.249 3.373-8.923 0-.528-1.064-.822-1.897-.848-3.098-.026-1.214.318-2.042.808-3.121.734-1.623 2.813-2.583 4.501-2.583 1.69 0 3.767.96 4.502 2.583.49 1.079.834 1.907.808 3.121-.026 1.201-.32 2.034-.848 3.098zM350.348 90c3.132 0 3.127 4.86 0 4.86-3.133 0-3.127-4.86 0-4.86zm27.498-43c2.464 0 2.459 3.822 0 3.822-2.463 0-2.46-3.822 0-3.822zm17.798 30c3.528 0 3.522 5.473 0 5.473-3.528 0-3.522-5.473 0-5.473zm46.954 29c3.468 0 3.462 5.379 0 5.379-3.466 0-3.461-5.379 0-5.379zm-48.476 192.011c-24.85 10.571-53.404 10.428-79.256 2.313a130.953 130.953 0 0 1-10.872-3.948 115.065 115.065 0 0 1-13.862-6.839c-33.153 7.034-66.594 12.384-100.408 12.33-11.19-.019-22.73-.717-32.807-5.576-10.08-4.86-18.431-14.797-18.326-25.986.076-8.04 4.36-15.43 9.234-21.827 10.372-13.61 23.75-24.306 38.472-32.773a178.21 178.21 0 0 1 12.153-6.378c17.77-8.473 36.516-13.73 55.38-19.076a67.603 67.603 0 0 0 2.79-.86c3.649-14.2 9.997-27.589 19.447-38.759 26.345-31.139 80.764-35.019 116.593-18.423 3.785 1.754 7.368 3.887 10.77 6.293 3.403 2.408 6.626 5.09 9.688 7.94 6.767-1.034 13.514-2.059 20.217-3.1 21.194-3.297 42.745-6.496 64.123-6.686 3.36-8.835 5.118-18.037 4.207-27.54-1.075-11.224-5.645-21.124-12.336-29.873-.018.093-.03.188-.05.28-1.603 7.491-6.383 14.253-12.75 18.581-7.348 4.997-16.604 6.86-25.436 5.871-7.72-.864-15.59-4.163-19.926-10.607-3.411-5.068-4.252-11.45-4.12-17.557.08-3.743.53-7.53 1.423-11.185 1.397-5.73 3.888-11.133 7.809-15.503a26.767 26.767 0 0 1 6.82-5.439c-.23-.12-.46-.246-.691-.367-5.705-2.98-11.707-5.929-18.142-6.066-4.813-.103-9.501 1.382-14.264 2.082-20.536 3.018-39.992-8.457-58.836-17.163C311.199 3.704 266.1-3.502 222.369 1.591c-28.782 3.351-60.541 15.076-71.17 42.032-2.893 7.34-4.031 15.428-6.44 22.892a43.81 43.81 0 0 1 6.332 4.814c9.573 8.775 15.839 20.684 19.728 33.075 2.899 9.237 4.58 18.956 3.85 28.61a57.43 57.43 0 0 1-1.123 7.672c-3.497 16.34-13.926 31.091-27.812 40.532-16.032 10.9-36.223 14.966-55.49 12.808-16.838-1.885-34.005-9.082-43.467-23.139-7.44-11.055-9.275-24.977-8.986-38.3.128-5.913.685-11.876 1.717-17.744-24.09 10.83-45.365 36.12-38.042 61.39 2.724 9.401 9 17.302 13.435 26.03 4.434 8.725 6.884 19.667 1.799 28.031-1.828 3.007-4.481 5.411-6.68 8.16-10.98 13.74-8.894 34.378-.232 49.686 2.832 5.004 6.237 9.588 9.98 13.914a32.772 32.772 0 0 1 2.9-3.753c5.555-6.192 14.219-10.134 22.606-9.144 2.742.324 5.55.64 8.315 1.13a4.742 4.742 0 0 1 .498-2.737c.289-.566.722-1.03 1.15-1.49 1.459-1.567 3.987-1.587 5.608-.335 1.769 1.367 2.03 3.57 1.1 5.508a5.887 5.887 0 0 1-.724 1.108c2.644 1.036 5.13 2.447 7.33 4.463 4.715 4.321 7.8 10.186 9.716 16.29 1.428 4.548 2.256 9.335 1.896 14.09a28.172 28.172 0 0 1-.553 3.778c-1.661 7.766-6.508 14.795-12.99 19.456 3.899 5.807 7.013 12.04 8.816 18.834.93 3.506 1.44 7.447-.37 10.59-2.098 3.643-6.575 5.042-9.862 7.664-9.994 7.973-5.883 25.072 3.964 33.226 9.847 8.155 23.067 10.545 35.002 15.13.928.355 1.856.741 2.78 1.148l.023-.103c1.607-6.65 3.858-13.238 6.833-19.428 4.38-9.115 10.346-17.356 18.26-23.587 7.286-5.736 44.787-19.776 31.823.573-10.77 16.903-19.285 30.857-16.67 52.033 1.606 12.992 8.06 26.338 19.9 31.924 9.858 4.65 21.747 3.068 31.597-1.597a59.485 59.485 0 0 0 3.524-1.82c8.324-4.65 15.537-11.162 22.628-17.594 2.25 14.21-4.075 28.936-14.414 38.941-10.338 10.004-24.235 15.702-38.364 18.415a92.515 92.515 0 0 1-8.67 1.243c3.083 4.457 5.436 9.75 8.3 14.373 9.876 15.934 28.995 25.646 47.688 24.224 4.577-.348 9.34-1.426 12.738-4.513 4.092-3.718 5.913-10.053 11.059-12.075 4.804-1.888 10.205.952 15.329.333 7.632-.923 11.522-8.475 12.895-16.51a42.41 42.41 0 0 0 .582-7.884c-.205-10.219-.851-22.418 7.42-28.423 4.756-3.452 11.42-3.778 15.676-7.83 7.932-7.557 4.244-24.057 17.112-27.337 2.387-.608 4.853-.62 7.376-.255 10.696 1.547 22.429 9.897 33.696 8.587 3.248-.378 6.467-1.412 9.44-2.94 6.659-3.425 12.087-9.342 13.843-16.019 1.466-5.57 5.91-9.847 11.576-10.893 5.958-1.1 11.623-3.054 16.119-7.01 3.847-3.383 6.444-7.926 9.62-11.944 11.505-14.552 29.953-21.59 44.074-33.618 3.12-2.658 5.992-5.854 8.439-9.365-3.56-.772-6.95-2.522-8.96-5.512-1.884-2.798-2.348-6.324-2.276-9.698.045-2.068.294-4.16.786-6.179.772-3.166 2.148-6.15 4.314-8.564 2.802-3.122 7.14-5.126 11.375-4.722a21.736 21.736 0 0 0-3.28-4.465c-5.391-5.66-13.518-8.169-17.865-15.074-1.867-2.967-2.553-6.623-1.323-9.905 1.853-4.939 6.376-5.406 10.395-6.54 18.713-5.285 28.443-27.015 27.647-46.443-.223-5.458-1.072-10.81-2.295-16.098-13.864 6.196-28.081 11.632-42.53 16.524-8.947 21.177-26.928 38.698-48.268 47.776z" fill="#27305A"/><path d="M314.734 300.646c.108-.124.208-.254.32-.373 8.552-9.137 26.76-8.197 30.32-20.194.305-1.03.452-2.058.482-3.079-3.337.795-6.674 1.588-10.006 2.378-15.226 3.611-30.508 7.225-45.85 10.481a115.065 115.065 0 0 0 13.862 6.839 130.953 130.953 0 0 0 10.872 3.948" fill="#C3CBEF"/><path d="M315.32 300.716c-.112.119-.212.249-.32.373 25.852 8.115 54.406 8.258 79.256-2.313 21.34-9.078 39.321-26.599 48.269-47.776a632.654 632.654 0 0 1-6.238 2.073c-.708.231-1.418.455-2.127.684-1.376.444-2.752.888-4.132 1.323-.856.27-1.715.535-2.572.802-1.234.384-2.468.767-3.704 1.145-.93.283-1.861.563-2.791.843a735.372 735.372 0 0 1-12.85 3.75 843.805 843.805 0 0 1-6.417 1.792c-1.004.276-2.01.55-3.015.823-1.138.31-2.275.619-3.413.925-.878.235-1.757.467-2.636.701-1.266.336-2.531.673-3.799 1.005-.557.146-1.115.29-1.672.435-13.646 3.555-27.356 6.881-41.037 10.142a12.026 12.026 0 0 1-.482 3.079c-3.56 11.997-21.768 11.057-30.32 20.194M394.127 160.256c-6.217 4.049-14.073 4.447-20.999 7.108-6.926 2.661-13.558 9.708-11.14 16.722 2.066 5.998 9.202 8.122 14.72 11.25 5.52 3.129 9.986 11.308 5.037 15.277-1.36 1.091-3.128 1.51-4.844 1.818-12.02 2.158-24.609.365-36.4 3.55-10.465 2.828-20.56 11.981-20.501 22.254 25.807-5.413 51.396-12.431 76.79-20.013l.693-.207a2277.014 2277.014 0 0 0 18.514-5.631c1.184-.366 2.37-.731 3.553-1.098l4.294-1.331a5988.213 5988.213 0 0 0 8.392-2.617l7.08-2.216c2.46-.771 4.942-1.569 7.385-2.456-2.815-12.483-8.337-24.455-15.664-35.224a121.177 121.177 0 0 0-13.33-16.325 119.975 119.975 0 0 0-4.29-4.178c-3.063-2.85-6.286-5.531-9.689-7.939.42 8.365-2.645 16.726-9.6 21.256" fill="#95A3EE"/><path d="M340.402 215.951c11.791-3.185 24.38-1.392 36.4-3.55 1.716-.308 3.484-.727 4.844-1.818 4.95-3.969.482-12.148-5.037-15.277-5.518-3.128-12.654-5.252-14.72-11.25-2.418-7.014 4.214-14.06 11.14-16.722 6.926-2.66 14.782-3.059 21-7.108 6.955-4.53 10.02-12.89 9.6-21.256-3.402-2.406-6.985-4.539-10.77-6.293-35.829-16.596-90.248-12.716-116.593 18.423-9.45 11.17-15.798 24.558-19.446 38.76-1.822 7.093-2.956 14.39-3.476 21.715-.27 3.813-.39 7.632-.328 11.435.136 8.296 1.051 16.69 3.208 24.685a421.37 421.37 0 0 0 7.274-.648c.588-.057 1.175-.117 1.763-.176 2.143-.217 4.286-.446 6.425-.694l.778-.088c2.872-.336 5.74-.714 8.605-1.104.863-.118 1.727-.232 2.59-.355a510.179 510.179 0 0 0 11.481-1.768c1.212-.2 2.423-.409 3.634-.617a560.65 560.65 0 0 0 8.58-1.543c.412-.078.825-.155 1.237-.234a619.523 619.523 0 0 0 11.31-2.263c-.06-10.273 10.036-19.426 20.501-22.254" fill="#C3CBEF"/><path d="M560.885 155.648c-4.273-9.042-14.881-13.016-24.663-15.101-12.59-2.682-25.356-3.652-38.186-3.538-21.378.19-42.93 3.389-64.123 6.685-6.703 1.042-13.45 2.067-20.217 3.1 1.463 1.36 2.9 2.749 4.29 4.178a121.177 121.177 0 0 1 13.33 16.325c3.155-.278 6.308-.562 9.475-.786 10.435-.74 23.786.618 27 10.573 1.964 6.082-1.264 12.805-5.962 17.138-4.21 3.883-9.422 6.332-14.848 8.299-2.443.887-4.925 1.685-7.386 2.456-2.357.739-4.718 1.478-7.08 2.216l-.548.17c-2.612.818-5.228 1.633-7.843 2.447-1.431.444-2.863.888-4.294 1.33-1.184.368-2.37.733-3.553 1.099-6.16 1.9-12.331 3.78-18.514 5.63l-.693.208c-29.1 8.696-58.454 16.639-88.1 22.276-.412.079-.825.156-1.238.234a560.65 560.65 0 0 1-8.58 1.543c-1.21.208-2.421.417-3.633.617a510.179 510.179 0 0 1-11.481 1.768c-.863.122-1.726.238-2.59.355-2.866.39-5.733.768-8.605 1.104l-.778.088c-2.14.248-4.282.477-6.425.694-.588.059-1.175.119-1.763.176a421.37 421.37 0 0 1-7.274.648c-11.286.895-22.615 1.335-33.992 1.226-4.542-.044-10.1-.846-11.733-5.084-1.152-2.986.318-6.34 2.186-8.935 5.83-8.103 15.318-12.62 24.48-16.58a761.306 761.306 0 0 1 16.179-6.747c.52-7.326 1.654-14.622 3.476-21.716-.918.304-1.847.592-2.791.86-18.864 5.346-37.61 10.603-55.38 19.076a178.21 178.21 0 0 0-12.153 6.378c-5.044 8.33-7.978 17.902-7.937 27.668.029 7.028 1.4 14.228-.547 20.98-1.042 3.616-3.033 7.25-2.186 10.917.803 3.47 4.038 5.924 7.437 6.988 16.719 5.23 30.722-15.962 48.198-17.185 10.518-.736 20.1 5.94 30.523 7.54 21.264 3.264 39.914-14.586 61.135-18.125 16.198-2.7 33.188 3.113 49.055-1.114 16.677-4.444 29.479-19.343 46.532-21.996 5.92-.92 11.982-.278 17.935-.947 11.317-1.272 21.498-7.142 31.78-12.037 21.12-10.058 45.48-16.171 68.264-13.201 12.568-9.241 23.422-20.942 25.497-36.01.645-4.684.345-9.612-1.676-13.888" fill="#D4688F"/><path d="M468.632 218.954c-10.282 4.895-20.463 10.765-31.78 12.037-5.953.669-12.015.027-17.935.947-17.053 2.653-29.855 17.552-46.532 21.996-15.867 4.227-32.857-1.586-49.055 1.114-21.221 3.539-39.871 21.389-61.135 18.125-10.422-1.6-20.005-8.276-30.523-7.54-17.476 1.223-31.479 22.415-48.198 17.185-3.399-1.064-6.634-3.518-7.437-6.988-.847-3.666 1.144-7.301 2.186-10.916 1.948-6.753.576-13.953.547-20.981-.041-9.766 2.893-19.337 7.937-27.668-14.721 8.467-28.1 19.163-38.472 32.773-4.873 6.396-9.158 13.786-9.234 21.827-.105 11.189 8.247 21.126 18.326 25.986 10.078 4.859 21.618 5.557 32.807 5.575 33.814.055 67.255-5.295 100.408-12.33 15.342-3.255 30.624-6.87 45.85-10.48 3.332-.79 6.669-1.583 10.006-2.378 13.681-3.261 27.391-6.587 41.037-10.142l1.672-.435c1.268-.332 2.533-.67 3.799-1.005.879-.234 1.758-.466 2.636-.701 1.138-.306 2.275-.615 3.413-.925a841.238 841.238 0 0 0 9.432-2.615l3.056-.871a930.562 930.562 0 0 0 6.298-1.834c1.166-.345 2.331-.694 3.496-1.045.93-.28 1.861-.56 2.791-.843 1.236-.378 2.47-.761 3.704-1.145.857-.267 1.716-.532 2.572-.802 1.38-.435 2.756-.88 4.132-1.323.709-.23 1.419-.453 2.127-.684a632.654 632.654 0 0 0 6.238-2.073c14.448-4.892 28.665-10.328 42.529-16.524 13.992-6.253 27.625-13.28 40.771-21.307 3.633-2.22 7.277-4.624 10.795-7.211-22.784-2.97-47.143 3.143-68.264 13.2" fill="#AE496D"/><path d="M117.64 449.057c-.251-3.121-2.903-5.716-2.933-8.847-.032-3.24 2.688-5.759 4.022-8.711 1.534-3.396 1.114-7.596-1.063-10.621a10.537 10.537 0 0 0-3.184-2.878c-2.975 6.19-5.226 12.778-6.833 19.428l-.022.103c-1.3 5.397-2.216 10.923-2.627 16.469a8.725 8.725 0 0 0 2.907 1.676c4.4 1.488 10.104-1.989 9.733-6.619M210.764 496.941c10.339-10.005 16.665-24.731 14.414-38.941-7.091 6.432-14.304 12.943-22.628 17.594.028 1.528.216 3.053.588 4.539.595 2.381 1.612 4.777 1.209 7.198-.441 2.654-2.502 4.73-4.634 6.371-9.661 7.435-23.18 9.535-34.643 5.384-2.674-.969-5.308-2.268-8.149-2.391-5.053-.219-9.576 3.29-14.615 3.733-9.019.792-15.773-7.976-24.226-11.223-2.569-.986-5.332-1.411-8.08-1.312 4.382 9.579 11.379 17.952 20.555 23.018 9.991 5.517 21.71 6.771 33.176 5.688a92.515 92.515 0 0 0 8.669-1.243c14.129-2.713 28.026-8.411 38.364-18.415" fill="#95A3EE"/><path d="M141.911 500.023c5.04-.443 9.562-3.952 14.615-3.733 2.841.123 5.475 1.422 8.15 2.391 11.462 4.151 24.981 2.051 34.642-5.384 2.132-1.64 4.193-3.717 4.634-6.37.403-2.422-.614-4.818-1.209-7.199a20.215 20.215 0 0 1-.588-4.539 59.485 59.485 0 0 1-3.524 1.82c-9.85 4.665-21.739 6.246-31.596 1.597-11.84-5.586-18.295-18.932-19.9-31.924-2.616-21.176 5.9-35.13 16.67-52.033 12.963-20.349-24.538-6.309-31.823-.573-7.915 6.231-13.88 14.472-18.26 23.587a10.537 10.537 0 0 1 3.183 2.878c2.177 3.025 2.597 7.225 1.063 10.621-1.334 2.952-4.054 5.471-4.022 8.711.03 3.131 2.682 5.726 2.933 8.847.371 4.63-5.333 8.107-9.733 6.62a8.725 8.725 0 0 1-2.907-1.677c-.608 8.212-.098 16.47 1.998 24.417a58.541 58.541 0 0 0 3.368 9.408c2.748-.099 5.511.326 8.08 1.312 8.453 3.247 15.207 12.015 24.226 11.223" fill="#C3CBEF"/><path d="M47.014 171.123c9.462 14.057 26.63 21.254 43.468 23.14 19.266 2.157 39.457-1.909 55.49-12.809 13.885-9.44 24.314-24.192 27.811-40.532-9.483 1.381-14.655 19.99-24.714 17.004-.402-6.612-7.855-10.267-13.33-6.537l-6.815 4.642c-1.506 1.026-3.104 2.093-5.376.921-2.3-1.187-3.538-3.805-3.203-6.372 1.152-8.818 8.316-14.563 14.131-20.798 5.178-5.55 9.747-13.157 7.4-20.377-9.803-.927-19.385 3.716-27.038 9.912-7.652 6.195-13.878 13.948-20.989 20.758-2.74 2.626-6.834 5.276-9.997 2.626-1.804-1.51-2.366-4.032-1.724-6.296 2.644-9.325 16.74-11.129 7.446-28.54-10.52-2.143-15.328 19.178-25.58 15.984a52.742 52.742 0 0 1 10.35-23.604c3.021-3.882 6.84-8.069 5.235-13.15-1.245-3.946-5.233-6.278-9.366-6.084-7.783.366-12.688 6.38-17.094 12.033l-11.989 15.38c-.536 2.2-.992 4.42-1.385 6.655-1.032 5.868-1.589 11.831-1.717 17.744-.289 13.323 1.546 27.245 8.986 38.3" fill="#AE496D"/><path d="M70.083 81.28c4.133-.193 8.121 2.139 9.366 6.084 1.604 5.082-2.214 9.269-5.235 13.15a52.742 52.742 0 0 0-10.35 23.605c10.252 3.194 15.059-18.127 25.58-15.984 9.293 17.41-4.802 19.215-7.446 28.54-.642 2.264-.08 4.785 1.724 6.296 3.163 2.65 7.256 0 9.997-2.626 7.111-6.81 13.337-14.563 20.989-20.758 7.653-6.196 17.235-10.84 27.037-9.912 2.348 7.22-2.221 14.826-7.399 20.377-5.815 6.235-12.979 11.98-14.131 20.798-.335 2.567.902 5.185 3.203 6.372 2.272 1.172 3.87.105 5.376-.921l6.815-4.642c5.475-3.73 12.928-.075 13.33 6.537 10.059 2.986 15.231-15.623 24.714-17.004a57.43 57.43 0 0 0 1.123-7.672c.73-9.654-.951-19.373-3.85-28.61-3.889-12.391-10.155-24.3-19.728-33.075a43.81 43.81 0 0 0-6.332-4.814c-12.075-7.577-26.932-9.058-40.932-10.712-17.028-2.011-34.62 5.994-45.898 18.566C49.482 84.408 44.049 96.192 41 108.694l11.989-15.38C57.395 87.66 62.3 81.647 70.083 81.28" fill="#D4688F"/><path d="M332.049 57.917c1.245-.056 2.762-.453 3.57-1.48l.864-1.096c.834-1.06 1.43-2.045 1.43-3.454 0-1.197-.532-2.628-1.43-3.453-.931-.854-2.153-1.488-3.454-1.43-1.378.06-2.378.584-3.453 1.43l-1.097.864c-.946.745-1.479 2.428-1.479 3.57 0 1.238.55 2.717 1.479 3.57.963.883 2.226 1.539 3.57 1.479M395.644 82.473c3.522 0 3.528-5.473 0-5.473-3.522 0-3.528 5.473 0 5.473M442.598 111.379c3.462 0 3.468-5.379 0-5.379-3.461 0-3.466 5.379 0 5.379M93.69 206a7.004 7.004 0 0 0-1.812.201c-1.159.297-2.496 1.418-2.673 2.673l-.114.813c-.147 1.043-.177 1.942.378 2.891.455.778 1.347 1.52 2.242 1.724 1.653.376 3.17-.258 4.058-1.537 1.26-.794 1.944-2.645 1.491-4.046-.506-1.563-1.888-2.71-3.57-2.719M106.507 248c-3.34 0-3.346 5.191 0 5.191 3.34 0 3.345-5.191 0-5.191M163.256 201.671c3.006 0 3.011-4.671 0-4.671-3.006 0-3.01 4.671 0 4.671M219.963 354.365c-.806-.806-2.128-1.413-3.286-1.362-1.202.054-2.45.45-3.287 1.362-.876.955-1.243 1.997-1.361 3.287-.142 1.548.239 3.094 1.229 4.298.097.124.182.261.29.371l.038.047c.13.128.28.218.422.325.11.083.21.179.325.251.189.117.389.201.59.287.097.041.189.096.289.13.208.072.422.111.636.151.108.021.212.052.32.065.19.021.378.013.569.01.14-.001.28.008.422-.007.156-.017.306-.059.459-.092.169-.035.339-.064.504-.119.138-.047.265-.118.397-.179.166-.075.334-.142.492-.239.134-.083.252-.193.378-.291.126-.099.26-.178.378-.292l.035-.044c.118-.12.213-.269.318-.405.968-1.199 1.345-2.739 1.205-4.267-.116-1.258-.441-2.367-1.362-3.287M244.915 405.962c2.55 0 2.554-3.962 0-3.962-2.551 0-2.555 3.962 0 3.962M245.256 447c-3.006 0-3.01 4.671 0 4.671 3.006 0 3.01-4.671 0-4.671M305.644 348.473c3.522 0 3.528-5.473 0-5.473-3.522 0-3.528 5.473 0 5.473M413.096 333c-2.793 0-2.797 4.342 0 4.342 2.794 0 2.798-4.342 0-4.342M369.1 401.011c-.416-.045-.797.048-1.183.185-.783.276-1.475 1.05-1.606 1.893-.548 1.066-.395 2.353.653 3.162 1.24.958 2.865.547 3.709-.708l.555-.825c.483-.718.423-1.763 0-2.486-.475-.813-1.237-1.122-2.127-1.22M62.39 291.402c.931-1.938.669-4.141-1.1-5.508-1.621-1.252-4.149-1.232-5.607.334-.429.46-.862.925-1.151 1.49a4.742 4.742 0 0 0-.498 2.738c2.618.466 5.192 1.099 7.632 2.054.275-.346.528-.701.724-1.108M108.847 341c-2.46 0-2.465 3.821 0 3.821 2.459 0 2.463-3.821 0-3.821" fill="#95A3EE"/><path d="M236.31 133c-1.688 0-3.767.96-4.5 2.583-.49 1.079-.835 1.907-.809 3.121.026 1.201.32 2.034.848 3.098 1.674 3.373 7.25 3.373 8.923 0 .528-1.064.822-1.897.848-3.098.026-1.214-.319-2.042-.808-3.121C240.077 133.96 238 133 236.31 133M272.439 138c-3.25 0-3.254 5.049 0 5.049 3.248 0 3.254-5.049 0-5.049M208.005 90c-2.67 0-2.676 4.152 0 4.152 2.672 0 2.677-4.152 0-4.152M134.643 293c-3.52 0-3.528 5.473 0 5.473 3.522 0 3.528-5.473 0-5.473M146.415 316c-3.218 0-3.223 5.002 0 5.002 3.22 0 3.224-5.002 0-5.002M172.285 336.11c-.78.883-1.3 1.848-1.285 3.07.011.867.164 1.83.688 2.543.823 1.118 1.841 1.892 3.3 1.892 1.458 0 2.476-.774 3.3-1.892.517-.702.692-1.685.688-2.542-.006-1.206-.503-2.186-1.285-3.071-1.31-1.481-4.098-1.478-5.406 0M20.777 165.618l-.17-.128c-.67-.5-1.997-.611-2.768-.361a3.73 3.73 0 0 0-1.45.872c-1.83 1.007-1.85 4.067-.07 5.132.416.428.896.78 1.52.923.881.2 2.01.203 2.768-.362l.17-.128c1.005-.75 1.706-1.654 1.706-2.974 0-1.32-.7-2.225-1.706-2.974M46.96 240c-2.61 0-2.616 4.058 0 4.058 2.611 0 2.615-4.058 0-4.058M324.395 313.483l-.764-.293c-2.094-.801-4.326 1.072-4.594 3.06-.243 1.814.75 3.189 2.238 3.816l.005.006c1.648 1.913 4.97.837 5.56-1.468.14-.546.23-1.116.176-1.677-.166-1.725-1.021-2.83-2.621-3.444M258.028 328.2c2.702 0 2.706-4.2 0-4.2-2.702 0-2.707 4.2 0 4.2M286.458 369c-.61 0-1.092.196-1.458.501 1.094.129 2.193.265 3.292.414-.373-.536-.979-.915-1.834-.915M196.635 430.98l-.125.238c-.798 1.513-.708 3.598.62 4.819 1.347 1.235 3.199 1.475 4.819.62l.238-.124c2.332-1.23 2.604-4.59.82-6.373-1.782-1.783-5.143-1.51-6.372.82M250.69 504c-3.583 0-3.59 5.567 0 5.567 3.582 0 3.588-5.567 0-5.567M87.81 399.048l-.937.16c-1.048.178-1.917 1.426-1.871 2.456.047 1.043.748 2.266 1.87 2.457l.938.16c1.712.29 3.434-.737 3.434-2.617 0-1.866-1.721-2.907-3.434-2.616M372.859 331.04c-2.107-.283-3.894.98-4.588 2.949l-.021.07-.007-.005-.025.113a4.405 4.405 0 0 0-.214 1.52l-.003.054c-.044 2.104 1.64 3.876 3.66 4.148 2.022.27 4.116-.975 4.634-3.025.138-.542.232-1.132.213-1.692-.07-2.103-1.548-3.85-3.65-4.132M419.301 372c-3.066 0-3.07 4.766 0 4.766 3.067 0 3.072-4.766 0-4.766M377.846 50.822c2.459 0 2.464-3.822 0-3.822-2.46 0-2.463 3.822 0 3.822M350.348 94.86c3.127 0 3.132-4.86 0-4.86-3.127 0-3.133 4.86 0 4.86M204.897 39.355c1.61.275 3.19.022 4.34-1.244 1.491-1.645.812-4.059-1.26-4.769l-.65-.223c-1.32-.452-2.935.438-3.395 1.732a2.455 2.455 0 0 0-.91 1.631c-.16 1.178.588 2.653 1.875 2.873" fill="#C3CBEF"/><path d="M304.702 419.887c-.198-3.257-3.868-5.057-6.564-3.22l-3.356 2.286c-.743.506-1.53 1.03-2.648.454-1.134-.585-1.743-1.874-1.578-3.138.567-4.343 4.096-7.172 6.959-10.244 2.551-2.733 4.801-6.48 3.645-10.035-4.828-.457-9.547 1.83-13.316 4.88-3.769 3.053-6.835 6.87-10.337 10.226-1.35 1.292-3.367 2.597-4.924 1.293-.888-.745-1.165-1.987-.849-3.102 1.302-4.592 8.244-5.48 3.667-14.056-5.181-1.055-7.549 9.446-12.598 7.872a25.979 25.979 0 0 1 5.098-11.625c1.488-1.912 3.368-3.973 2.578-6.476-.614-1.943-2.577-3.092-4.613-2.996-3.833.179-6.248 3.14-8.419 5.926l-5.904 7.575c-.958 3.926-1.441 7.995-1.529 12.016-.142 6.562.762 13.418 4.427 18.863 4.659 6.924 13.114 10.467 21.407 11.396 9.489 1.063 19.433-.94 27.329-6.307 6.839-4.651 11.975-11.915 13.697-19.963-4.67.68-7.217 9.845-12.172 8.375" fill="#AE496D"/><path d="M306.272 377.798c-5.075-4.652-11.66-6.13-18.254-7.028a190.929 190.929 0 0 0-3.292-.414l-1.731-.204c-8.387-.99-17.051 2.952-22.606 9.144-4.212 4.695-6.888 10.499-8.389 16.656l5.904-7.575c2.171-2.785 4.586-5.747 8.419-5.926 2.036-.096 3.999 1.053 4.613 2.996.79 2.503-1.09 4.564-2.578 6.476a25.979 25.979 0 0 0-5.098 11.625c5.049 1.574 7.417-8.927 12.598-7.872 4.577 8.576-2.365 9.464-3.667 14.056-.316 1.115-.039 2.357.849 3.102 1.557 1.304 3.574-.001 4.924-1.293 3.502-3.355 6.568-7.173 10.337-10.225 3.769-3.051 8.488-5.338 13.316-4.881 1.156 3.556-1.094 7.302-3.645 10.035-2.863 3.072-6.392 5.9-6.959 10.244-.165 1.264.444 2.553 1.578 3.138 1.118.577 1.905.052 2.648-.454l3.356-2.286c2.696-1.837 6.366-.037 6.564 3.22 4.955 1.47 7.502-7.695 12.172-8.375.266-1.243.457-2.504.554-3.78.359-4.753-.469-9.54-1.897-14.09-1.915-6.101-5.001-11.966-9.716-16.29" fill="#D4688F"/><path d="M484.127 358.48c-.102-1.673-1.989-2.6-3.376-1.655L479.026 358c-.382.26-.786.53-1.361.234-.583-.301-.897-.964-.812-1.615.292-2.232 2.107-3.687 3.579-5.266 1.311-1.406 2.468-3.332 1.873-5.16-2.482-.235-4.908.94-6.846 2.509-1.938 1.57-3.515 3.533-5.315 5.258-.694.664-1.731 1.335-2.532.664-.457-.382-.6-1.02-.437-1.594.67-2.361 4.24-2.818 1.886-7.227-2.665-.543-3.882 4.856-6.477 4.048a13.355 13.355 0 0 1 2.62-5.978c.765-.983 1.732-2.043 1.326-3.33-.316-1-1.325-1.59-2.372-1.541-1.971.093-3.213 1.615-4.329 3.048l-3.036 3.894a28.848 28.848 0 0 0-.786 6.179c-.072 3.374.392 6.9 2.276 9.698 2.011 2.99 5.401 4.74 8.96 5.512.679.148 1.364.272 2.048.349 4.878.546 9.992-.484 14.051-3.244 3.517-2.391 6.159-6.126 7.043-10.264-2.401.35-3.711 5.062-6.258 4.306" fill="#E1B37F"/><path d="M460.314 336.774c-2.166 2.414-3.542 5.398-4.314 8.564l3.036-3.894c1.116-1.433 2.358-2.955 4.329-3.048 1.047-.05 2.056.542 2.372 1.54.406 1.288-.561 2.348-1.326 3.33a13.355 13.355 0 0 0-2.62 5.979c2.595.808 3.812-4.591 6.477-4.048 2.354 4.409-1.216 4.866-1.886 7.227-.163.574-.02 1.212.437 1.594.801.67 1.838 0 2.532-.664 1.8-1.725 3.377-3.688 5.315-5.258 1.938-1.568 4.364-2.744 6.846-2.51.595 1.829-.562 3.755-1.873 5.16-1.472 1.58-3.287 3.035-3.579 5.267-.085.65.229 1.314.812 1.615.575.296.979.026 1.361-.234l1.725-1.176c1.387-.944 3.274-.018 3.376 1.656 2.547.756 3.857-3.956 6.258-4.306.137-.64.236-1.288.284-1.942.186-2.446-.24-4.907-.974-7.246-.985-3.137-2.571-6.154-4.996-8.376-3.276-3.002-7.774-3.436-11.969-3.931l-.248-.021c-4.234-.404-8.573 1.6-11.375 4.722" fill="#E7CCAD"/><path d="M477.916 87.263c-.184-3.03-3.601-4.706-6.111-2.997l-3.124 2.13c-.69.47-1.423.958-2.464.421-1.054-.544-1.622-1.745-1.468-2.92.527-4.043 3.812-6.677 6.477-9.535 2.374-2.545 4.469-6.032 3.393-9.34-4.494-.427-8.887 1.702-12.395 4.542-3.508 2.84-6.362 6.394-9.621 9.516-1.257 1.204-3.134 2.42-4.583 1.204-.827-.693-1.085-1.848-.79-2.886 1.212-4.275 7.673-5.102 3.413-13.083-4.824-.983-7.027 8.791-11.726 7.327.654-3.925 2.3-7.68 4.744-10.82 1.385-1.78 3.135-3.699 2.4-6.029-.571-1.809-2.399-2.877-4.293-2.788-3.569.167-5.817 2.923-7.837 5.515l-5.495 7.051c-.892 3.654-1.342 7.442-1.423 11.185-.132 6.107.709 12.49 4.12 17.557 4.337 6.444 12.206 9.743 19.926 10.607 8.832.99 18.088-.874 25.437-5.87 6.366-4.329 11.146-11.09 12.749-18.582-4.347.634-6.718 9.164-11.329 7.795" fill="#E1B37F"/><path d="M436.809 49.652c-3.921 4.37-6.412 9.772-7.809 15.503l5.495-7.05c2.02-2.593 4.268-5.349 7.837-5.516 1.894-.089 3.722.98 4.293 2.788.735 2.33-1.015 4.25-2.4 6.028a24.179 24.179 0 0 0-4.744 10.821c4.699 1.464 6.902-8.31 11.726-7.327 4.26 7.981-2.201 8.808-3.413 13.083-.295 1.038-.037 2.193.79 2.886 1.449 1.215 3.326 0 4.583-1.204 3.259-3.122 6.113-6.676 9.621-9.516s7.901-4.969 12.395-4.543c1.076 3.31-1.019 6.796-3.393 9.341-2.665 2.858-5.95 5.492-6.477 9.534-.154 1.176.414 2.377 1.468 2.921 1.041.537 1.774.048 2.464-.422l3.124-2.129c2.51-1.709 5.927-.034 6.111 2.997 4.611 1.37 6.982-7.16 11.329-7.795.02-.092.032-.187.05-.28.218-1.067.382-2.146.465-3.237.334-4.425-.436-8.88-1.765-13.115-1.783-5.68-4.655-11.139-9.043-15.162-5.93-5.435-14.074-6.22-21.667-7.117-4.897-.578-9.896.652-14.219 3.072a26.767 26.767 0 0 0-6.821 5.44" fill="#E7CCAD"/><path d="M79.874 331.512c-4.67.68-7.218 9.846-12.172 8.375-.198-3.257-3.868-5.057-6.565-3.22l-3.356 2.286c-.742.506-1.529 1.03-2.648.453-1.133-.584-1.742-1.874-1.577-3.137.567-4.343 4.096-7.172 6.959-10.243 2.551-2.735 4.801-6.481 3.644-10.037-4.827-.456-9.547 1.83-13.315 4.882-3.769 3.052-6.836 6.869-10.337 10.224-1.35 1.293-3.367 2.599-4.924 1.294-.888-.745-1.165-1.986-.849-3.102 1.302-4.592 8.244-5.481 3.667-14.055-5.182-1.056-7.549 9.445-12.598 7.872a25.983 25.983 0 0 1 5.097-11.625c1.488-1.912 3.369-3.974 2.579-6.477-.614-1.943-2.577-3.092-4.613-2.996-3.834.18-6.249 3.142-8.42 5.926l-5.904 7.575c-.957 3.926-1.441 7.995-1.528 12.017-.142 6.56.762 13.418 4.426 18.862 4.66 6.923 13.115 10.468 21.408 11.396 9.489 1.063 19.433-.94 27.329-6.308.24-.163.472-.336.707-.506 6.482-4.661 11.329-11.69 12.99-19.456" fill="#E1B37F"/><path d="M29.324 301.45c2.036-.095 3.999 1.054 4.613 2.997.79 2.503-1.091 4.565-2.579 6.477a25.983 25.983 0 0 0-5.097 11.625c5.049 1.573 7.416-8.928 12.598-7.872 4.577 8.574-2.365 9.463-3.667 14.055-.316 1.116-.039 2.357.849 3.102 1.557 1.305 3.574-.001 4.924-1.294 3.501-3.355 6.568-7.172 10.337-10.224 3.768-3.051 8.488-5.338 13.315-4.882 1.157 3.556-1.093 7.302-3.644 10.037-2.863 3.07-6.392 5.9-6.959 10.243-.165 1.263.444 2.553 1.577 3.137 1.119.578 1.906.053 2.648-.453l3.356-2.286c2.697-1.837 6.367-.037 6.565 3.22 4.954 1.47 7.502-7.694 12.172-8.375.266-1.243.457-2.504.553-3.778.36-4.755-.468-9.542-1.896-14.091-1.916-6.103-5.001-11.968-9.716-16.29-2.2-2.015-4.686-3.426-7.33-4.462-2.44-.955-5.014-1.588-7.632-2.054-2.764-.491-5.573-.806-8.315-1.13-8.387-.99-17.051 2.952-22.606 9.144a32.772 32.772 0 0 0-2.899 3.753c-2.587 3.893-4.368 8.299-5.491 12.903l5.904-7.575c2.171-2.784 4.586-5.746 8.42-5.926" fill="#E7CCAD"/><path d="M257.882 97.49c10.97 1.227 22.466-1.088 31.595-7.294 7.906-5.375 13.844-13.775 15.835-23.079-5.399.787-8.344 11.383-14.072 9.683-.229-3.765-4.472-5.846-7.589-3.723l-3.88 2.644c-.859.584-1.768 1.191-3.062.524-1.31-.676-2.015-2.167-1.824-3.628.656-5.02 4.735-8.292 8.046-11.842 2.95-3.16 5.55-7.49 4.213-11.602-5.58-.528-11.036 2.115-15.394 5.643-4.357 3.528-7.902 7.942-11.95 11.82-1.56 1.495-3.892 3.003-5.693 1.495-1.027-.86-1.347-2.296-.98-3.585 1.504-5.309 9.53-6.337 4.238-16.25-5.99-1.22-8.728 10.92-14.565 9.101a30.035 30.035 0 0 1 5.894-13.44c1.72-2.21 3.894-4.594 2.98-7.488-.709-2.247-2.98-3.574-5.333-3.463-4.43.208-7.224 3.632-9.733 6.851l-6.826 8.757c-1.107 4.54-1.666 9.243-1.766 13.893-.165 7.585.88 15.512 5.116 21.806 5.388 8.004 15.162 12.102 24.75 13.176" fill="#95A3EE"/><path d="M245.559 32.395c2.353-.111 4.624 1.216 5.333 3.463.914 2.894-1.26 5.277-2.98 7.488a30.035 30.035 0 0 0-5.894 13.44c5.837 1.818 8.574-10.321 14.565-9.101 5.291 9.913-2.734 10.94-4.239 16.25-.366 1.289-.046 2.724.981 3.585 1.801 1.508 4.132 0 5.692-1.495 4.049-3.878 7.594-8.292 11.951-11.82 4.358-3.528 9.813-6.171 15.394-5.643 1.337 4.11-1.264 8.44-4.213 11.602-3.311 3.55-7.39 6.822-8.046 11.842-.191 1.46.514 2.952 1.824 3.628 1.294.667 2.203.06 3.061-.524l3.881-2.644c3.117-2.123 7.36-.042 7.589 3.723 5.728 1.7 8.673-8.896 14.072-9.683.307-1.437.528-2.895.639-4.368.416-5.496-.541-11.03-2.192-16.29-2.214-7.054-5.782-13.835-11.232-18.832-7.366-6.751-17.48-7.726-26.911-8.84-9.696-1.145-19.713 3.413-26.134 10.57-4.871 5.429-7.964 12.138-9.7 19.257l6.826-8.757c2.509-3.22 5.302-6.643 9.733-6.851" fill="#C3CBEF"/><path d="M314.559 500.08c-5.894 1.755-11.947 1.614-18.101 1.89-1.942.085-1.945 2.932 0 3.02 4.115.182 8.269.578 12.382.64 2.34.034 5.91-.618 7.625-2.276 1.395-1.35-.032-3.83-1.906-3.274M343.775 496.249c-2.372.484-5.06.337-7.374 1.032-.56-.298-1.292.134-1.383.834-.573 4.445 12.95 2.651 14.592-.336.396-.721.329-1.729-.298-2.312-1.387-1.287-3.958.46-5.537.782" fill="#995060"/><path d="M293.07 485.548c-1.104 1.23-3.438 3.427-3.02 5.24.14.61.987.667 1.293.168.942-1.535 2.417-2.81 4.092-3.8 1.899-1.124 4.055-1.876 6.025-2.162 2.517-.365 1.463-4.717-1.072-3.89-1.234.403-2.326 1.13-3.467 1.74l-.1.053c-1.424.75-2.667 1.444-3.75 2.651M352.29 477.627c-1.967-.658-3.217-1.793-5.439-1.607-2.031.17-3.739.375-5.548 1.298-.55.281-.295 1.193.315 1.165 1.753-.08 3.573.181 5.313.46 1.743.281 2.701 1.823 4.4 2.165 2.273.46 3.174-2.74.959-3.48" fill="#27305A"/></g></svg>
