<svg width="418" height="313" xmlns="http://www.w3.org/2000/svg"><g fill="none" fill-rule="evenodd"><path d="M124.263 45.356a8.402 8.402 0 0 0 1.755-1.34 8.433 8.433 0 0 0 1.34-1.754 8.514 8.514 0 0 0 0-8.524 8.55 8.55 0 0 0-1.338-1.756 8.596 8.596 0 0 0-1.757-1.34 8.518 8.518 0 0 0-8.526 0 8.483 8.483 0 0 0-1.755 1.34 8.428 8.428 0 0 0-1.34 1.756 8.505 8.505 0 0 0 0 8.524c.363.627.804 1.22 1.34 1.755.535.538 1.13.977 1.755 1.339a8.51 8.51 0 0 0 8.526 0M105.76 59.115l-6.875-6.875 2.56-2.97a21.55 21.55 0 0 1-2.538-6.12L95 42.862v-9.722l3.906-.29a21.561 21.561 0 0 1 2.539-6.12l-2.561-2.969 6.875-6.875 2.97 2.56a21.618 21.618 0 0 1 6.121-2.539l.288-3.906h9.722l.292 3.906a21.63 21.63 0 0 1 6.119 2.539l2.969-2.56 6.874 6.875-2.557 2.968a21.671 21.671 0 0 1 2.539 6.121l3.904.29v9.722l-3.904.29a21.66 21.66 0 0 1-2.539 6.119l2.558 2.97-6.875 6.875-2.969-2.56a21.57 21.57 0 0 1-6.12 2.537l-.29 3.908h-9.723l-.288-3.908a21.535 21.535 0 0 1-6.121-2.537l-2.97 2.56" fill="#51B47D"/><path d="M73.856 32l-1.773-3.99 1.876-.953a10.932 10.932 0 0 1-.056-3.48L72 22.68l1.932-4.745 2.017.615a11.484 11.484 0 0 1 2.488-2.498l-.692-1.943 4.812-2.027.98 1.825a11.926 11.926 0 0 1 3.573-.055L88.033 12l4.873 1.881-.632 1.964a11.46 11.46 0 0 1 2.564 2.423l1.998-.676 2.08 4.687-1.873.955c.203 1.166.219 2.338.056 3.477L99 27.61l-1.236 3.034L73.856 32M85.5 20.68c-.225 0-.45.016-.674.048a4.655 4.655 0 0 0-1.146.314 4.595 4.595 0 0 0-1.02.598 4.41 4.41 0 0 0-1.373 5.277c.163.366.372.694.615.994a4.64 4.64 0 0 0 4.274 1.65c.386-.057.77-.155 1.145-.314a4.595 4.595 0 0 0 1.022-.598 4.413 4.413 0 0 0 1.372-5.277 4.421 4.421 0 0 0-.617-.993 4.63 4.63 0 0 0-3.598-1.7" fill="#B3DDDD"/><path d="M237.183 6A241.545 241.545 0 0 0 232 3.202C232.152 1.403 233.432 0 234.991 0 236.652 0 238 1.593 238 3.56c0 .945-.31 1.803-.817 2.44" fill="#B9DCC5"/><path d="M235.47 5c-1.917 0-3.47-.813-3.47-1.817 0-.06.006-.122.019-.183 2.007.465 3.999.94 5.981 1.428-.633.352-1.532.572-2.53.572" fill="#B3DAC6"/><path d="M17.5 163c-2.482 0-4.5-2.244-4.5-5s2.018-5 4.5-5 4.5 2.244 4.5 5-2.018 5-4.5 5m0-8.074c-1.525 0-2.766 1.38-2.766 3.074 0 1.695 1.241 3.074 2.767 3.074 1.526 0 2.765-1.38 2.765-3.074 0-1.695-1.24-3.074-2.765-3.074M223.5 17c-.773 0-1.397-.694-1.397-1.55v-1.897h-1.706c-.773 0-1.397-.694-1.397-1.551 0-.859.624-1.553 1.397-1.553h1.706V8.553c0-.86.624-1.553 1.397-1.553s1.396.694 1.396 1.553v1.896h1.708c.77 0 1.396.694 1.396 1.553 0 .857-.626 1.55-1.396 1.55h-1.708v1.897c0 .857-.623 1.551-1.396 1.551" fill="#B3DDDD"/><path d="M12 143a1 1 0 1 1 0-2.002A1 1 0 0 1 12 143" fill="#B3DAC6"/><path d="M381.982 240.472c.343 5.86-4.135 10.885-10.002 11.227L259.6 258.232l-10.27.603-6.898.395-10.422.602-16.49.96-13.643.789-5.804.34-13.607.79-107.781 6.27c-5.868.343-10.898-4.129-11.241-9.988L52 62.54 370.522 44l11.46 196.472" fill="#4F5090"/><path d="M63.064 260c-9.242 0-17.154-7.025-18.09-16.435l-7.554-76.102 4.453 3.97 11.021-12.412-2.856-2.549a40.64 40.64 0 0 0 5.767 4.148 46.21 46.21 0 0 0 2.812 7.166l5.304 91.369c.015.277.043.55.079.82-.313.017-.625.025-.936.025m-26.066-96.78L30.09 93.626C29.095 83.6 36.397 74.668 46.4 73.67l6.713-.67 1.089 18.742a41.054 41.054 0 0 0-4.403 3.352 39.508 39.508 0 0 0-6.323 7.013 40.502 40.502 0 0 0-7.481 25.945 40.465 40.465 0 0 0 12.972 27.467l-2.864-2.553-9.106 10.254" fill="#BCDAE9"/><path d="M65.909 259c-.036-.269-.064-.54-.08-.817l-5.315-90.938a46.103 46.103 0 0 0 7.633 11.088l-4.342 4.855-1.014-.876-1.317 1.353 1.027 17.557 9.107-11.103-1.016-.897 4.367-4.857a46.698 46.698 0 0 0 9.331 5.253l.344 5.861a4.233 4.233 0 0 0 1.432 2.947 4.27 4.27 0 0 0 2.851 1.081l.257-.007 1.757-.102v7.16l-1.338.076a4.281 4.281 0 0 0-2.963 1.426 4.228 4.228 0 0 0-1.08 3.093l1.314 22.451a4.243 4.243 0 0 0 1.434 2.947 4.27 4.27 0 0 0 2.736 1.08c.678 4.454 4.539 7.868 9.203 7.868h82.238l.3 1.953-115.974 11.482c-.298.03-.596.051-.892.066m130.407-12.889c-.032-.204-.064-.409-.094-.612h5.86l.007.041-5.773.571m52.193-5.166c.196-1.114.366-2.137.508-3.052.585-3.793 1-9.427 1.302-15.568h6.397c-.416 5.615-.906 10.686-1.416 14.085-.17 1.142-.37 2.462-.592 3.921l-6.199.614m16.517-1.636l.219-1.416c.566-3.774 1.113-9.408 1.566-15.568h.944c1.019-4.376 1.849-29.71 2.189-42.593 1.736 1.014 3.302 1.653 3.566 1.747.359.15.717.206 1.094.206a2.994 2.994 0 0 0 2.774-1.878 2.98 2.98 0 0 0-.185-2.53l83.791 4.743 2.925 29.257c.944 9.44-5.557 17.91-14.753 19.634l-23.523-8.027a3.155 3.155 0 0 0-3.623 1.2 3.13 3.13 0 0 0-1.602 1.674l-3.412 8.408-51.97 5.143m-174.095-3.774c-1.052-.113-1.912-.964-1.976-2.053L87.64 211.03a2.194 2.194 0 0 1 2.074-2.316l1.217-.071v26.89m-1.982-38.111c-1.153 0-2.159-.892-2.226-2.066l-.287-4.898c1.48.537 2.98 1 4.495 1.382v5.47l-1.878.11c-.036.002-.07.002-.104.002m1.982-18.485a34.387 34.387 0 0 1-5.31-2.41l-.212-3.622a2.162 2.162 0 0 1 .555-1.583c.39-.44.93-.7 1.517-.733l3.45-.199v8.547m-7.484-3.74a34.217 34.217 0 0 1-3.791-2.912 34.096 34.096 0 0 1-5.907-6.81 40.748 40.748 0 0 0 6.962.186 40.8 40.8 0 0 0 10.22-1.915v4.556l-3.57.206a4.277 4.277 0 0 0-2.961 1.426 4.222 4.222 0 0 0-1.082 3.093l.129 2.17m186.264-9.354c-.543-7.476-1.594-20.165-3.032-30.132 1.585 2.085 3.117 4.252 4.395 6.291l-1.363 23.841m1.914-33.48a126.493 126.493 0 0 0-6.72-8.145 3.053 3.053 0 0 0-2.264-.977 3.763 3.763 0 0 0-1.132-.187H250.79a36.106 36.106 0 0 1 .133-4.113c8.246-.3 14.85-7.024 14.85-15.306 0 0 4.36-11.963-11.265-17.503a20.17 20.17 0 0 0-1.736-.507c-.396-1.164-1.189-2.347-2.642-3.662-2.032-1.838-4.697-2.683-7.42-2.683-2.319 0-4.681.614-6.734 1.748a9.338 9.338 0 0 0-3.491-.672H215.13a2.864 2.864 0 0 0-.06-.102c.282-.958.471-1.972.547-2.873.264-3.362-.02-7.08-4.284-8.751 1.459-2.275-3.21-6.697-8.057-6.697-.797 0-1.599.12-2.378.386-3.982 1.373-6.724 1.843-8.61 1.845-4.13 0-4.165-2.258-4.165-2.258-5.491 1.597-6.02 6.63-3.585 8.846-1.416 1.859-1.51 4.319-1.321 6.629.037.47.132 1.033.245 1.634-.043.443-.089.886-.106 1.34h-83.119a9.304 9.304 0 0 0-8.944 6.692 40.52 40.52 0 0 0-12.911-2.102 40.946 40.946 0 0 0-5.586.38 40.221 40.221 0 0 0-16.705 6.235L55 72.907 276.273 51l-4.648 81.364m-26.798-9.31h-3.036v-6.685c1.004.67 2.091 1.217 3.244 1.634a38.254 38.254 0 0 0-.208 5.052M231.244 244h-17.037c-.07-.25-.14-.495-.207-.738L237 242c-.118.35-.242.71-.371 1.082-1.533.58-3.386.918-5.385.918" fill="#6672A8"/><path d="M199.518 245h-5.827c-.642-4.19-1.209-7.903-1.618-10.601a98.07 98.07 0 0 1-.422-3.218l5.87-.342c.22 2.117.451 4.01.688 5.586.34 2.254.793 5.216 1.31 8.575m-19.497 0H98.254c-4.638 0-8.477-3.411-9.15-7.862.037.002.076.002.114.002l.255-.008 88.673-5.165a114.4 114.4 0 0 0 .568 4.458c.342 2.254.794 5.218 1.308 8.575m32.985-1.3c-.563-3.657-1.057-6.888-1.42-9.301a105.51 105.51 0 0 1-.55-4.348l11.045-.644a4.278 4.278 0 0 0 4.017-4.514l-1.306-22.432a4.251 4.251 0 0 0-1.426-2.946 4.18 4.18 0 0 0-3.09-1.071l-11.424.666c-.14-2.676-.258-5.106-.353-7.132l11.364-.663a4.275 4.275 0 0 0 4.015-4.514l-1.306-22.432c-.133-2.282-2.067-4.023-4.305-4.023-.07 0-.14.002-.209.004l-.715.043c.08-.162.15-.33.209-.505.731-2.083-.376-4.39-2.477-5.104l-.15-.075c.522-.482 1.026-.953 1.518-1.414l1.2-.07a4.263 4.263 0 0 0 3.164-1.698c.458 10.421 8.025 19.12 12.393 23.316-.62.319-1.164.563-1.483.675a2.97 2.97 0 0 0-1.67 3.847 2.958 2.958 0 0 0 2.759 1.876 2.8 2.8 0 0 0 1.088-.206c.112-.038.469-.188.975-.413-3.302 16.212 2.064 41.224 2.064 41.224h.544c-.3 5.629-.675 10.695-1.18 14.072-.236 1.543-.565 3.43-.964 5.56l-22.327 2.222M89.24 235.057c-.082 0-.161-.004-.24-.013v-26.868l87.022-5.07c.259 4.764.576 10.043.936 15.116l-34.543 2.012.257 4.413 34.615-2.015c.202 2.569.416 5.027.641 7.263l-88.577 5.16c-.038.002-.075.002-.11.002m48.763-14.564l-38.002 2.214.257 4.411 38.002-2.214-.257-4.411m-15.918-6.943l-22.542 1.312.258 4.413 22.54-1.313-.256-4.412m26.73-1.557l-22.54 1.311.258 4.414 22.54-1.314-.257-4.411m42.609 17.116c-.766-7.442-1.43-17.985-1.904-26.789l5.94-.345c.454 8.477 1.096 18.835 1.854 26.79l-5.89.344m19.398-1.131c-.752-7.686-1.401-18.2-1.86-26.79l11.435-.665.131-.004c.537 0 1.05.193 1.454.553.436.389.696.925.73 1.509l1.308 22.432a2.198 2.198 0 0 1-2.06 2.317l-11.138.648M89 206.092v-7.153l86.555-5.042c.097 2.085.217 4.507.356 7.132L89 206.092m100.41-5.85c-.138-2.63-.256-5.052-.356-7.131l5.946-.347c.096 2.038.214 4.464.353 7.132l-5.942.345M89 196.854v-5.465a46.563 46.563 0 0 0 14.21 1.366 46.676 46.676 0 0 0 18.701-5.12l14.13-.823-.257-4.411-6.358.371a46.403 46.403 0 0 0 4.103-3.683l20.498-1.193-.257-4.414-16.192.944a46.414 46.414 0 0 0 4.696-7.575l32.701-1.904c-.01.19-.013.289-.013.289s-.47 10.77.281 21.672c.032.777.105 2.514.214 4.91L89 196.854m60.68-15.262l-9.483.552.255 4.411 9.485-.552-.257-4.411m39.279 9.44a898.47 898.47 0 0 1-.17-3.787h5.967c.03.727.081 1.907.149 3.44l-5.946.347m19.443-1.133c-.11-2.419-.17-3.896-.176-3.967 0-.244-.055-.469-.092-.713 1.05-3.115 2.514-9.85.657-19.983-.055-.7-.09-1.453-.113-2.252l9.501-.553.13-.004c1.15 0 2.118.9 2.187 2.062l1.306 22.432a2.197 2.197 0 0 1-2.06 2.317l-11.34.66M97.535 180.35A34.22 34.22 0 0 1 89 178.496v-8.54l38.138-2.223a34.047 34.047 0 0 1-8.927 7.82l-20.886 1.217.21 3.58m140.769-8.885c-3.734-3.377-12.74-12.721-11.483-22.91.47-3.66 3.772-9.832 6.792-14.786 2.42 12.215 5.46 26.25 4.69 37.696M89 167.87v-4.552a40.017 40.017 0 0 0 6.918-3.002l36.661-2.135a34.017 34.017 0 0 1-3.82 7.374L89 167.87m54.265-3.162a45.946 45.946 0 0 0 2.448-7.293l20.69-1.205a4.045 4.045 0 0 0-.203 3.096 4.023 4.023 0 0 0 5.122 2.477c1.464-.506 2.796-1.37 3.903-2.251-.064 1.307-.115 2.43-.156 3.323l-31.804 1.853m65.39-3.81c0-.227.002-.458.004-.69.274.215.565.43.869.639l-.872.05m-109.044-2.883a40.49 40.49 0 0 0 3.983-3.183 39.349 39.349 0 0 0 6.22-7.104l24.834.404a33.97 33.97 0 0 1-1.36 7.922l-33.677 1.96m46.567-2.71a46.36 46.36 0 0 0 .818-6.971l20.685.335c.773 1.588 1.57 3.17 2.364 4.71-.29.222-.589.428-.869.586l-22.998 1.34m66.495-9.585l.344-21.209 2.944-.17.127-.004c1.15 0 2.12.9 2.188 2.064l.752 12.911a201.201 201.201 0 0 1-6.355 6.408m8.316-8.543l-.636-10.898c-.133-2.28-2.045-4.023-4.299-4.023-.07 0-.142.002-.215.005l-3.044.177a3.261 3.261 0 0 0-.654-1.017c.287-2.134.576-4.194.86-6.145l.873-.05c5.278 7.764 9.856 15.275 10.432 17.663-.46.906-1.653 2.419-3.317 4.288m9.621-9.786c-2.454-5.304-7.045-12.39-11.267-18.457l-1.208-20.747c-.133-2.28-2.05-4.023-4.296-4.023-.072 0-.145.002-.218.005l-.501.029c.113-.438.173-.897.173-1.37A5.486 5.486 0 0 0 212.49 80h17.255c1.227 0 2.398.238 3.471.672-2.611 1.45-4.72 3.752-5.589 6.713-2.195 7.525.62 10.264 3.284 15.405a4.903 4.903 0 0 0 .582 6.886l.45.263c-.826 4.372-3.434 8.369-3.434 8.369s4.953-.338 9.588-2.984c.292.231.592.449.902.657v6.68h-3.398c-.882 0-1.67.338-2.27.882l-.244.244-.131.15-.132.169c-.281.394-1.107 1.595-2.214 3.283m-52.778-7.494l-1.509-.024c.561-.75 1.14-1.518 1.734-2.295-.075.76-.152 1.533-.225 2.32m-11.324-.185l-23.182-.379 24.445-1.424c-.431.608-.855 1.209-1.263 1.803m-50.12-.895a39.476 39.476 0 0 0-.592-3.079 34.27 34.27 0 0 1 4.67 2.841l-4.078.238m20.748-1.208a47.337 47.337 0 0 0-10.107-9.53l-.04-.687-.895.05a46.682 46.682 0 0 0-5.505-3.121l29.052-1.693-.257-4.411-40.311 2.349c-.161-.03-.325-.06-.486-.088a40.74 40.74 0 0 0-7.674-7.658l82.075-4.78a15.138 15.138 0 0 0 10.585 7.227c.038 1.876-.094 3.772-.45 5.085h-9.681c-1.051 0-2.008.488-2.627 1.276a3.99 3.99 0 0 0-.957.826c-2.542 3.04-6.734 8.17-10.503 13.277l-32.22 1.878m29.826-12.545l-35.563 2.071.257 4.411 35.565-2.071-.26-4.411m50.11.645a310.39 310.39 0 0 0-2.201-3.049 3.37 3.37 0 0 0-.488-.544 3.328 3.328 0 0 0-2.946-1.764h-8.65c.338-2.345.357-4.71.263-6.624a14.988 14.988 0 0 0 6.323-6.36c.222.069.452.107.681.107.454 0 .91-.147 1.308-.483.233-.195.448-.41.645-.643l1.736-.102.128-.003c1.152 0 2.12.9 2.187 2.064l1.013 17.401M98.152 90.894a40.29 40.29 0 0 0-8.792-4.209A9.258 9.258 0 0 1 98.254 80h82.644a11.9 11.9 0 0 0-.007.368c0 1.994.388 3.899 1.094 5.642l-83.833 4.884" fill="#7798C2"/><path d="M370 43.528L52.49 62l-1.482-25.421a4.363 4.363 0 0 1 4.104-4.606l308.794-17.966a4.365 4.365 0 0 1 4.612 4.1L370 43.527" fill="#CFCEC9"/><path fill="#F4F4F1" d="M366 38.318L58.574 57 58 46.682 365.422 28 366 38.318"/><path fill="#FCF6E8" d="M63 41.669L57.33 42 57 36.33l5.67-.33.33 5.669M73 41.669L67.331 42 67 36.331 72.67 36l.33 5.669M82 40.67l-5.669.33L76 35.331 81.669 35 82 40.67"/><path d="M213.438 87.043l-.127.004L81.133 94.63a2.18 2.18 0 0 0-1.503.719 2.11 2.11 0 0 0-.55 1.553l1.301 22.026a2.167 2.167 0 0 0 2.308 2.022l132.18-7.586a2.175 2.175 0 0 0 1.503-.717c.39-.429.582-.982.55-1.554l-1.303-22.025c-.068-1.142-1.033-2.026-2.18-2.026M82.56 123c-2.235 0-4.118-1.724-4.25-3.952l-1.302-22.026a4.112 4.112 0 0 1 1.071-3.032 4.261 4.261 0 0 1 2.934-1.4l132.178-7.585c2.33-.116 4.363 1.635 4.5 3.945l1.301 22.024a4.125 4.125 0 0 1-1.07 3.034 4.254 4.254 0 0 1-2.934 1.4l-132.177 7.585-.25.007M216.438 125.043l-.127.004-132.178 7.584c-1.205.07-2.125 1.089-2.055 2.273l1.303 22.025a2.169 2.169 0 0 0 2.308 2.022l132.18-7.584c1.2-.07 2.12-1.089 2.051-2.274l-1.301-22.024c-.068-1.142-1.034-2.026-2.18-2.026M85.558 161c-2.236 0-4.12-1.724-4.25-3.952l-1.302-22.026c-.136-2.308 1.66-4.296 4.004-4.432l132.178-7.585c2.338-.114 4.364 1.634 4.5 3.945l1.304 22.024c.138 2.31-1.66 4.298-4.004 4.434l-132.18 7.585-.25.007" fill="#BBC6DB"/><path d="M210.341 150l-133.152-2.155A3.232 3.232 0 0 1 74 144.57l.37-22.4a3.23 3.23 0 0 1 3.29-3.17l133.153 2.156a3.228 3.228 0 0 1 3.187 3.274l-.365 22.4A3.233 3.233 0 0 1 210.34 150" fill="#F8F4F6"/><path d="M218.44 163.044l-.129.004-132.178 7.585a2.173 2.173 0 0 0-1.503.718c-.39.428-.584.98-.55 1.553l1.301 22.025c.07 1.186 1.124 2.078 2.31 2.024l132.178-7.584c1.202-.07 2.122-1.091 2.053-2.276l-1.301-22.024c-.07-1.14-1.035-2.025-2.18-2.025M87.555 199c-1.043 0-2.04-.37-2.825-1.061a4.137 4.137 0 0 1-1.42-2.89l-1.303-22.025a4.116 4.116 0 0 1 1.071-3.034 4.256 4.256 0 0 1 2.934-1.399l132.178-7.586c2.317-.11 4.363 1.636 4.5 3.946l1.302 22.024c.138 2.309-1.657 4.299-4.003 4.433l-132.18 7.585-.254.007" fill="#BBC6DB"/><path d="M400.815 185c-.128 0-.259-.004-.391-.011l-19.772-1.12-5.567-95.058c6.346-2.398 12.769-4.009 19.516-4.009 4.427 0 8.993.695 13.77 2.312a46.337 46.337 0 0 1 4.356 1.727l-5.132 89.78c-.204 3.597-3.2 6.379-6.78 6.379M374.97 86.835l-4.004-68.266c-.136-2.325-2.074-4.12-4.385-4.12-.085 0-.172.003-.26.007L277 19.634l.759-13.256c.204-3.598 3.2-6.378 6.777-6.378.13 0 .261.004.394.011l125.658 7.107c3.749.213 6.613 3.408 6.401 7.135l-4.147 72.576a48.501 48.501 0 0 0-3.862-1.496c-5.025-1.701-9.805-2.428-14.424-2.428-6.793 0-13.238 1.572-19.587 3.93" fill="#B8DFDB"/><path d="M411.884 88a46.29 46.29 0 0 0-4.37-1.746c-4.793-1.634-9.375-2.336-13.816-2.336-6.77 0-13.214 1.628-19.582 4.052L374 85.972C380.37 83.588 386.836 82 393.652 82c4.635 0 9.431.734 14.472 2.454 1.306.445 2.6.951 3.876 1.512L411.884 88" fill="#9CCED7"/><path d="M380 184l-20.261-1.163-11.856-120.4c-.817-8.309-7.04-14.758-14.8-16.14l38.836-2.286V44h.008L380 184M276 51.354l.097-1.704 40.657-2.391L276 51.354" fill="#5366A1"/><path d="M358 181l-82.622-4.74a2.957 2.957 0 0 0-1.493-1.32c-.39-.15-1.265-.544-2.177-1.07 2.922-4.542 8.169-14.585 6.736-26.318-.567-4.565-4.719-11.041-8.557-16.187l4.583-81.329 40.652-4.079L331.411 45c7.74 1.376 13.947 7.8 14.762 16.076L358 181m-89.771-12.874c-.062-.923-.138-2.035-.229-3.294L269.343 141c1.77 2.866 3.04 5.485 3.259 7.283.986 8.054-1.936 15.356-4.373 19.842" fill="#5F94C2"/><path d="M276 50l.355-6.435 89.446-5.358-.572-10.065-88.313 5.29.78-14.137 88.242-5.287c.086-.004.172-.008.256-.008 2.283 0 4.197 1.834 4.332 4.207L372 44.238v.012l-38.908 2.33-16.36.981L276 50" fill="#99CBC4"/><path fill="#AEDAD5" d="M276 43l.564-9.854L365.424 28l.576 9.789L276 43"/><path d="M220.442 201.045l-.13.004-132.179 7.584a2.183 2.183 0 0 0-1.505.717c-.39.43-.582.982-.55 1.555l1.303 22.024c.071 1.186 1.115 2.083 2.308 2.024l132.18-7.584c1.2-.07 2.123-1.09 2.053-2.275l-1.303-22.024a2.129 2.129 0 0 0-.728-1.481 2.188 2.188 0 0 0-1.449-.544M89.556 237c-1.045 0-2.04-.37-2.825-1.061a4.146 4.146 0 0 1-1.422-2.89l-1.301-22.024a4.122 4.122 0 0 1 1.07-3.034 4.26 4.26 0 0 1 2.935-1.399l132.177-7.584a4.22 4.22 0 0 1 3.08 1.052 4.15 4.15 0 0 1 1.421 2.892l1.302 22.024c.136 2.308-1.66 4.298-4.004 4.432L89.81 236.993l-.255.007" fill="#BBC6DB"/><path d="M131 126l-13-.113c.024-.247.04-.495.048-.744.01-.377.008-.758-.012-1.143l10.214.09c.993.608 1.91 1.246 2.75 1.91M131 135l-15-.369c.2-1.522.363-3.069.482-4.631l13.019.318A60.523 60.523 0 0 1 131 135M177.937 141l-3.709-.061c-.898-2.058-1.67-3.942-2.228-5.481l.089-5.576c.62-1.072 1.471-2.393 2.487-3.882l4.424.074A797.283 797.283 0 0 0 177.937 141" fill="#AFD5E7"/><path fill="#51B47D" d="M370 132.019L369.497 216l-1.497-.015.504-83.985 1.496.019"/><path fill="#F0F5F8" d="M278 186.017L277.797 215l-1.797-.019.203-28.981 1.797.017M324 155.02l-.385 60.98-1.615-.017.383-60.983 1.617.02"/><path d="M370.834 196h-.141c-12.453-.103-18.446-13.797-24.244-27.041-5.758-13.154-11.196-25.58-22.166-25.673h-.12c-10.892 0-16.517 12.29-22.47 25.3-5.994 13.093-12.193 26.632-24.552 26.632H277l.019-2.285h.122c10.892 0 16.517-12.289 22.472-25.299C305.606 154.54 311.803 141 324.161 141l.14.002c12.453.103 18.446 13.797 24.244 27.04 5.757 13.155 11.196 25.582 22.165 25.673h.122c10.894 0 16.519-12.29 22.472-25.3 5.997-13.094 12.194-26.633 24.553-26.633H418l-.019 2.287h-.124c-10.892 0-16.515 12.289-22.472 25.297C389.392 182.463 383.193 196 370.834 196" fill="#F7C056"/><path fill="#ABD5B7" d="M342 127.978l.496-8.978L360 120.022l-.498 8.978L342 127.978M309 125.978l.498-8.978L327 118.02l-.498 8.98L309 125.978M277 124.978l.496-8.978L295 117.022l-.5 8.978-17.5-1.022"/><path d="M102.188 181c-.993 0-1.987-.043-2.977-.128L99 177.29l20.996-1.217A34.546 34.546 0 0 1 102.188 181m33.206-1.39a46.21 46.21 0 0 0 1.736-1.843 47.19 47.19 0 0 0 2.335-2.823l16.277-.944.258 4.416-20.606 1.195M122 190a45.509 45.509 0 0 0 7.445-5.574l6.3-.426.255 5.056-14 .944M140.236 189l-.236-5.333 8.762-.667.238 5.333-8.764.667M120.923 105A49.396 49.396 0 0 0 109 101.31L150.734 99l.266 4.336L120.923 105M126.498 108.366a27.296 27.296 0 0 0-.498-.339l.477-.027.021.366M132.258 114l-.258-4.763L167.74 107l.26 4.763L132.258 114M100.26 221l-.26-4.625L122.74 215l.26 4.623L100.26 221M126.261 220l-.261-4.625L148.74 214l.26 4.623L126.261 220M101.255 229l-.255-4.66 37.745-2.34.255 4.66-37.745 2.34M144.265 227l-.265-4.808L179.661 220c.109 1.627.223 3.234.339 4.804L144.265 227" fill="#80ACD0"/><path d="M58 167l-.001-.002A56.21 56.21 0 0 1 56 160c.573.468 1.161.91 1.76 1.323L58 167" fill="#7C9EBD"/><path d="M60.343 200l-1.034-17.221 1.327-1.327 1.022.859 4.376-4.762c-3.153-3.31-5.727-6.965-7.694-10.875L58 161a41.59 41.59 0 0 0 13.682 3.938 33.726 33.726 0 0 0 5.953 6.68 34.401 34.401 0 0 0 3.821 2.857l.85 14.143a47.445 47.445 0 0 1-9.405-5.152l-4.402 4.763 1.024.88L60.343 200M89 190.799a48.106 48.106 0 0 1-4.53-1.356l-.822-13.664A35.134 35.134 0 0 0 89 178.142V190.8" fill="#4B5A98"/><path d="M100.633 194c-3.903 0-7.814-.469-11.633-1.41V180a35.622 35.622 0 0 0 8.625 1.81l.05.814L134 180.579a46.393 46.393 0 0 1-4.147 3.597l-31.977 1.799.26 4.31 24.123-1.36c-5.914 2.953-12.37 4.63-18.898 4.998-.908.051-1.818.077-2.728.077" fill="#5271A9"/><path d="M84 191a26.78 26.78 0 0 1-1.436-.827L82 176c.476.465.962.9 1.455 1.307L84 191" fill="#7A91BC"/><path d="M118.298 177a34.034 34.034 0 0 0 7.8-6.565c.38-.431.746-.87 1.101-1.316l15.092-.89a46.86 46.86 0 0 1-4.682 7.635L118.299 177m10.517-10.077a34.415 34.415 0 0 0 3.809-7.431l13.095-.772a46.647 46.647 0 0 1-2.441 7.35l-14.463.853m4.516-9.576a34.566 34.566 0 0 0 1.356-7.983l12.312.202a47.197 47.197 0 0 1-.816 7.025l-12.852.756m-12.785-37.765a34.104 34.104 0 0 0-4.656-2.863 40.465 40.465 0 0 0-.891-3.24l12.306-.725-.215-3.754a47.27 47.27 0 0 1 10.078 9.604l-16.622.978" fill="#5271A9"/><path d="M139 119.876l-17.466-.15a42.95 42.95 0 0 0-.534-.209l16.757-.517c.426.288.841.58 1.243.876M133 157c.267-.488.51-.98.73-1.478L147 155c-.143.492-.303.982-.479 1.468L133 157" fill="#7A91BC"/><path d="M146.96 149l-11.854-.205a38.21 38.21 0 0 0-.012-3.88 36.748 36.748 0 0 0-2.463-11.42l4.262.074.05-3.355-5.846-.102a35.265 35.265 0 0 0-1.517-2.638l7.405.128.05-3.357-9.91-.17A34.297 34.297 0 0 0 122 119l16.682.288c4.876 7.231 7.742 15.791 8.24 24.892.089 1.616.102 3.225.039 4.82" fill="#A4AFBF"/><path d="M128 168c.532-.468 1.035-.95 1.508-1.44L143 166c-.29.478-.597.95-.921 1.417L128 168" fill="#7A91BC"/><path d="M113.498 108a36.083 36.083 0 0 0-1.67-3.034l8.827-.48A46.28 46.28 0 0 1 126 107.32l-12.502.681m-4.416-6.9a5.206 5.206 0 0 1-.082-.1l.472.08-.39.02" fill="#5271A9"/><path d="M134.954 126l-6.724-.073A23.51 23.51 0 0 0 126 124l9 .097-.046 1.903M136.948 132l-4.373-.042A18.41 18.41 0 0 0 131 130l6 .059-.052 1.941" fill="#729ABC"/><path d="M99.048 183l-.048-.863c.96.087 1.922.132 2.884.132 6.004 0 11.993-1.716 17.254-5.1L138 176c-.715 1-1.47 1.975-2.262 2.922a46.712 46.712 0 0 1-1.681 1.909L99.047 183M99.252 190L99 185.767 130 184a45.244 45.244 0 0 1-7.362 4.665L99.252 190M111.847 106a48.152 48.152 0 0 0-2.847-4.974l.404-.026c4.022.863 7.916 2.337 11.596 4.382l-9.153.618M115.68 114a52.479 52.479 0 0 0-1.68-5.114l12.852-.886c.313.246.624.496.933.751l.215 4.398-12.32.851" fill="#527FB4"/><path fill="#343F41" d="M36 165.098L42.863 171 54 158.902 47.139 153 36 165.098"/><path d="M2.645 208.945c3.354 3.071 8.519 2.65 11.356-.93L45 168.93 36.342 161 2.224 197.226c-3.124 3.319-2.933 8.649.42 11.72" fill="#616167"/><path d="M77.259 165c-1.555 0-3.093-.086-4.607-.253-7.599-11.342-7.607-26.342.41-37.747l1.34 1.165-.26 15.605c-.029 1.77 1.417 3.23 3.23 3.258l3.442.055.574 9.615c.133 2.25 2.052 3.993 4.33 3.993l.254-.008 4.028-.229v2.578A41.883 41.883 0 0 1 77.259 165m8.444-6.376c-1.16 0-2.137-.899-2.204-2.047l-.564-9.46 7.065.112v11.155l-4.15.237c-.05.003-.099.003-.147.003" fill="#9CB4D3"/><path d="M89 163v-2.447l6.636-.38A38.763 38.763 0 0 1 89 163m0-4.412V148l6.09.097 7.91 6.912a38.727 38.727 0 0 1-3.82 2.996l-10.18.583" fill="#A0C4DE"/><path d="M84.914 162a4.36 4.36 0 0 1-4.34-4.108L80 148l2.125.034.565 9.733a2.23 2.23 0 0 0 2.208 2.107c.048 0 .098 0 .147-.004l4.158-.243 10.797-.632a40.553 40.553 0 0 1-3.759 2.35l-7.038.412-4.035.235-.254.008" fill="#BCD8E7"/><path d="M97 149l-6.648-.107-7.285-.116-2.187-.035-3.55-.059c-1.868-.029-3.359-1.552-3.33-3.399L74.27 129l7.897 6.95-.723-.011-.055 3.399 4.715.076L97 149" fill="#D3E9F0"/><path fill="#B7DDEB" d="M86 138l-5-.044.058-1.956.767.007L86 138"/><path d="M56.278 161a41.446 41.446 0 0 1-5.884-4.155l-1.09-.954c-7.592-6.887-12.586-16.568-13.233-27.517-.57-9.64 2.337-18.706 7.631-25.99a39.837 39.837 0 0 1 6.45-7.027A41.811 41.811 0 0 1 54.643 92l.453 7.688-4.944-4.33a39.837 39.837 0 0 0-6.45 7.025l12.184 10.67L57 131.885c-.002.004-.002.008-.004.01a45.977 45.977 0 0 0-2.643 18.343A46.259 46.259 0 0 0 56.278 161" fill="#BCE0EC"/><path d="M57.368 131l-1.12-18.611 7.673 6.61A45.089 45.089 0 0 0 57.368 131m13.041-18.94L55.455 99.178 55 91.58c.08-.052.16-.103.243-.153 4.954-3.115 10.654-5.233 16.841-6.05A43.043 43.043 0 0 1 77.796 85c4.601 0 9.043.732 13.204 2.09a8.948 8.948 0 0 0-.37 2.556v2.166l-8.216.463c-.629.035-1.229.198-1.771.47l-8.559-7.368c-6.187.817-11.887 2.935-16.84 6.05l19.795 17.055a48.025 48.025 0 0 0-4.63 3.578m20.22-10.717l-8.126-6.994.035-.004 8.091-.456v7.454" fill="#9CB4D3"/><path d="M89.197 102l-.197-.167v-7.235l12.165-.67a40.566 40.566 0 0 1 7.835 7.4 50.886 50.886 0 0 0-19.803.673M89 92.581v-2.101c0-.862.128-1.694.368-2.481a42.193 42.193 0 0 1 8.977 4.067L89 92.582" fill="#A0C4DE"/><path d="M81.757 94L80 92.955a5.803 5.803 0 0 1 1.673-.307l7.757-.302L98.318 92c.92.392 1.815.809 2.682 1.25l-11.57.45-7.64.298c-.012 0-.023 0-.033.002" fill="#BCD8E7"/><path d="M110.023 148.02L110 148l.036.001a.127.127 0 0 0-.013.019" fill="#A0C4DE"/><path d="M111.072 148l-.069-.002-10.503-9.189 5.972.097.04-2.38 7.488 6.55a40.209 40.209 0 0 1-2.928 4.924m-5.586-12.371l-8.782-.14-2.953-2.584 8.781.14 2.954 2.584m-6.75-5.905l-8.783-.141L87 127l8.783.14 2.953 2.584" fill="#D3E9F0"/><path d="M86 117.901l-5-.038c.926-.308 1.88-.596 2.856-.863l2.144.901" fill="#9CB4D3"/><path d="M93 125l-9.222-.167L80 121.057A36.997 36.997 0 0 1 82.386 119l4.694.085L93 125" fill="#D3E9F0"/><path fill="#B7DDEB" d="M95 126l-9.076-.08L82 124l9.076.08L95 126M102 132l-9.075-.08L89 130l9.077.082L102 132M104.963 138l-5.48-.057L96 136l8.058.082.942.525-.037 1.393"/><path d="M115.914 120l-6.517-.106-6.397-5.591 5.292-.303c2.811.61 5.527 1.56 8.1 2.832a39.21 39.21 0 0 1 .608 3.106l-1.086.062" fill="#A0C4DE"/><path d="M116.571 119.042l-.571-.009.564-.033a.613.613 0 0 1 .007.042" fill="#BCD8E7"/><path d="M117 125l-2.308-.043L109 119l6.466.126 1.09.02A57.312 57.312 0 0 1 117 125" fill="#D3E9F0"/><path d="M116.995 125L115 124l1.985.018c.017.33.018.658.01.982" fill="#B7DDEB"/><path d="M103.34 114.579L102 114c2.375.033 4.718.174 7 .419l-5.66.16" fill="#A1CCE3"/><path d="M60 162a46.98 46.98 0 0 1-2.786-1.336 41.137 41.137 0 0 1-2.125-10.596 40.786 40.786 0 0 1 2.918-18.059c.002-.002.002-.005.004-.009L60 162" fill="#A3C6D6"/><path d="M72.39 166a40.6 40.6 0 0 1-13.615-4.02L57 131.665a45.76 45.76 0 0 1 6.428-12.08l9.369 8.283c-7.963 11.522-7.955 26.674-.407 38.132m9.059-46.83l-.547-.01-.27-4.59L84 117.547a34.095 34.095 0 0 0-2.551 1.622m-2.652-.043l-1.244-.02H77.5c-.113 0-.225.005-.335.016l-7.374-6.521a47.275 47.275 0 0 1 4.54-3.601l4.084 3.61.382 6.516" fill="#8CA7CB"/><path fill="#A2C0D6" d="M80 118l-1.693-.036L78 111l1.784 2.094L80 118"/><path d="M79.349 119.955L77 119.009c.128-.006.259-.009.391-.009h.062l1.452.011 2.456.018.639.005a52.57 52.57 0 0 0-2.651.921" fill="#B2CDD8"/><path d="M116 116a36.016 36.016 0 0 0-8.01-2.64l7.104-.383c.346.99.647 1.998.906 3.023m-17.983-6.266l-3.689-3.038 17.311-.935a37.308 37.308 0 0 1 1.746 3.144l-15.368.83m-5.026-4.14L89 102.304a51.664 51.664 0 0 1 19.684-.655l.086.104-15.965.863.186 2.979" fill="#8EB3D3"/><path d="M95.456 107l-1.278-1.337-.178-3.616L109.258 101a47.288 47.288 0 0 1 2.742 4.865L95.456 107M108.93 114a33.006 33.006 0 0 0-6.444-.83L99 109.93l15.3-.93a43.143 43.143 0 0 1 1.7 4.57l-7.07.43" fill="#8FB9D5"/><path d="M50.568 155.505A20.89 20.89 0 0 1 50 155l.568.505" fill="#829DA4"/><path d="M113.751 142l-7.707-6.165.015-.83-1.072-.015-3.04-2.433 15.298.225a34.8 34.8 0 0 1-3.494 9.218m4.029-12.278l-19.74-.29L95 127l23 .336c-.045.801-.119 1.597-.22 2.386" fill="#D8EFF3"/><path d="M90 120l-3.956-.07L84 117.98a35.401 35.401 0 0 1 6-2.98v5" fill="#B1C8DE"/><path d="M109 120l-20-.328v-4.376A33.796 33.796 0 0 1 93.605 114l.054.936 9.103-.534L109 120" fill="#B5D6E6"/><path fill="#D8EFF3" d="M116 125l-24.27-.433L86 119l3.77.067 20.497.364L116 125"/><path d="M115.957 129l-21.331-.486L91 124l22.805.521 2.195 2.733a69.698 69.698 0 0 1-.043 1.746M116.513 135l-13.95-.335L99 130l18 .432a82.315 82.315 0 0 1-.487 4.568M106.542 136.482L106 136l.55.009-.008.473" fill="#C4E6EF"/><path d="M94.048 114.868l-.048-.494a48.617 48.617 0 0 1 6.074-.374c.287 0 .572.002.858.007l1.068.579-7.952.282" fill="#B6DBEA"/><path d="M74.02 108L55 91.022A39.331 39.331 0 0 1 71.181 85l8.224 7.335a4.19 4.19 0 0 0-1.207.945 4.197 4.197 0 0 0-1.063 3.061l.543 9.338A45.61 45.61 0 0 0 74.02 108m5.655-3.394l-.485-8.386a2.154 2.154 0 0 1 .545-1.568 2.14 2.14 0 0 1 1.457-.721L89 100.894v.22a45.357 45.357 0 0 0-9.325 3.492" fill="#B1C8DE"/><path d="M89 102.118V102l.103.092-.103.026" fill="#B5D6E6"/><path d="M77.678 108l-.669-9.797c-.082-1.184.381-2.326 1.307-3.212.427-.411.93-.745 1.485-.991L82 95.674c-.693.043-1.33.31-1.793.757-.474.455-.711 1.038-.67 1.645l.597 8.798c-.83.357-1.649.734-2.456 1.126" fill="#C8E3EE"/><path d="M83.484 117l-3.303-2.879-.518-8.706A46.106 46.106 0 0 1 89 102v12.498A33.885 33.885 0 0 0 83.484 117m-5.48-4.774L74 108.734a45.837 45.837 0 0 1 3.663-2.27l.342 5.762" fill="#A5BFDA"/><path d="M89 115v-12.951l.17-.049 3.466 3.515.065 1.25 1.096-.074L97 109.936l-4.124.275.179 3.5A27.16 27.16 0 0 0 89 115" fill="#A8C7DD"/><path d="M80 112l-1.729-1.741-.271-5.295a34.501 34.501 0 0 1 1.588-.964l.412 8" fill="#B7D3E0"/><path fill="#A8CEDE" d="M94.039 104.663L94 104l.702.624-.663.039M94.2 114l-.2-4.636 4.605-.364 3.395 4.084a25.466 25.466 0 0 0-2.961.06c-1.64.13-3.257.417-4.84.856"/><path d="M102.994 155L95 148l13.958.224.042.035a37.72 37.72 0 0 1-6.006 6.741" fill="#B5D6E6"/><path fill="#D8EFF3" d="M111 149l-14.512-.247L86 139l14.514.247L111 149"/><path d="M72.704 128l-.704-.774c.231-.416.474-.825.73-1.226l-.026 2" fill="#B1C8DE"/><path d="M97 135l-15.094-.233-7.906-6.68.051-3.02A35.751 35.751 0 0 1 79.245 120l3.737 3.157-1.6-.024-.054 3.27 5.597.085 3.066 2.59-8.708-.135-.056 3.27 12.707.196L97 135" fill="#D8EFF3"/><path fill="#C4E6EF" d="M87 125l-6-.051.059-1.949 1.714.014L87 125M94 132l-13-.113.056-1.887 8.91.078L94 132M99 141l-14.273-.328L81 136l14.273.328L99 141"/><path d="M56 112l-12-10.25A38.644 38.644 0 0 1 50.353 95l4.87 4.16L56 112" fill="#C8E7F0"/><path d="M63.926 119l-7.183-6.67L56 99l14 12.998a46.834 46.834 0 0 0-3.453 3.628A47.13 47.13 0 0 0 63.926 119" fill="#B1C8DE"/><path d="M72.548 126L63 117.862a46.947 46.947 0 0 1 2.799-3.307c1.17-1.257 2.4-2.44 3.686-3.555L77 117.407c-1.651.16-2.953 1.486-2.98 3.115l-.064 3.647c-.494.599-.962 1.21-1.408 1.831" fill="#A5BFDA"/><path d="M74 126l.075-3.775c.032-1.687 1.565-3.059 3.51-3.225L80 120.81a39.89 39.89 0 0 0-4.44 3.626A39.607 39.607 0 0 0 74 126" fill="#C2DCE2"/><path d="M77.034 91.48c-.68 0-1.367.021-2.053.06-9.208.537-17.655 4.626-23.786 11.518-6.133 6.889-9.213 15.753-8.677 24.961.537 9.208 4.626 17.655 11.517 23.788 14.222 12.656 36.09 11.38 48.748-2.84 6.13-6.89 9.213-15.755 8.677-24.963-.537-9.208-4.626-17.655-11.517-23.786-6.376-5.674-14.444-8.738-22.909-8.738zM76.962 173c-11.122 0-22.283-3.911-31.225-11.87-19.365-17.234-21.098-47.007-3.865-66.37 8.347-9.38 19.848-14.948 32.383-15.678 12.558-.732 24.607 3.465 33.986 11.812 9.38 8.347 14.95 19.849 15.678 32.384.73 12.537-3.466 24.605-11.813 33.987C102.832 167.685 89.924 173 76.962 173z" fill="#375673"/><path d="M333 105.785c16.234 7.374 36.072 5.139 50.27-7.224 6.86-5.97 11.456-13.479 13.73-21.526L374.85 71c-2.859 10.036-12.578 17.12-23.65 16.505a23.39 23.39 0 0 1-8.477-2.077L333 105.785M319.767 95.904c.34.376.697.735 1.053 1.096l16.697-15.656c-4.28-4.419-6.76-10.5-6.38-17.087.728-12.603 11.708-22.234 24.529-21.519 9.132.512 16.743 6.137 20.087 13.891L397 47.758a44.993 44.993 0 0 0-8.076-12.538c-17.035-18.766-46.346-20.404-65.436-3.658-19.105 16.76-20.756 45.577-3.72 64.342" fill="#2C327C"/><path d="M320 96.336A46.28 46.28 0 0 0 334.122 106L344 85.84a23.336 23.336 0 0 1-7.092-4.84L320 96.336" fill="#2C327C"/><path d="M287 33.391c2.538-.933 5.442-.189 7.336 2.147A7.89 7.89 0 0 1 296 39.4l-3.391.599c-.25-1.737-1.571-3.102-3.225-3.208-.452-.028-.89.04-1.295.19L287 33.393" fill="#F0F5F8"/><path d="M283.682 35.17l.201-.17 2.558 3.029a3.95 3.95 0 0 0-1.435 2.827c-.129 2.191 1.568 4.067 3.787 4.192a4.04 4.04 0 0 0 3.731-2.01L296 44.98a7.82 7.82 0 0 1-1.64 2.01c-3.301 2.911-8.375 2.626-11.323-.636a7.851 7.851 0 0 1 .645-11.185M295.572 41.72a4.93 4.93 0 0 0-.048-.993l4.364-.727a9.497 9.497 0 0 1-1.04 6L295 43.737a4.708 4.708 0 0 0 .572-2.017" fill="#F7C056"/><path d="M285 35.605A10.86 10.86 0 0 1 288.36 34l1.64 4.195c-.62.176-1.19.452-1.688.805L285 35.605M296 93.722c-1.403 2.68-4.376 4.447-7.709 4.265a8.271 8.271 0 0 1-4.291-1.46l2.365-3.118c1.516 1.05 3.64.989 5.091-.246.4-.34.71-.735.933-1.163L296 93.722" fill="#51B47D"/><path d="M293.988 90.342l-.02.26-3.72-.352a4.08 4.08 0 0 0-.942-2.994c-1.384-1.631-3.76-1.772-5.312-.317-1.104 1.036-1.49 2.606-1.121 4.012l-3.6 1.049a8.209 8.209 0 0 1-.26-2.556c.233-4.35 3.78-7.677 7.912-7.431 4.137.247 7.298 3.979 7.063 8.329" fill="#CFD4E2"/><path d="M285.283 91.776c.22.245.463.46.717.642L283.382 96A8.855 8.855 0 0 1 280 91.181L284.305 90c.177.64.503 1.247.978 1.776" fill="#F0F5F8"/><path d="M297 90.222c-.102.636-.425 1.236-.923 1.778L292 90.89c.26-.28.41-.582.463-.89l4.537.222" fill="#F7C056"/><path d="M284.28 72c-2.682-1.403-4.449-4.375-4.267-7.708a8.267 8.267 0 0 1 1.46-4.292l3.118 2.365c-1.05 1.514-.989 3.64.246 5.093.34.397.735.71 1.163.93L284.28 72" fill="#CFD4E2"/><path d="M287.493 72.988l-.235-.021.317-3.719a3.435 3.435 0 0 0 2.693-.943c1.47-1.382 1.597-3.76.287-5.31-.933-1.106-2.346-1.493-3.61-1.121l-.945-3.6a6.688 6.688 0 0 1 2.3-.262c3.915.235 6.91 3.78 6.688 7.912-.222 4.137-3.58 7.297-7.495 7.064" fill="#51B47D"/><path d="M285.222 63.28a4.63 4.63 0 0 0-.64.72L281 61.382A8.837 8.837 0 0 1 285.819 58L287 62.305c-.64.177-1.25.5-1.778.976" fill="#F7C056"/><path d="M286.778 75c-.637-.102-1.237-.423-1.778-.923L286.109 70c.28.26.583.412.891.466L286.778 75" fill="#F0F5F8"/><path d="M348.851 276a3.06 3.06 0 0 1-1.148-.224l-39.78-16.018a3.056 3.056 0 0 1-1.698-3.985l.25-.617 2.673-.156-.154.452a3.056 3.056 0 0 0 1.907 3.888l40.583 13.872c.172.058.343.1.516.128l-.302.744a3.068 3.068 0 0 1-2.847 1.916" fill="#D1D4D2"/><path fill="#46478A" d="M308 256l7.648-20.852L317 235l-6.49 20.838L308 256"/><path d="M315 235l4.083-8.34c.375-.766 1.075-1.34 1.917-1.66a2.946 2.946 0 0 0-.447.74l-3.787 9.115L315 235" fill="#57639F"/><path d="M354.432 275c-.143 0-.289-.014-.432-.041l7.737-22.87L363 252l-5.97 20.782c-.39 1.362-1.457 2.218-2.598 2.218" fill="#E3E8E8"/><path d="M362.024 254l2.733-7.163c.625-1.636-.12-3.494-1.665-4.152L342 233.665l4.127-.433a16.693 16.693 0 0 0 1.526-.232l17.308 6.282c1.578.574 2.415 2.385 1.875 4.053l-3.428 10.579-1.384.086" fill="#4A4C8E"/><path d="M342.131 231l-18.652-6.812a3.416 3.416 0 0 0-2.48.05c.583-.775 1.559-1.238 2.587-1.238.338 0 .682.05 1.018.154L348 230.41c-.52.089-1.05.158-1.584.206l-4.285.385" fill="#5B69A2"/><path d="M352.33 273a3.128 3.128 0 0 1-.518-.127l-40.73-13.658c-1.611-.542-2.467-2.252-1.914-3.828l.155-.445L361 252l-8.67 21" fill="#B9BEC0"/><path d="M310 256l6.975-20.547L341.38 233l21.681 8.846c1.589.646 2.354 2.468 1.711 4.073l-2.81 7.025L310 256" fill="#414186"/><path d="M317 235l3.064-8.991c.092-.265.212-.51.362-.73a3.037 3.037 0 0 1 2.414-.055l18.16 7.374L317 235" fill="#4F5D9A"/><path d="M370.888 236.296l-8.43 30.426c-.455 1.649-2.179 2.617-3.851 2.168l-42.296-11.385c-1.673-.452-2.655-2.15-2.2-3.798l8.43-30.428c.455-1.648 2.179-2.62 3.852-2.169l42.297 11.387c1.671.45 2.655 2.148 2.198 3.799" fill="#F0F5F8"/><path d="M371.887 236.958L369.99 244 321 230.421l1.895-7.044c.462-1.718 2.208-2.732 3.903-2.262l42.861 11.88c1.694.47 2.69 2.24 2.228 3.963" fill="#51B47D"/><path fill="#FFFFFE" d="M370.38 245L321 232.166l.62-2.166L371 242.836l-.62 2.164"/><path d="M336.876 227.422a3.499 3.499 0 1 1-6.752-1.844 3.499 3.499 0 0 1 6.752 1.844M361.876 234.423a3.5 3.5 0 1 1-6.751-1.846 3.5 3.5 0 0 1 6.75 1.846" fill="#2F965F"/><path d="M332.725 230a3.01 3.01 0 0 1-.719-.086c-1.45-.355-2.306-1.7-1.909-3l1.554-5.108c.395-1.305 1.897-2.081 3.34-1.715 1.454.354 2.309 1.699 1.912 3l-1.554 5.11c-.33 1.086-1.428 1.799-2.624 1.799M359.724 237c-.237 0-.479-.027-.72-.086-1.448-.357-2.304-1.7-1.907-3.002l1.555-5.11c.396-1.302 1.887-2.075 3.344-1.713 1.45.355 2.304 1.7 1.907 3.002l-1.553 5.11c-.332 1.086-1.428 1.799-2.626 1.799" fill="#F7C056"/><path fill="#83C497" d="M327.872 243L323 241.539l1.13-4.539 4.87 1.461-1.128 4.539M359.87 254l-4.87-1.461 1.128-4.539 4.872 1.461-1.13 4.539M351.872 250L347 248.539l1.13-4.539 4.87 1.461-1.128 4.539M342.87 248l-4.87-1.46 1.13-4.54 4.87 1.46-1.13 4.54M335.872 247L331 245.539l1.128-4.539 4.872 1.461-1.128 4.539M326.869 250L322 248.541l1.131-4.541 4.869 1.459-1.131 4.541M358.872 259L354 257.54l1.13-4.54 4.87 1.46-1.128 4.54M350.87 258l-4.87-1.459 1.13-4.541 4.87 1.459-1.13 4.541M341.87 255l-4.87-1.46 1.128-4.54 4.872 1.46-1.13 4.54M333.872 254L329 252.54l1.13-4.54 4.87 1.46-1.128 4.54M322.87 258l-4.87-1.459 1.128-4.541 4.872 1.459-1.13 4.541M356.87 266l-4.87-1.459 1.13-4.541 4.87 1.459-1.13 4.541M348.87 264l-4.87-1.46 1.128-4.54 4.872 1.458-1.13 4.542M340.87 262l-4.87-1.46 1.13-4.54 4.87 1.46-1.13 4.54M332.87 259l-4.87-1.46 1.13-4.54 4.87 1.46-1.13 4.54"/><path d="M32.056 226.679l3.835 19.877a2.986 2.986 0 0 0 3.514 2.387l41.167-8.063a3.01 3.01 0 0 0 2.372-3.54l-3.835-19.877c-.317-1.645-1.885-2.727-3.517-2.407l-41.168 8.065c-1.632.32-2.685 1.913-2.368 3.558" fill="#F7C056"/><path d="M32.057 226.16l.216 1.03 23.267 8.374c2.494.897 5.321.387 7.272-1.316L81 218.37l-.212-1.015c-.33-1.576-1.968-2.607-3.66-2.3l-42.615 7.716c-1.684.304-2.782 1.822-2.456 3.39" fill="#FCDFA7"/><path d="M30.14 249.93a7.5 7.5 0 1 0 14.722-2.861 7.5 7.5 0 0 0-14.723 2.86M138.728 280.404L126 293l-12.73-12.596a17.683 17.683 0 0 1 0-25.187c7.03-6.956 18.429-6.956 25.458 0a17.678 17.678 0 0 1 0 25.187" fill="#51B47D"/><path d="M129.243 272.24a6 6 0 1 1-8.485-8.483 6 6 0 0 1 8.485 8.484" fill="#289E60"/><path d="M184.276 263c-.778-5.1-1.57-10.323-2.276-14.975l13.797-1.39c.736 4.868 1.561 10.305 2.361 15.547l-13.882.818m19.804-1.17c-.833-5.47-1.677-11.01-2.402-15.787l.433-.043h13.59c.71 4.672 1.513 9.91 2.299 15.014l-13.92.816" fill="#3F4286"/><path d="M182.29 250c-.1-.668-.195-1.327-.29-1.968h13.245l.091.617L182.289 250m18.609-1.927l-.006-.041h.415l-.41.041m12.566-166.479h-30.614c.016-.458.06-.905.102-1.351-.11-.606-.2-1.174-.236-1.647-.182-2.328-.091-4.808 1.272-6.681-2.345-2.234-1.836-7.306 3.455-8.915 0 0 .034 2.275 4.012 2.275 1.818-.002 4.46-.475 8.296-1.859a6.774 6.774 0 0 1 2.291-.39c4.671 0 9.17 4.458 7.764 6.75 4.109 1.684 4.381 5.432 4.127 8.82-.073.908-.255 1.93-.527 2.896.02.034.04.068.058.102M215 244.693h-13l12.803-.693.197.693" fill="#4B5A98"/><path d="M201.158 245h-.43c-.52-3.359-.976-6.321-1.318-8.575-.237-1.576-.47-3.47-.69-5.586l13.592-.788c.18 1.642.364 3.113.553 4.348.366 2.413.863 5.644 1.429 9.3L201.158 245m-6.292 0H181.12a5741.82 5741.82 0 0 1-1.315-8.575c-.196-1.289-.387-2.794-.572-4.458l13.583-.786c.14 1.191.281 2.272.425 3.218.411 2.698.981 6.411 1.626 10.601m-15.853-15.105a340.812 340.812 0 0 1-.645-7.263l2.84-.165-.259-4.413-2.911.168a927.096 927.096 0 0 1-.942-15.116l13.577-.786c.478 8.804 1.146 19.347 1.916 26.79l-13.576.785m19.5-1.13c-.763-7.955-1.409-18.313-1.865-26.79l13.58-.786c.461 8.59 1.114 19.103 1.871 26.789l-13.587.788m-21.527-27.737c-.14-2.625-.26-5.047-.359-7.132l13.577-.786c.1 2.079.22 4.501.359 7.13l-13.577.788m19.553-1.133c-.14-2.668-.258-5.094-.354-7.132l13.577-.786c.096 2.026.215 4.456.355 7.132l-13.578.786m-20.01-8.078c-.11-2.396-.183-4.133-.215-4.91-.755-10.902-.283-21.672-.283-21.672l.013-.29 33.897-1.962c.023.8.059 1.552.113 2.252 1.869 10.132.397 16.868-.66 19.983.038.244.092.47.092.713.006.071.067 1.548.178 3.967l-13.576.786c-.068-1.533-.119-2.713-.149-3.44h-6c.037.884.094 2.179.17 3.787l-13.58.786m-.39-28.963c.04-.894.092-2.016.156-3.323-1.113.881-2.453 1.745-3.925 2.251a4.045 4.045 0 0 1-5.152-2.477 4.024 4.024 0 0 1 .204-3.096l50.33-2.915c-.495.461-1.002.932-1.527 1.414l.151.075a3.993 3.993 0 0 1 2.491 5.104c-.058.175-.13.343-.21.505l-7.86.454a16.362 16.362 0 0 1-.875-.64l-.003.69-33.78 1.958m-5.926-8.892c.281-.158.581-.364.874-.586-.799-1.54-1.6-3.122-2.378-4.71l41.94.68h.055c1.77 0 3.219-1.413 3.25-3.179l.007-.45a201.77 201.77 0 0 0 6.391-6.408l.557 9.52a2.2 2.2 0 0 1-2.07 2.316l-48.626 2.817m52.589-8.613l-.478-8.175c1.674-1.87 2.874-3.382 3.336-4.288-.579-2.388-5.183-9.9-10.492-17.664l1.56-.09a4.277 4.277 0 0 0 2.96-1.426 4.225 4.225 0 0 0 1.08-3.09l-.099-1.685c4.246 6.068 8.864 13.153 11.332 18.457-2.86 4.367-7.543 12.065-9.2 17.961m-9.376-23.931a3.243 3.243 0 0 0-2.302-1.002l-32.205-.522c.074-.786.15-1.559.226-2.319a286.88 286.88 0 0 0-1.743 2.295l-9.871-.16c.41-.594.836-1.195 1.27-1.803l45.49-2.634a545.215 545.215 0 0 0-.865 6.145m-43.033-5.69c3.791-5.107 8.007-10.237 10.564-13.276.283-.338.604-.6.962-.826a3.362 3.362 0 0 1 2.642-1.276h9.738c.358-1.313.49-3.209.452-5.085a15.226 15.226 0 0 1-10.646-7.228l29.185-1.69a5.377 5.377 0 0 1-.65.643c-.4.336-.858.483-1.315.483a2.31 2.31 0 0 1-.685-.107 15.031 15.031 0 0 1-6.359 6.36c.094 1.914.076 4.279-.264 6.624h8.7a3.35 3.35 0 0 1 2.962 1.764c.189.169.34.338.49.544.695.946 1.44 1.968 2.214 3.05l.296 5.03a2.174 2.174 0 0 1-.554 1.583c-.391.437-.929.696-1.518.73l-46.214 2.678m12.702-29.72a14.931 14.931 0 0 1-1.1-5.642c0-.124.004-.246.007-.368h31.775c.494.822.807 1.78.807 2.826 0 .473-.06.932-.173 1.37l-31.316 1.814" fill="#5271A9"/><path d="M169 119c.52-.729 1.052-1.46 1.593-2.197l46.236-2.7a2.18 2.18 0 0 0 1.518-.737c.393-.44.587-1.008.555-1.597l-.296-5.073a297.9 297.9 0 0 1 2.288 3.251l.098 1.7a4.282 4.282 0 0 1-1.08 3.116 4.266 4.266 0 0 1-2.962 1.438l-1.56.091c-.237-.35-.475-.702-.717-1.052l-.16 1.103L169 119m15.311-30.124a15.353 15.353 0 0 1-1.01-2.046l31.33-1.83a5.49 5.49 0 0 1-1.12 2.17l-29.2 1.706M167 158a4.092 4.092 0 0 1 2.29-2.13c.15-.05.313-.131.482-.232l48.292-2.959c1.204-.075 2.126-1.165 2.056-2.433l-.553-10.003c.705-.788 1.361-1.54 1.959-2.243l.474 8.59a18.83 18.83 0 0 0-.515 2.598c-.057.433-.094.867-.113 1.3a240.822 240.822 0 0 1-4.387 4.448L167 158" fill="#7A91BC"/><path d="M210.732 150h-.055l-42.085-.688c-3.867-7.955-7.144-15.997-6.514-19.412.392-2.154 2.541-5.835 5.33-9.9l9.906.161a183.773 183.773 0 0 0-3.53 4.882l-2.531-.042-.065 4.023c-.558.948-.94 1.708-1.1 2.225.06.7.424 1.922 1.007 3.493l-.09 5.58 2.416.04c1.02 2.295 2.198 4.8 3.427 7.298.134-2.312.284-4.745.443-7.235l8.987.148.25-15.321-8.127-.133c.14-1.681.284-3.33.435-4.933l32.316.528c.91.013 1.727.401 2.31 1.015-1.202 8.935-2.374 19.129-3.022 27.982a274.72 274.72 0 0 0 3.56-3.385l-.008.456a3.268 3.268 0 0 1-3.26 3.218m-21.703-24.708l-.248 15.32 15.274.252.25-15.323-15.276-.25" fill="#A4AFBF"/><path d="M176.588 195l-.099-2.11 13.703-.798c.028.654.063 1.36.097 2.11l-13.7.798m19.734-1.15c-.034-.758-.066-1.466-.097-2.11l13.699-.798.099 2.11-13.7.798M176 165.62c.015-.375.048-1.102.095-2.123l34.087-1.986c-.002.737.005 1.444.023 2.118L176 165.62m39.365-2.391a3.64 3.64 0 0 1-1.333-.229c-1.063-.367-2.072-.925-2.965-1.54L219 161c-.691 1.39-2.117 2.23-3.635 2.23M179.29 231c-.075-.649-.15-1.321-.223-2.017l13.834-.766c.077.702.154 1.376.23 2.017l-13.84.766m19.858-1.098c-.071-.654-.142-1.327-.212-2.02l13.846-.767c.07.7.144 1.372.217 2.02l-13.851.767m-22.036-27.01L177 200.87l13.836-.767c.036.663.073 1.34.113 2.025l-13.836.765m19.924-1.102c-.038-.688-.077-1.365-.111-2.024l13.836-.766c.036.66.073 1.336.113 2.025l-13.838.765" fill="#7A91BC"/><path d="M184.758 141l-8.683-.143c.31-4.843.667-9.919 1.072-14.744l7.853.129-.242 14.758m-12.423-.203l-2.335-.039.088-5.375c.563 1.52 1.341 3.381 2.247 5.414m-2.158-10.922l.063-3.875 2.446.04c-1.025 1.471-1.883 2.776-2.509 3.835M203.758 141L189 140.758l.24-14.758 14.76.24-.242 14.76" fill="#729ABC"/><path d="M177.208 225c-.071-1.574-.141-3.184-.208-4.816l1.837-.184.163 4.82-1.792.18" fill="#527FB4"/><path d="M233 261c1.128-5.406 2.223-10.806 3.081-15.362a9.399 9.399 0 0 0 2.16-2.117l8.463-.861c-.815 4.767-2.068 11.168-3.409 17.73L233 261m17.11-1.01c1.001-6.562 1.98-13.033 2.71-17.953L263 241c-.689 4.623-1.687 11.355-2.744 18.38l-10.147.61" fill="#3F4286"/><path d="M237.993 242a9.183 9.183 0 0 0 1.879-5.575v-113.52h3.065a38.12 38.12 0 0 1 .21-5.067 15.22 15.22 0 0 1-3.275-1.639V89.367c0-3.897-2.43-7.235-5.872-8.613A14.282 14.282 0 0 1 240.8 79c2.748 0 5.438.848 7.49 2.692 1.467 1.318 2.267 2.505 2.667 3.673.59.15 1.162.301 1.753.508 15.774 5.557 11.373 17.556 11.373 17.556 0 8.306-6.667 15.05-14.993 15.35a35.979 35.979 0 0 0-.133 4.126h10.82c.401 0 .782.075 1.144.188.838 0 1.676.32 2.286.98.663.723 3.62 4.012 6.784 8.17l-.556 9.668c-1.29-2.046-2.837-4.22-4.437-6.31 1.452 9.996 2.513 22.723 3.061 30.222l-.243 4.251c-.214 3.732 2.67 6.928 6.446 7.14l1.351.076c.423.752.52 1.677.187 2.538a3.022 3.022 0 0 1-2.8 1.883c-.382 0-.744-.056-1.106-.207-.266-.094-1.848-.734-3.6-1.752-.343 12.922-1.181 38.332-2.21 42.72h-.953c-.457 6.179-1.01 11.83-1.581 15.616l-.221 1.42-10.417 1.025c.225-1.464.427-2.788.598-3.933.515-3.41 1.01-8.495 1.429-14.127h-6.458c-.305 6.159-.724 11.81-1.315 15.615a148.82 148.82 0 0 1-.512 3.06l-8.66.852M236 243c.116-.313.226-.618.331-.914L238 242a8.647 8.647 0 0 1-2 1" fill="#4B5A98"/><path d="M235.373 242c.395-2.145.72-4.047.954-5.6.5-3.403.87-8.507 1.167-14.178h-.538s-5.31-25.198-2.042-41.53a17.21 17.21 0 0 1-.965.416 2.727 2.727 0 0 1-1.077.208 2.928 2.928 0 0 1-2.73-1.89c-.593-1.532.15-3.27 1.653-3.875.316-.114.854-.36 1.467-.681-4.322-4.227-11.809-12.99-12.262-23.489.583-.786.906-1.78.845-2.839l-.195-3.384c1.63-5.939 6.236-13.695 9.05-18.093a122.88 122.88 0 0 1 2.19-3.308l.13-.17.13-.152.242-.246a3.291 3.291 0 0 1 2.246-.888H239v113.922c0 2.1-.681 4.038-1.83 5.596l-1.797.181m-1.703-108.508c-2.989 4.99-6.256 11.209-6.72 14.895-1.244 10.264 7.667 19.678 11.361 23.08.761-11.53-2.246-25.67-4.64-37.975m-5.05-15.577s2.58-4.026 3.397-8.43l-.446-.265a5.01 5.01 0 0 1-.575-6.937c-2.636-5.18-5.42-7.94-3.249-15.52.86-2.982 2.946-5.302 5.53-6.763 3.355 1.384 5.722 4.733 5.722 8.644v26.928c-.306-.21-.603-.43-.893-.662-4.585 2.665-9.486 3.005-9.486 3.005" fill="#5271A9"/><path d="M221.01 152c-.017-.79-.013-1.587.016-2.395a29.014 29.014 0 0 1 .335-3.605l.105 3.262c.033 1.021-.141 1.98-.455 2.738" fill="#7A91BC"/><path d="M276.369 178l-1.448-.077c-4.047-.21-7.138-3.404-6.91-7.131l.262-4.247c.1 1.262.184 2.376.251 3.302 2.675-4.497 5.88-11.816 4.798-19.888-.238-1.803-1.633-4.428-3.575-7.3l.597-9.659c4.212 5.157 8.767 11.649 9.39 16.225 1.571 11.76-4.186 21.826-7.392 26.38 1 .527 1.96.922 2.39 1.072a3.167 3.167 0 0 1 1.637 1.323" fill="#416EA6"/><path d="M150.96 313h126.081c1.635 0 2.959-1.344 2.959-3.001 0-1.655-1.324-2.999-2.959-2.999h-126.08c-1.637 0-2.961 1.344-2.961 2.999 0 1.657 1.324 3.001 2.96 3.001" fill="#E0E0DB"/><path fill="#D3DAE2" d="M207 301l-1.5-12.145L200 288l2.648 12.71L207 301"/><path d="M202.231 299.733c-.393.05-.766.183-1.063.41-2.078 1.577-4.457 3.627-8.196 4.542-3.392.829-2.044 2.315 1.285 2.315 4.891 0 6.847-.175 9.025-.123 2.18.05.766.123 6.13.123 2.46 0 1.647-4.389.342-7.03-.358-.724-1.051-1.064-1.946-.948l-5.577.711" fill="#51B47D"/><path fill="#D3DAE2" d="M182 301l-1.5-12.145L175 288l2.65 12.71 4.35.29"/><path d="M176.494 299.732c-.374.05-.727.182-1.01.409-1.979 1.577-7.99 4.399-11.075 4.826-3.308.459-3.477 2.033 1.177 2.033 4.652 0 8.064-.4 10.138-.347 2.076.05 1.537.347 6.639.347 3.914 0 2.689-4.8 1.288-7.032-.426-.68-1-1.064-1.851-.947l-5.306.71" fill="#51B47D"/><path d="M176.29 54.04c3.44-.64 9.867 6.532 1.86 17.163-5.697 7.56-8.736-2.137-9.067-6.38-.35-4.454.115-9.462 7.208-10.783" fill="#2DA567"/><path d="M173.985 93.06c-1.956-1.615-4.87-1.356-6.504.582-6.053 7.17-20.256 24.514-21.401 30.706-.939 5.078 6.573 18.985 13.027 29.652l5.716-3.424c-7.428-10.55-7.787-20.234-9.614-24.725 1.073-3.39 11.339-14.437 19.918-24.601 1.633-1.935.818-6.574-1.142-8.19" fill="#454B8D"/><path d="M155.675 160.663c-2.106-.774-3.265-1.785-4.006-3.603-2.095-5.123 1.192-3.725 3.553-4.538 1.17-.403 2.85-3.094 3.506-3.86 1.618-1.886 4.043-2.255 5.947-.65 1.898 1.607 1.465 4.034.509 6.322-.545 1.302-1.59 4.013-5.126 5.93-1.56.847-2.51.94-4.383.399M192 86.1c0 3.879-.51 8.635-2.518 12.01-2.588 4.328-3.099 5.223-3.152 5.316-.95 1.66-2.606 2.574-4.314 2.574-.88 0-1.76-.242-2.57-.746-2.377-1.51-3.152-4.756-1.744-7.293 0 0 .405-.727 3.276-5.539.493-.82.757-2.369.88-4.14.158-2.406.035-5.223-.247-7.181-.422-2.891 1.48-5.614 4.226-6.043 2.73-.429 5.3 1.567 5.705 4.476.141.895.458 3.47.458 6.565" fill="#F0A880"/><path d="M206.943 94.467c-2.66 15.379-7.848 53.995-6.72 69.533H162s2.304-57.23 5.926-71.173a3.774 3.774 0 0 1 3.65-2.827h31.64c2.348 0 4.13 2.134 3.727 4.467" fill="#454B8D"/><path d="M198.36 189s4.61-8.577 1.647-25h-37.843s-.536 12.5.331 25h35.866" fill="#252334"/><path d="M203.604 242.422c-2.098-14.043-1.514-55.75-2.368-60.542-.744-4.161-7.15-3.957-11.306-3.83-4.18.17-8.094 5.78-7.925 10.006.067 1.698 4.994 41.707 7.213 56.575 1.602 10.714 8.607 38.827 11.183 51.369l9.599-1.105c-1.923-12.57-4.8-41.77-6.396-52.473M180.86 243.826c-1.136-14.52-1.642-55.556-1.659-55.967-.169-4.263-5.797-6.982-9.947-6.855-4.173.173-7.417 3.771-7.248 8.035.067 1.714 1.687 42.09 3.901 57.095 1.599 10.812 5.46 40.142 8.485 52.866l8.608-1.111c-1.917-12.684-1.29-43.174-2.14-54.063" fill="#252334"/><path d="M206.993 93.895a4.577 4.577 0 0 0-6.414-1.009c-2.047 1.502-2.68 5.608-1.186 7.667 8.237 11.35 16.799 24.727 17.682 28.4-8.18 6.629-4.299 11.048-20.075 21.846l4.065 5.201c22.358-18.917 25.89-25.2 25.933-26.859.173-6.446-12.46-24.849-20.005-35.246" fill="#454B8D"/><path d="M195 86.57c-2.73 1.555-5.906 2.43-9.303 2.43-.789 0-1.578-.039-2.346-.156.182-2.507.04-5.443-.283-7.484-.486-3.014 1.698-5.852 4.853-6.3 3.135-.447 6.088 1.634 6.553 4.666.162.934.526 3.617.526 6.844" fill="#E1855E"/><path d="M169 68.92c0 9.744 7.057 18.08 16.643 18.08C193.808 87 203 78.388 203 68.642 203 58.901 195.231 51 185.643 51 176.057 51 169 59.177 169 68.92M205.182 161c-1.146.013-2.103-.386-3.505-1.285-1.904-1.22-3.346-2.376-4.782-4.406-1.422-2.005-1.124-4.625.712-6.236 1.833-1.61 4.588-1.382 6.15.508.765.917 2.073 2.967 3.172 3.285 3.477 1.008 4.9 2.043 3.591 4.128-1.129 1.797-3.575 3.985-5.338 4.006" fill="#F0A880"/><path d="M196.702 54.034c-3.443-.63-10.522 7.496-.698 16.231 5.394 4.796 7.581-1.433 7.913-5.61.35-4.388-.116-9.32-7.215-10.62" fill="#51B47D"/><path d="M188.953 47.483c6.63-2.354 14.615 5.116 11.252 7.864-1.481 1.21-1.411 1.027-5.175 2.172-3.764 1.147-19.525 2.414-23.408.483-3.88-1.931-3.9-8.95 2.981-11.002 0 0 .08 5.551 14.35.483" fill="#51B47D"/><path d="M204 71c0 1.792-.828 3.397-2.128 4.47-1.525 1.259-3.872.125-3.872-1.824v-5.293c0-1.946 2.347-3.082 3.872-1.824 1.3 1.073 2.128 2.679 2.128 4.47" fill="#F0A880"/><path d="M191 112.924l-8.363-9.37a1.643 1.643 0 0 0-2.347-.116L170 112.924h4.362l-.791 8.237c-.097.984.67 1.839 1.647 1.839h8.95c.853 0 1.568-.657 1.648-1.516l.824-8.56H191" fill="#F0F5F8"/><path d="M179.152 90c-.854 3.553 1.96 5.648 6.888 4.82 3.442-.58 7.136-2.44 9.96-4.82h-16.848" fill="#F0A880"/><path d="M206.048 298c-.068-.429-6.889-43.071-7.937-56.806-1.105-14.437-3.111-50.952-3.111-56.623V164h.964v20.57c0 5.66 2.004 42.128 3.107 56.554 1.046 13.697 7.86 56.3 7.929 56.729l-.952.147M181 189h.5v-25h-.5zM181 184c-2.758 0-5-2.066-5-4.608V164h1v15.392c0 2.033 1.794 3.686 4 3.686V184" fill="#3E3A57"/><path d="M258.617 68.996c-6.877-6.044-20.01-2.467-22.704 6.463-2.697 8.93 1.132 11.83 4.369 18.316 3.235 6.488-3.355 16.225-3.355 16.225s20.283-1.341 20.266-18.658c-.012-10.79 9.797-14.992 1.424-22.346" fill="#3E4287"/><path d="M263.24 133.52a3.92 3.92 0 0 1-1.846.48c-1.237 0-2.433-.572-3.102-1.605-.04-.055-.609-.903-3.711-5.367-2.515-3.652-2.738-9.37-2.515-13.224.122-2.066.345-3.597.426-4.003.304-1.807 2.15-3.025 4.096-2.766 1.988.276 3.346 1.936 3.042 3.725a31.404 31.404 0 0 0-.385 4.538c-.081 3.117.243 6.492 1.46 8.226 3.305 4.777 3.792 5.496 3.792 5.496 1.014 1.568.446 3.578-1.257 4.5M262 189.81c-.02 1.34-.615 25.562-1.73 43.616-.02.189-.02.377-.04.566-.345 5.075-1 9.999-1.518 13.281-2.289 14.885-13.193 55.01-13.597 56.727l-4.115-.32c.115-.416.462-40.824 5.23-58.312.75-2.736.808-6.66 1.078-11.036.019-.208.019-.415.038-.623 1.135-17.827 1.23-43.748 1.25-44.068 0-3.113 2.577-5.641 5.77-5.641h.019c3.192 0 7.615 2.698 7.615 5.81M278.995 189.861c-.055 1.315-1.03 25.585-2.481 43.468l-.018.169c-.423 5.24-.883 9.918-1.379 13.299-1.69 11.44-10.31 44.369-12.11 56.203l-4.007-.864c0-33.793 3.05-47.769 4.999-55.771.68-2.78.386-8.171.257-12.698l-.018-.451c-.515-18.785.294-33.662.183-42.772.13-3.118 6.175-6.5 9.281-6.443 3.05.131 5.422 2.742 5.293 5.86" fill="#F0A880"/><path d="M258.96 110.625a31.685 31.685 0 0 0-.354 4.375c-2.351-.053-4.59-.551-6.606-1.44.112-1.992.317-3.468.392-3.86.28-1.742 1.978-2.916 3.77-2.667 1.828.267 3.079 1.867 2.799 3.592" fill="#E1855E"/><path d="M273.83 94.318c-1.49 9.54-6.315 18.682-15.623 18.682S242 104.481 242 94.918C242 85.353 248.393 77 257.701 77s17.601 7.873 16.128 17.318M288.849 175.393c-1.703-.508-3.052.472-5.1-1.984 6.302-10.252 11.617-15.804 9.937-28.976-1.183-9.268-16.018-25.51-17.707-27.331-1.268-1.368-3.435-1.476-4.843-.247a3.266 3.266 0 0 0-.257 4.705c5.818 6.282 15.306 18.267 15.997 23.69 1.882 14.762-8.405 27.341-8.503 27.46l-.135.197-.196.292-.139.284-.129.313-.077.307-.062.32-.015.312.002.325.044.305.066.326.104.288.133.31.16.268.198.288.214.232.179.195.133.106.017.019.012.006c2.7 2.32 5.05 3.199 5.49 3.365.412.157.836.232 1.254.232 1.368 0 3.934-1.173 4.465-2.484.692-1.716.567-2.58-1.242-3.123" fill="#F0A880"/><path d="M261 189.888c-.018 1.357-.586 25.901-1.65 44.194-.018.192-.018.383-.036.574L247 235c.018-.21.018-.42.037-.63 1.08-18.065 1.172-44.33 1.19-44.654 0-3.155 2.456-5.716 5.498-5.716h.018c3.042 0 7.257 2.734 7.257 5.888M278.995 189.9c-.055 1.325-1.034 25.757-2.492 43.76l-12.31.34-.02-.454c-.516-18.91.296-33.887.185-43.059.13-3.14 6.202-6.543 9.321-6.486 3.064.132 5.445 2.76 5.316 5.9" fill="#E1855E"/><path d="M245.569 230s-8.983-41.929 1.555-57H280s-1.132 50.254-2.714 57H245.57" fill="#51B47D"/><path d="M279.359 169.136c.091 1.195.128 1.864.128 1.864h-31.803l.11-1.864c0-.185.018-.371.018-.56.074-2.256.019-4.586-.128-6.971-.018-.242-.018-.487-.036-.746-.055-.876-.11-1.771-.202-2.666-.018-.263-.055-.503-.073-.764a150.29 150.29 0 0 0-.825-6.75c-.018-.207-.055-.41-.091-.615a147.19 147.19 0 0 0-.422-2.797c-.018-.17-.055-.317-.091-.486a227.131 227.131 0 0 0-1.228-7.046l-.018-.058c-.201-1.042-.385-2.105-.586-3.151l-.037-.203c-.44-2.24-.86-4.458-1.3-6.6-.055-.317-.129-.618-.184-.914-.128-.71-.274-1.417-.403-2.109-.073-.429-.165-.874-.238-1.303-.33-1.697-.623-3.337-.897-4.94l-.037-.337c-.073-.82.11-1.603.494-2.256a3.729 3.729 0 0 1 3.225-1.864h25.3c1.336 0 2.564.727 3.205 1.864.183.28.311.616.403.95.11.466.238.952.33 1.456.293 1.267.586 2.701.86 4.25a6.827 6.827 0 0 1 1.778.877c.623.408 1.19.932 1.667 1.51.476.56.861 1.212 1.136 1.902.165.373.293.762.384 1.154a7.93 7.93 0 0 1 .202 1.753c0 1.735-.568 3.339-1.539 4.607l-.22.26a6.783 6.783 0 0 1-1.539 1.455c.055.522.129 1.063.165 1.602l.019.095c.256 2.293.494 4.624.714 6.917l.055.615c.092.895.165 1.771.238 2.627.019.263.055.524.074.785.183 2.256.384 4.438.53 6.488.037.355.074.688.092 1.026.055.82.129 1.602.165 2.35.037.353.074.708.092 1.062.201 2.647.348 4.866.44 6.488.036.392.054.726.073 1.043" fill="#252334"/><path d="M280 168.526a463.6 463.6 0 0 0-31.833.474c.074-2.205.018-4.482-.13-6.814-.018-.237-.018-.474-.037-.729a441.919 441.919 0 0 1 31.463-.31c.037.346.074.693.092 1.039.204 2.587.352 4.755.445 6.34M279 158.73a417.661 417.661 0 0 0-31.085.27c-.22-2.295-.494-4.628-.824-6.981-.018-.212-.054-.424-.091-.636a426.061 426.061 0 0 1 31.396-.174c.019.27.055.54.073.81.183 2.333.385 4.59.531 6.711M279 146.877a494.061 494.061 0 0 0-32.713.123c-.378-2.22-.814-4.457-1.268-6.658l-.019-.053a510.187 510.187 0 0 1 33.243-.035l.019.088c.265 2.166.51 4.368.738 6.535M281 132.216c0 1.705-.58 3.28-1.57 4.527l-.225.257a480.007 480.007 0 0 0-34.84-.055l-.037-.202c-.45-2.2-.88-4.38-1.328-6.488 12.586-.404 25.19-.33 37.794.238.131.55.206 1.136.206 1.723M279 127a476.19 476.19 0 0 0-36.804-.205c-.075-.427-.168-.874-.243-1.301a219.663 219.663 0 0 1-.916-4.929l-.037-.335a470.959 470.959 0 0 1 33.61.15c.299 1.264.597 2.696.878 4.24a7.088 7.088 0 0 1 1.812.874c.635.409 1.214.93 1.7 1.506" fill="#29283C"/><path d="M250.672 177.175l.16-.423.068-.202.07-.423.03-.217-.013-.444-.01-.2-.098-.433-.05-.201-.157-.361-.115-.247-.192-.271-.206-.28-.03-.041-.233-.21-.194-.184c-.166-.13-15.118-12.976-14.86-27.695.113-6.428 9.172-19.499 12.335-24.017a3.387 3.387 0 0 0-.822-4.71 3.365 3.365 0 0 0-4.698.822c-1.263 1.802-12.373 17.874-13.512 27.073-1.691 13.71 11.843 24.746 17.409 30.092-2.24 2.137-3.804 1.307-5.143 1.507-1.843.275-1.968 1.623-1.565 3.449.28 1.268.656 1.89 1.144 2.543 1.11 1.483 2.93.73 3.315.524 1.588-.845 3.776-1.924 6.43-4.27l.02-.019.154-.129.303-.338.087-.089.019-.029.26-.417.094-.16" fill="#F0A880"/><path d="M249.333 86.1c6.894 3.936 23.106 2.893 26.043 7.9 0 0 4.856-13.322-12.535-19.495-15.966-5.67-23.099 6.118-13.508 11.594" fill="#454B8D"/><path d="M251.452 79.647C256.132 81.26 249.405 96 241.9 96c-3.242 0-3.646-20.9 9.552-16.353" fill="#454B8D"/><path d="M240 99c0 1.792.827 3.397 2.128 4.47 1.526 1.26 3.872.123 3.872-1.824v-5.291c0-1.95-2.346-3.083-3.872-1.826-1.301 1.073-2.128 2.678-2.128 4.472" fill="#F0A880"/><path fill="#33AC6E" d="M251.818 225l-.818-.46L275.182 180l.818.46L251.818 225M264.89 223l-.89-.3 13.112-37.7.888.3-13.11 37.7"/><path d="M249 116l.27.366c.875 1.183 2.007 2.293 3.366 3.312 2.805 2.08 6.083 3.322 8.77 3.322 1.524 0 2.75-.408 3.57-1.181 1.378-1.304 1.364-3.466-.032-5.819H249" fill="#FFFFFE"/><path d="M249 116c.73 1.032 1.717 2.056 2.926 2.995 3.831 2.967 8.44 3.897 10.297 2.066 1.153-1.136.98-3.057-.238-5.061H249" fill="#F0A880"/><path d="M246.14 302.549c.272.037.533.138.742.307 1.455 1.183 3.12 2.721 5.736 3.408 2.376.62 1.432 1.736-.897 1.736-3.424 0-4.792-.131-6.319-.092-1.526.038-.537.092-4.29.092-1.721 0-1.154-3.292-.24-5.272.25-.543.735-.8 1.36-.71l3.907.531M263.288 302.548c.275.037.538.138.746.306 1.463 1.184 5.907 3.3 8.186 3.622 2.444.344 2.569 1.524-.87 1.524-3.44 0-5.962-.3-7.494-.262-1.533.04-1.136.262-4.905.262-2.895 0-1.99-3.6-.954-5.273.316-.512.74-.8 1.37-.711l3.921.532" fill="#29283C"/></g></svg>
