<svg width="301" height="301" xmlns="http://www.w3.org/2000/svg" xmlns:xlink="http://www.w3.org/1999/xlink"><defs><path id="a" d="M0 0h301v301H0z"/></defs><g fill="none" fill-rule="evenodd"><mask id="b" fill="#fff"><use xlink:href="#a"/></mask><use fill="#F1F1F1" fill-rule="nonzero" xlink:href="#a"/><g mask="url(#b)"><path d="M90.183 31A241.545 241.545 0 0 0 85 28.202C85.152 26.403 86.432 25 87.991 25 89.652 25 91 26.593 91 28.56c0 .945-.31 1.803-.817 2.44" fill="#B9DCC5"/><path d="M88.47 30c-1.917 0-3.47-.813-3.47-1.817 0-.06.006-.122.019-.183 2.007.465 3.999.94 5.981 1.428-.633.352-1.532.572-2.53.572" fill="#B3DAC6"/><path d="M76.5 42c-.773 0-1.397-.694-1.397-1.55v-1.897h-1.706c-.773 0-1.397-.694-1.397-1.551 0-.859.624-1.553 1.397-1.553h1.706v-1.896c0-.86.624-1.553 1.397-1.553s1.396.694 1.396 1.553v1.896h1.708c.77 0 1.396.694 1.396 1.553 0 .857-.626 1.55-1.396 1.55h-1.708v1.897c0 .857-.623 1.551-1.396 1.551" fill="#B3DDDD"/><path d="M234.982 265.472c.343 5.86-4.135 10.885-10.002 11.227L112.6 283.232l-10.27.603-6.898.395-10.422.602-16.49.96-13.643.789-5.804.34-13.607.79-107.781 6.27c-5.868.343-10.898-4.129-11.241-9.988L-95 87.54 223.522 69l11.46 196.472" fill="#4F5090"/><path d="M-81.091 284c-.036-.269-.064-.54-.08-.817l-5.315-90.938a46.103 46.103 0 0 0 7.633 11.088l-4.342 4.855-1.014-.876-1.317 1.353 1.027 17.557 9.107-11.103-1.016-.897 4.367-4.857a46.698 46.698 0 0 0 9.331 5.253l.344 5.861a4.233 4.233 0 0 0 1.432 2.947 4.27 4.27 0 0 0 2.851 1.081l.257-.007 1.757-.102v7.16l-1.338.076a4.281 4.281 0 0 0-2.963 1.426 4.228 4.228 0 0 0-1.08 3.093l1.314 22.451a4.243 4.243 0 0 0 1.434 2.947 4.27 4.27 0 0 0 2.736 1.08c.678 4.454 4.539 7.868 9.203 7.868h82.238l.3 1.953-115.974 11.482c-.298.03-.596.051-.892.066m130.407-12.889c-.032-.204-.064-.409-.094-.612h5.86l.007.041-5.773.571m52.193-5.166c.196-1.114.366-2.137.508-3.052.585-3.793 1-9.427 1.302-15.568h6.397c-.416 5.615-.906 10.686-1.416 14.085-.17 1.142-.37 2.462-.592 3.92l-6.199.615m16.517-1.636l.219-1.416c.566-3.774 1.113-9.408 1.566-15.568h.944c1.019-4.376 1.849-29.71 2.189-42.593 1.736 1.014 3.302 1.653 3.566 1.747.359.15.717.206 1.094.206a2.994 2.994 0 0 0 2.774-1.878 2.98 2.98 0 0 0-.185-2.53l83.791 4.743 2.925 29.257c.944 9.44-5.557 17.91-14.753 19.634l-23.523-8.027a3.155 3.155 0 0 0-3.623 1.2 3.13 3.13 0 0 0-1.602 1.674l-3.412 8.408-51.97 5.143m-174.095-3.774c-1.052-.113-1.912-.964-1.976-2.053l-1.315-22.451a2.194 2.194 0 0 1 2.074-2.316l1.217-.071v26.89m-1.982-38.111c-1.153 0-2.159-.892-2.226-2.066l-.287-4.898c1.48.537 2.98 1 4.495 1.382v5.47l-1.878.11c-.036.002-.07.002-.104.002m1.982-18.485a34.387 34.387 0 0 1-5.31-2.41l-.212-3.622a2.162 2.162 0 0 1 .555-1.583c.39-.44.93-.7 1.517-.733l3.45-.199v8.547m-7.484-3.74a34.217 34.217 0 0 1-3.791-2.912 34.096 34.096 0 0 1-5.907-6.81 40.748 40.748 0 0 0 6.962.186 40.8 40.8 0 0 0 10.22-1.915v4.556l-3.57.206a4.277 4.277 0 0 0-2.961 1.426 4.222 4.222 0 0 0-1.082 3.093l.129 2.17m186.264-9.354c-.543-7.476-1.594-20.165-3.032-30.132 1.585 2.085 3.117 4.252 4.395 6.291l-1.363 23.841m1.914-33.48a126.493 126.493 0 0 0-6.72-8.145 3.053 3.053 0 0 0-2.264-.977 3.763 3.763 0 0 0-1.132-.187H103.79a36.106 36.106 0 0 1 .133-4.113c8.246-.3 14.85-7.024 14.85-15.306 0 0 4.36-11.963-11.265-17.503a20.17 20.17 0 0 0-1.736-.507c-.396-1.164-1.189-2.347-2.642-3.662-2.032-1.838-4.697-2.683-7.42-2.683-2.319 0-4.681.614-6.734 1.748a9.338 9.338 0 0 0-3.491-.672H68.13a2.864 2.864 0 0 0-.06-.102c.282-.958.471-1.972.547-2.873.264-3.362-.02-7.08-4.284-8.751 1.459-2.275-3.21-6.697-8.057-6.697-.797 0-1.599.12-2.378.386-3.982 1.373-6.724 1.843-8.61 1.845-4.13 0-4.165-2.258-4.165-2.258-5.491 1.597-6.02 6.63-3.585 8.846-1.416 1.859-1.51 4.319-1.321 6.629.037.47.132 1.033.245 1.634-.043.443-.089.886-.106 1.34h-83.119a9.304 9.304 0 0 0-8.944 6.692 40.52 40.52 0 0 0-12.911-2.102 40.946 40.946 0 0 0-5.586.38 40.221 40.221 0 0 0-16.705 6.235L-92 97.907 129.273 76l-4.648 81.364m-26.798-9.31h-3.036v-6.685c1.004.67 2.091 1.217 3.244 1.634a38.254 38.254 0 0 0-.208 5.052M84.244 269H67.207c-.07-.25-.14-.495-.207-.738L90 267c-.118.35-.242.71-.371 1.082-1.533.58-3.386.918-5.385.918" fill="#6672A8"/><path d="M52.518 270h-5.827c-.642-4.19-1.209-7.903-1.618-10.601a98.07 98.07 0 0 1-.422-3.218l5.87-.342c.22 2.117.451 4.01.688 5.586.34 2.254.793 5.216 1.31 8.575m-19.497 0h-81.768c-4.638 0-8.477-3.411-9.15-7.862.037.002.076.002.114.002l.255-.008 88.673-5.165a114.4 114.4 0 0 0 .568 4.458c.342 2.254.794 5.218 1.308 8.575m32.985-1.3c-.563-3.657-1.057-6.888-1.42-9.301a105.51 105.51 0 0 1-.55-4.348l11.045-.644a4.278 4.278 0 0 0 4.017-4.514l-1.306-22.432a4.251 4.251 0 0 0-1.426-2.946 4.18 4.18 0 0 0-3.09-1.071l-11.424.666c-.14-2.676-.258-5.106-.353-7.132l11.364-.663a4.275 4.275 0 0 0 4.015-4.514l-1.306-22.432c-.133-2.282-2.067-4.023-4.305-4.023-.07 0-.14.002-.209.004l-.715.043c.08-.162.15-.33.209-.505.731-2.083-.376-4.39-2.477-5.104l-.15-.075c.522-.482 1.026-.953 1.518-1.414l1.2-.07a4.263 4.263 0 0 0 3.164-1.698c.458 10.421 8.025 19.12 12.393 23.316-.62.319-1.164.563-1.483.675a2.97 2.97 0 0 0-1.67 3.847 2.958 2.958 0 0 0 2.759 1.876 2.8 2.8 0 0 0 1.088-.206c.112-.038.469-.188.975-.413-3.302 16.212 2.064 41.224 2.064 41.224h.544c-.3 5.629-.675 10.695-1.18 14.072-.236 1.543-.565 3.43-.964 5.56L66.007 268.7m-123.767-8.643c-.082 0-.161-.004-.24-.013v-26.868l87.022-5.07c.259 4.764.576 10.043.936 15.116l-34.543 2.012.257 4.413 34.615-2.015c.202 2.569.416 5.027.641 7.263l-88.577 5.16c-.038.002-.075.002-.11.002m48.763-14.564l-38.002 2.214.257 4.411 38.002-2.214-.257-4.411m-15.918-6.943l-22.542 1.312.258 4.413 22.54-1.313-.256-4.412m26.73-1.557l-22.54 1.311.258 4.414 22.54-1.314-.257-4.411m42.609 17.116c-.766-7.442-1.43-17.985-1.904-26.789l5.94-.345c.454 8.477 1.096 18.835 1.854 26.79l-5.89.344m19.398-1.131c-.752-7.686-1.401-18.2-1.86-26.79l11.435-.665.131-.004c.537 0 1.05.193 1.454.553.436.389.696.925.73 1.509l1.308 22.432a2.198 2.198 0 0 1-2.06 2.317l-11.138.648M-58 231.092v-7.153l86.555-5.042c.097 2.085.217 4.507.356 7.132L-58 231.092m100.41-5.85c-.138-2.63-.256-5.052-.356-7.131l5.946-.347c.096 2.038.214 4.464.353 7.132l-5.942.345M-58 221.854v-5.465a46.563 46.563 0 0 0 14.21 1.366 46.676 46.676 0 0 0 18.701-5.12l14.13-.823-.257-4.411-6.358.371a46.403 46.403 0 0 0 4.103-3.683l20.498-1.193-.257-4.414-16.192.944a46.414 46.414 0 0 0 4.696-7.575l32.701-1.904c-.01.19-.013.289-.013.289s-.47 10.77.281 21.672c.032.777.105 2.514.214 4.91L-58 221.854m60.68-15.262l-9.483.552.255 4.411 9.485-.552-.257-4.411m39.279 9.44a898.47 898.47 0 0 1-.17-3.787h5.967c.03.727.081 1.907.149 3.44l-5.946.347m19.443-1.133c-.11-2.419-.17-3.896-.176-3.967 0-.244-.055-.469-.092-.713 1.05-3.115 2.514-9.85.657-19.983-.055-.7-.09-1.453-.113-2.252l9.501-.553.13-.004c1.15 0 2.118.9 2.187 2.062l1.306 22.432a2.197 2.197 0 0 1-2.06 2.317l-11.34.66m-110.867-9.548A34.22 34.22 0 0 1-58 203.496v-8.54l38.138-2.223a34.047 34.047 0 0 1-8.927 7.82l-20.886 1.217.21 3.58m140.769-8.885c-3.734-3.377-12.74-12.721-11.483-22.91.47-3.66 3.772-9.832 6.792-14.786 2.42 12.215 5.46 26.25 4.69 37.696M-58 192.87v-4.552a40.017 40.017 0 0 0 6.918-3.002l36.661-2.135a34.017 34.017 0 0 1-3.82 7.374L-58 192.87m54.265-3.162a45.946 45.946 0 0 0 2.448-7.293l20.69-1.205a4.045 4.045 0 0 0-.203 3.096 4.023 4.023 0 0 0 5.122 2.477c1.464-.506 2.796-1.37 3.903-2.251-.064 1.307-.115 2.43-.156 3.323l-31.804 1.853m65.39-3.81c0-.227.002-.458.004-.69.274.215.565.43.869.639l-.872.05m-109.044-2.883a40.49 40.49 0 0 0 3.983-3.183 39.349 39.349 0 0 0 6.22-7.104l24.834.404a33.97 33.97 0 0 1-1.36 7.922l-33.677 1.96m46.567-2.71a46.36 46.36 0 0 0 .818-6.971l20.685.335c.773 1.588 1.57 3.17 2.364 4.71-.29.222-.589.428-.869.586l-22.998 1.34m66.495-9.585l.344-21.209 2.944-.17.127-.004c1.15 0 2.12.9 2.188 2.064l.752 12.911a201.201 201.201 0 0 1-6.355 6.408m8.316-8.543l-.636-10.898c-.133-2.28-2.045-4.023-4.299-4.023-.07 0-.142.002-.215.005l-3.044.177a3.261 3.261 0 0 0-.654-1.017c.287-2.134.576-4.194.86-6.145l.873-.05c5.278 7.764 9.856 15.275 10.432 17.663-.46.906-1.653 2.419-3.317 4.288m9.621-9.786c-2.454-5.304-7.045-12.39-11.267-18.457l-1.208-20.747c-.133-2.28-2.05-4.023-4.296-4.023-.072 0-.145.002-.218.005l-.501.029c.113-.438.173-.897.173-1.37A5.486 5.486 0 0 0 65.49 105h17.255c1.227 0 2.398.238 3.471.672-2.611 1.45-4.72 3.752-5.589 6.713-2.195 7.525.62 10.264 3.284 15.405a4.903 4.903 0 0 0 .582 6.886l.45.263c-.826 4.372-3.434 8.369-3.434 8.369s4.953-.338 9.588-2.984c.292.231.592.449.902.657v6.68h-3.398c-.882 0-1.67.338-2.27.882l-.244.244-.131.15-.132.169c-.281.394-1.107 1.595-2.214 3.283m-52.778-7.494l-1.509-.024c.561-.75 1.14-1.518 1.734-2.295-.075.76-.152 1.533-.225 2.32m-11.324-.185l-23.182-.379 24.445-1.424c-.431.608-.855 1.209-1.263 1.803m-50.12-.895a39.476 39.476 0 0 0-.592-3.079 34.27 34.27 0 0 1 4.67 2.841l-4.078.238m20.748-1.208a47.337 47.337 0 0 0-10.107-9.53l-.04-.687-.895.05a46.682 46.682 0 0 0-5.505-3.121l29.052-1.693-.257-4.411-40.311 2.349c-.161-.03-.325-.06-.486-.088a40.74 40.74 0 0 0-7.674-7.658l82.075-4.78a15.138 15.138 0 0 0 10.585 7.227c.038 1.876-.094 3.772-.45 5.085h-9.681c-1.051 0-2.008.488-2.627 1.276a3.99 3.99 0 0 0-.957.826c-2.542 3.04-6.734 8.17-10.503 13.277l-32.22 1.878m29.826-12.545l-35.563 2.071.257 4.411 35.565-2.071-.26-4.411m50.11.645a310.39 310.39 0 0 0-2.201-3.049 3.37 3.37 0 0 0-.488-.544 3.328 3.328 0 0 0-2.946-1.764h-8.65c.338-2.345.357-4.71.263-6.624a14.988 14.988 0 0 0 6.323-6.36c.222.069.452.107.681.107.454 0 .91-.147 1.308-.483.233-.195.448-.41.645-.643l1.736-.102.128-.003c1.152 0 2.12.9 2.187 2.064l1.013 17.401m-118.918-14.814a40.29 40.29 0 0 0-8.792-4.209A9.258 9.258 0 0 1-48.746 105h82.644a11.9 11.9 0 0 0-.007.368c0 1.994.388 3.899 1.094 5.642l-83.833 4.884" fill="#7798C2"/><path d="M223 68.528L-94.51 87l-1.482-25.421a4.363 4.363 0 0 1 4.104-4.606l308.794-17.966a4.365 4.365 0 0 1 4.612 4.1L223 68.527" fill="#CFCEC9"/><path fill="#F4F4F1" d="M219 63.318L-88.426 82-89 71.682 218.422 53 219 63.318"/><path d="M66.438 112.043l-.127.004-132.178 7.584a2.18 2.18 0 0 0-1.503.719 2.11 2.11 0 0 0-.55 1.553l1.301 22.026a2.167 2.167 0 0 0 2.308 2.022l132.18-7.586a2.175 2.175 0 0 0 1.503-.717c.39-.429.582-.982.55-1.554l-1.303-22.025c-.068-1.142-1.033-2.026-2.18-2.026M-64.44 148c-2.235 0-4.118-1.724-4.25-3.952l-1.302-22.026a4.112 4.112 0 0 1 1.071-3.032 4.261 4.261 0 0 1 2.934-1.4l132.178-7.585c2.33-.116 4.363 1.635 4.5 3.945l1.301 22.024a4.125 4.125 0 0 1-1.07 3.034 4.254 4.254 0 0 1-2.934 1.4l-132.177 7.585-.25.007M69.438 150.043l-.127.004-132.178 7.584c-1.205.07-2.125 1.089-2.055 2.273l1.303 22.025a2.169 2.169 0 0 0 2.308 2.022l132.18-7.584c1.2-.07 2.12-1.089 2.051-2.274L71.62 152.07c-.068-1.142-1.034-2.026-2.18-2.026M-61.442 186c-2.236 0-4.12-1.724-4.25-3.952l-1.302-22.026c-.136-2.308 1.66-4.296 4.004-4.432l132.178-7.585c2.338-.114 4.364 1.634 4.5 3.945l1.304 22.024c.138 2.31-1.66 4.298-4.004 4.434l-132.18 7.585-.25.007" fill="#BBC6DB"/><path d="M63.341 175l-133.152-2.155A3.232 3.232 0 0 1-73 169.57l.37-22.4a3.23 3.23 0 0 1 3.29-3.17l133.153 2.156A3.228 3.228 0 0 1 67 149.431l-.365 22.4A3.233 3.233 0 0 1 63.34 175" fill="#F8F4F6"/><path d="M71.44 188.044l-.129.004-132.178 7.585a2.173 2.173 0 0 0-1.503.718c-.39.428-.584.98-.55 1.553l1.301 22.025c.07 1.186 1.124 2.078 2.31 2.024l132.178-7.584c1.202-.07 2.122-1.091 2.053-2.276l-1.301-22.024c-.07-1.14-1.035-2.025-2.18-2.025M-59.445 224c-1.043 0-2.04-.37-2.825-1.061a4.137 4.137 0 0 1-1.42-2.89l-1.303-22.025a4.116 4.116 0 0 1 1.071-3.034 4.256 4.256 0 0 1 2.934-1.399l132.178-7.586c2.317-.11 4.363 1.636 4.5 3.946l1.302 22.024c.138 2.309-1.657 4.299-4.003 4.433l-132.18 7.585-.254.007" fill="#BBC6DB"/><path d="M253.815 210c-.128 0-.259-.004-.391-.011l-19.772-1.12-5.567-95.058c6.346-2.398 12.769-4.009 19.516-4.009 4.427 0 8.993.695 13.77 2.312a46.337 46.337 0 0 1 4.356 1.727l-5.132 89.78c-.204 3.597-3.2 6.379-6.78 6.379m-25.846-98.165l-4.004-68.266c-.136-2.325-2.074-4.12-4.385-4.12-.085 0-.172.003-.26.007L130 44.634l.759-13.256c.204-3.598 3.2-6.378 6.777-6.378.13 0 .261.004.394.011l125.658 7.107c3.749.213 6.613 3.408 6.401 7.135l-4.147 72.576a48.501 48.501 0 0 0-3.862-1.496c-5.025-1.701-9.805-2.428-14.424-2.428-6.793 0-13.238 1.572-19.587 3.93" fill="#B8DFDB"/><path d="M264.884 113a46.29 46.29 0 0 0-4.37-1.746c-4.793-1.634-9.375-2.336-13.816-2.336-6.77 0-13.214 1.628-19.582 4.052l-.116-1.998c6.37-2.384 12.836-3.972 19.652-3.972 4.635 0 9.431.734 14.472 2.454 1.306.445 2.6.951 3.876 1.512l-.116 2.034" fill="#9CCED7"/><path d="M233 209l-20.261-1.163-11.856-120.4c-.817-8.309-7.04-14.758-14.8-16.14l38.836-2.286V69h.008L233 209M129 76.354l.097-1.704 40.657-2.391L129 76.354" fill="#5366A1"/><path d="M211 206l-82.622-4.74a2.957 2.957 0 0 0-1.493-1.32c-.39-.15-1.265-.544-2.177-1.07 2.922-4.542 8.169-14.585 6.736-26.318-.567-4.565-4.719-11.041-8.557-16.187l4.583-81.329 40.652-4.079L184.411 70c7.74 1.376 13.947 7.8 14.762 16.076L211 206m-89.771-12.874c-.062-.923-.138-2.035-.229-3.294L122.343 166c1.77 2.866 3.04 5.485 3.259 7.283.986 8.054-1.936 15.356-4.373 19.842" fill="#5F94C2"/><path d="M129 75l.355-6.435 89.446-5.358-.572-10.065-88.313 5.29.78-14.137 88.242-5.287c.086-.004.172-.008.256-.008 2.283 0 4.197 1.834 4.332 4.207L225 69.238v.012l-38.908 2.33-16.36.981L129 75" fill="#99CBC4"/><path fill="#AEDAD5" d="M129 68l.564-9.854L218.424 53l.576 9.789L129 68"/><path d="M73.442 226.045l-.13.004-132.179 7.584a2.183 2.183 0 0 0-1.505.717c-.39.43-.582.982-.55 1.555l1.303 22.024c.071 1.186 1.115 2.083 2.308 2.024l132.18-7.584c1.2-.07 2.123-1.09 2.053-2.275L75.62 228.07a2.129 2.129 0 0 0-.728-1.481 2.188 2.188 0 0 0-1.449-.544M-57.444 262c-1.045 0-2.04-.37-2.825-1.061a4.146 4.146 0 0 1-1.422-2.89l-1.301-22.024a4.122 4.122 0 0 1 1.07-3.034 4.26 4.26 0 0 1 2.935-1.399l132.177-7.584a4.22 4.22 0 0 1 3.08 1.052 4.15 4.15 0 0 1 1.421 2.892l1.302 22.024c.136 2.308-1.66 4.298-4.004 4.432l-132.178 7.585-.255.007" fill="#BBC6DB"/><path d="M30.937 166l-3.709-.061c-.898-2.058-1.67-3.942-2.228-5.481l.089-5.576c.62-1.072 1.471-2.393 2.487-3.882l4.424.074A797.283 797.283 0 0 0 30.937 166" fill="#AFD5E7"/><path fill="#51B47D" d="M223 157.019L222.497 241l-1.497-.015.504-83.985 1.496.019"/><path fill="#F0F5F8" d="M131 211.017L130.797 240l-1.797-.019.203-28.981 1.797.017M177 180.02l-.385 60.98-1.615-.017.383-60.983 1.617.02"/><path d="M223.834 221h-.141c-12.453-.103-18.446-13.797-24.244-27.041-5.758-13.154-11.196-25.58-22.166-25.673h-.12c-10.892 0-16.517 12.29-22.47 25.3-5.994 13.093-12.193 26.632-24.552 26.632H130l.019-2.285h.122c10.892 0 16.517-12.289 22.472-25.299C158.606 179.54 164.803 166 177.161 166l.14.002c12.453.103 18.446 13.797 24.244 27.04 5.757 13.155 11.196 25.582 22.165 25.673h.122c10.894 0 16.519-12.29 22.472-25.3 5.997-13.094 12.194-26.633 24.553-26.633H271l-.019 2.287h-.124c-10.892 0-16.515 12.289-22.472 25.297C242.392 207.463 236.193 221 223.834 221" fill="#F7C056"/><path fill="#ABD5B7" d="M195 152.978l.496-8.978L213 145.022l-.498 8.978L195 152.978M162 150.978l.498-8.978L180 143.02l-.498 8.98L162 150.978M130 149.978l.496-8.978L148 142.022l-.5 8.978-17.5-1.022"/><path d="M-44.812 206c-.993 0-1.987-.043-2.977-.128L-48 202.29l20.996-1.217A34.546 34.546 0 0 1-44.812 206m33.206-1.39a46.21 46.21 0 0 0 1.736-1.843 47.19 47.19 0 0 0 2.335-2.823L8.742 199 9 203.416l-20.606 1.195M-6.764 214L-7 208.667 1.762 208 2 213.333l-8.764.667M-26.077 130A49.396 49.396 0 0 0-38 126.31L3.734 124 4 128.336-26.077 130M-14.742 139l-.258-4.763L20.74 132l.26 4.763L-14.742 139M-20.739 245l-.261-4.625L1.74 239l.26 4.623L-20.739 245M-2.735 252L-3 247.192 32.661 245c.109 1.627.223 3.234.339 4.804L-2.735 252" fill="#80ACD0"/><path d="M186 130.785c16.234 7.374 36.072 5.139 50.27-7.224 6.86-5.97 11.456-13.479 13.73-21.526L227.85 96c-2.859 10.036-12.578 17.12-23.65 16.505a23.39 23.39 0 0 1-8.477-2.077L186 130.785M172.767 120.904c.34.376.697.735 1.053 1.096l16.697-15.656c-4.28-4.419-6.76-10.5-6.38-17.087.728-12.603 11.708-22.234 24.529-21.519 9.132.512 16.743 6.137 20.087 13.891L250 72.758a44.993 44.993 0 0 0-8.076-12.538c-17.035-18.766-46.346-20.404-65.436-3.658-19.105 16.76-20.756 45.577-3.72 64.342" fill="#2C327C"/><path d="M173 121.336A46.28 46.28 0 0 0 187.122 131L197 110.84a23.336 23.336 0 0 1-7.092-4.84L173 121.336" fill="#2C327C"/><path d="M140 58.391c2.538-.933 5.442-.189 7.336 2.147A7.89 7.89 0 0 1 149 64.4l-3.391.599c-.25-1.737-1.571-3.102-3.225-3.208-.452-.028-.89.04-1.295.19L140 58.393" fill="#F0F5F8"/><path d="M136.682 60.17l.201-.17 2.558 3.029a3.95 3.95 0 0 0-1.435 2.827c-.129 2.191 1.568 4.067 3.787 4.192a4.04 4.04 0 0 0 3.731-2.01L149 69.98a7.82 7.82 0 0 1-1.64 2.01c-3.301 2.911-8.375 2.626-11.323-.636a7.851 7.851 0 0 1 .645-11.185M148.572 66.72a4.93 4.93 0 0 0-.048-.993l4.364-.727a9.497 9.497 0 0 1-1.04 6L148 68.737a4.708 4.708 0 0 0 .572-2.017" fill="#F7C056"/><path d="M138 60.605A10.86 10.86 0 0 1 141.36 59l1.64 4.195c-.62.176-1.19.452-1.688.805L138 60.605M149 118.722c-1.403 2.68-4.376 4.447-7.709 4.265a8.271 8.271 0 0 1-4.291-1.46l2.365-3.118c1.516 1.05 3.64.989 5.091-.246.4-.34.71-.735.933-1.163l3.611 1.722" fill="#51B47D"/><path d="M146.988 115.342l-.02.26-3.72-.352a4.08 4.08 0 0 0-.942-2.994c-1.384-1.631-3.76-1.772-5.312-.317-1.104 1.036-1.49 2.606-1.121 4.012l-3.6 1.049a8.209 8.209 0 0 1-.26-2.556c.233-4.35 3.78-7.677 7.912-7.431 4.137.247 7.298 3.979 7.063 8.329" fill="#CFD4E2"/><path d="M138.283 116.776c.22.245.463.46.717.642L136.382 121a8.855 8.855 0 0 1-3.382-4.819l4.305-1.181c.177.64.503 1.247.978 1.776" fill="#F0F5F8"/><path d="M150 115.222c-.102.636-.425 1.236-.923 1.778L145 115.89c.26-.28.41-.582.463-.89l4.537.222" fill="#F7C056"/><path d="M137.28 97c-2.682-1.403-4.449-4.375-4.267-7.708a8.267 8.267 0 0 1 1.46-4.292l3.118 2.365c-1.05 1.514-.989 3.64.246 5.093.34.397.735.71 1.163.93L137.28 97" fill="#CFD4E2"/><path d="M140.493 97.988l-.235-.021.317-3.719a3.435 3.435 0 0 0 2.693-.943c1.47-1.382 1.597-3.76.287-5.31-.933-1.106-2.346-1.493-3.61-1.121l-.945-3.6a6.688 6.688 0 0 1 2.3-.262c3.915.235 6.91 3.78 6.688 7.912-.222 4.137-3.58 7.297-7.495 7.064" fill="#51B47D"/><path d="M138.222 88.28a4.63 4.63 0 0 0-.64.72L134 86.382A8.837 8.837 0 0 1 138.819 83L140 87.305c-.64.177-1.25.5-1.778.976" fill="#F7C056"/><path d="M139.778 100c-.637-.102-1.237-.423-1.778-.923L139.109 95c.28.26.583.412.891.466l-.222 4.534" fill="#F0F5F8"/><path d="M201.851 301a3.06 3.06 0 0 1-1.148-.224l-39.78-16.018a3.056 3.056 0 0 1-1.698-3.985l.25-.617 2.673-.156-.154.452a3.056 3.056 0 0 0 1.907 3.888l40.583 13.872c.172.058.343.1.516.128l-.302.744a3.068 3.068 0 0 1-2.847 1.916" fill="#D1D4D2"/><path fill="#46478A" d="M161 281l7.648-20.852L170 260l-6.49 20.838L161 281"/><path d="M168 260l4.083-8.34c.375-.766 1.075-1.34 1.917-1.66a2.946 2.946 0 0 0-.447.74l-3.787 9.115L168 260" fill="#57639F"/><path d="M207.432 300c-.143 0-.289-.014-.432-.041l7.737-22.87L216 277l-5.97 20.782c-.39 1.362-1.457 2.218-2.598 2.218" fill="#E3E8E8"/><path d="M215.024 279l2.733-7.163c.625-1.636-.12-3.494-1.665-4.152L195 258.665l4.127-.433a16.693 16.693 0 0 0 1.526-.232l17.308 6.282c1.578.574 2.415 2.385 1.875 4.053l-3.428 10.579-1.384.086" fill="#4A4C8E"/><path d="M195.131 256l-18.652-6.812a3.416 3.416 0 0 0-2.48.05c.583-.775 1.559-1.238 2.587-1.238.338 0 .682.05 1.018.154L201 255.41c-.52.089-1.05.158-1.584.206l-4.285.385" fill="#5B69A2"/><path d="M205.33 298a3.128 3.128 0 0 1-.518-.127l-40.73-13.658c-1.611-.542-2.467-2.252-1.914-3.828l.155-.445L214 277l-8.67 21" fill="#B9BEC0"/><path d="M163 281l6.975-20.547L194.38 258l21.681 8.846c1.589.646 2.354 2.468 1.711 4.073l-2.81 7.025L163 281" fill="#414186"/><path d="M170 260l3.064-8.991c.092-.265.212-.51.362-.73a3.037 3.037 0 0 1 2.414-.055l18.16 7.374L170 260" fill="#4F5D9A"/><path d="M223.888 261.296l-8.43 30.426c-.455 1.649-2.179 2.617-3.851 2.168l-42.296-11.385c-1.673-.452-2.655-2.15-2.2-3.798l8.43-30.428c.455-1.648 2.179-2.62 3.852-2.169l42.297 11.387c1.671.45 2.655 2.148 2.198 3.799" fill="#F0F5F8"/><path d="M224.887 261.958L222.99 269 174 255.421l1.895-7.044c.462-1.718 2.208-2.732 3.903-2.262l42.861 11.88c1.694.47 2.69 2.24 2.228 3.963" fill="#51B47D"/><path fill="#FFFFFE" d="M223.38 270L174 257.166l.62-2.166L224 267.836l-.62 2.164"/><path d="M189.876 252.422a3.499 3.499 0 1 1-6.752-1.844 3.499 3.499 0 0 1 6.752 1.844M214.876 259.423a3.5 3.5 0 1 1-6.751-1.846 3.5 3.5 0 0 1 6.75 1.846" fill="#2F965F"/><path d="M185.725 255a3.01 3.01 0 0 1-.719-.086c-1.45-.355-2.306-1.7-1.909-3l1.554-5.108c.395-1.305 1.897-2.081 3.34-1.715 1.454.354 2.309 1.699 1.912 3l-1.554 5.11c-.33 1.086-1.428 1.799-2.624 1.799M212.724 262c-.237 0-.479-.027-.72-.086-1.448-.357-2.304-1.7-1.907-3.002l1.555-5.11c.396-1.302 1.887-2.075 3.344-1.713 1.45.355 2.304 1.7 1.907 3.002l-1.553 5.11c-.332 1.086-1.428 1.799-2.626 1.799" fill="#F7C056"/><path fill="#83C497" d="M180.872 268L176 266.539l1.13-4.539 4.87 1.461-1.128 4.539M212.87 279l-4.87-1.461 1.128-4.539 4.872 1.461-1.13 4.539M204.872 275L200 273.539l1.13-4.539 4.87 1.461-1.128 4.539M195.87 273l-4.87-1.46 1.13-4.54 4.87 1.46-1.13 4.54M188.872 272L184 270.539l1.128-4.539 4.872 1.461-1.128 4.539M179.869 275L175 273.541l1.131-4.541 4.869 1.459-1.131 4.541M211.872 284L207 282.54l1.13-4.54 4.87 1.46-1.128 4.54M203.87 283l-4.87-1.459 1.13-4.541 4.87 1.459-1.13 4.541M194.87 280l-4.87-1.46 1.128-4.54 4.872 1.46-1.13 4.54M186.872 279L182 277.54l1.13-4.54 4.87 1.46-1.128 4.54M175.87 283l-4.87-1.459 1.128-4.541 4.872 1.459-1.13 4.541M209.87 291l-4.87-1.459 1.13-4.541 4.87 1.459-1.13 4.541M201.87 289l-4.87-1.46 1.128-4.54 4.872 1.458-1.13 4.542M193.87 287l-4.87-1.46 1.13-4.54 4.87 1.46-1.13 4.54M185.87 284l-4.87-1.46 1.13-4.54 4.87 1.46-1.13 4.54"/><path d="M37.276 288c-.778-5.1-1.57-10.323-2.276-14.975l13.797-1.39c.736 4.868 1.561 10.305 2.361 15.547L37.276 288m19.804-1.17c-.833-5.47-1.677-11.01-2.402-15.787l.433-.043h13.59c.71 4.672 1.513 9.91 2.299 15.014l-13.92.816" fill="#3F4286"/><path d="M35.29 275c-.1-.668-.195-1.327-.29-1.968h13.245l.091.617L35.289 275m18.609-1.927l-.006-.041h.415l-.41.041m12.566-166.479H35.849c.016-.458.06-.905.102-1.351-.11-.606-.2-1.174-.236-1.647-.182-2.328-.091-4.808 1.272-6.681-2.345-2.234-1.836-7.306 3.455-8.915 0 0 .034 2.275 4.012 2.275 1.818-.002 4.46-.475 8.296-1.859a6.774 6.774 0 0 1 2.291-.39c4.671 0 9.17 4.458 7.764 6.75 4.109 1.684 4.381 5.432 4.127 8.82-.073.908-.255 1.93-.527 2.896.02.034.04.068.058.102M68 269.693H55L67.803 269l.197.693" fill="#4B5A98"/><path d="M54.158 270h-.43c-.52-3.359-.976-6.321-1.318-8.575-.237-1.576-.47-3.47-.69-5.586l13.592-.788c.18 1.642.364 3.113.553 4.348.366 2.413.863 5.644 1.429 9.3L54.158 270m-6.292 0H34.12a5741.82 5741.82 0 0 1-1.315-8.575c-.196-1.289-.387-2.794-.572-4.458l13.583-.786c.14 1.191.281 2.272.425 3.218.411 2.698.981 6.411 1.626 10.601m-15.853-15.105a340.812 340.812 0 0 1-.645-7.263l2.84-.165-.259-4.413-2.911.168a927.096 927.096 0 0 1-.942-15.116l13.577-.786c.478 8.804 1.146 19.347 1.916 26.79l-13.576.785m19.5-1.13c-.763-7.955-1.409-18.313-1.865-26.79l13.58-.786c.461 8.59 1.114 19.103 1.871 26.789l-13.587.788m-21.527-27.737c-.14-2.625-.26-5.047-.359-7.132l13.577-.786c.1 2.079.22 4.501.359 7.13l-13.577.788m19.553-1.133c-.14-2.668-.258-5.094-.354-7.132l13.577-.786c.096 2.026.215 4.456.355 7.132l-13.578.786m-20.01-8.078c-.11-2.396-.183-4.133-.215-4.91-.755-10.902-.283-21.672-.283-21.672l.013-.29 33.897-1.962c.023.8.059 1.552.113 2.252 1.869 10.132.397 16.868-.66 19.983.038.244.092.47.092.713.006.071.067 1.548.178 3.967l-13.576.786c-.068-1.533-.119-2.713-.149-3.44h-6c.037.884.094 2.179.17 3.787l-13.58.786m-.39-28.963c.04-.894.092-2.016.156-3.323-1.113.881-2.453 1.745-3.925 2.251a4.045 4.045 0 0 1-5.152-2.477 4.024 4.024 0 0 1 .204-3.096l50.33-2.915c-.495.461-1.002.932-1.527 1.414l.151.075a3.993 3.993 0 0 1 2.491 5.104c-.058.175-.13.343-.21.505l-7.86.454a16.362 16.362 0 0 1-.875-.64l-.003.69-33.78 1.958m-5.926-8.892c.281-.158.581-.364.874-.586-.799-1.54-1.6-3.122-2.378-4.71l41.94.68h.055c1.77 0 3.219-1.413 3.25-3.179l.007-.45a201.77 201.77 0 0 0 6.391-6.408l.557 9.52a2.2 2.2 0 0 1-2.07 2.316l-48.626 2.817m52.589-8.613l-.478-8.175c1.674-1.87 2.874-3.382 3.336-4.288-.579-2.388-5.183-9.9-10.492-17.664l1.56-.09a4.277 4.277 0 0 0 2.96-1.426 4.225 4.225 0 0 0 1.08-3.09l-.099-1.685C77.914 140 82.532 147.085 85 152.389c-2.86 4.367-7.543 12.065-9.2 17.961m-9.376-23.931a3.243 3.243 0 0 0-2.302-1.002l-32.205-.522c.074-.786.15-1.559.226-2.319a286.88 286.88 0 0 0-1.743 2.295l-9.871-.16c.41-.594.836-1.195 1.27-1.803l45.49-2.634a545.215 545.215 0 0 0-.865 6.145m-43.033-5.69c3.791-5.107 8.007-10.237 10.564-13.276.283-.338.604-.6.962-.826a3.362 3.362 0 0 1 2.642-1.276h9.738c.358-1.313.49-3.209.452-5.085a15.226 15.226 0 0 1-10.646-7.228l29.185-1.69a5.377 5.377 0 0 1-.65.643c-.4.336-.858.483-1.315.483a2.31 2.31 0 0 1-.685-.107 15.031 15.031 0 0 1-6.359 6.36c.094 1.914.076 4.279-.264 6.624h8.7a3.35 3.35 0 0 1 2.962 1.764c.189.169.34.338.49.544.695.946 1.44 1.968 2.214 3.05l.296 5.03a2.174 2.174 0 0 1-.554 1.583c-.391.437-.929.696-1.518.73l-46.214 2.678m12.702-29.72a14.931 14.931 0 0 1-1.1-5.642c0-.124.004-.246.007-.368h31.775c.494.822.807 1.78.807 2.826 0 .473-.06.932-.173 1.37l-31.316 1.814" fill="#5271A9"/><path d="M22 144c.52-.729 1.052-1.46 1.593-2.197l46.236-2.7a2.18 2.18 0 0 0 1.518-.737c.393-.44.587-1.008.555-1.597l-.296-5.073a297.9 297.9 0 0 1 2.288 3.251l.098 1.7a4.282 4.282 0 0 1-1.08 3.116 4.266 4.266 0 0 1-2.962 1.438l-1.56.091c-.237-.35-.475-.702-.717-1.052l-.16 1.103L22 144m15.311-30.124a15.353 15.353 0 0 1-1.01-2.046l31.33-1.83a5.49 5.49 0 0 1-1.12 2.17l-29.2 1.706M20 183a4.092 4.092 0 0 1 2.29-2.13c.15-.05.313-.131.482-.232l48.292-2.959c1.204-.075 2.126-1.165 2.056-2.433l-.553-10.003c.705-.788 1.361-1.54 1.959-2.243l.474 8.59a18.83 18.83 0 0 0-.515 2.598c-.057.433-.094.867-.113 1.3a240.822 240.822 0 0 1-4.387 4.448L20 183" fill="#7A91BC"/><path d="M63.732 175h-.055l-42.085-.688c-3.867-7.955-7.144-15.997-6.514-19.412.392-2.154 2.541-5.835 5.33-9.9l9.906.161a183.773 183.773 0 0 0-3.53 4.882l-2.531-.042-.065 4.023c-.558.948-.94 1.708-1.1 2.225.06.7.424 1.922 1.007 3.493l-.09 5.58 2.416.04c1.02 2.295 2.198 4.8 3.427 7.298.134-2.312.284-4.745.443-7.235l8.987.148.25-15.321-8.127-.133c.14-1.681.284-3.33.435-4.933l32.316.528c.91.013 1.727.401 2.31 1.015-1.202 8.935-2.374 19.129-3.022 27.982a274.72 274.72 0 0 0 3.56-3.385l-.008.456a3.268 3.268 0 0 1-3.26 3.218m-21.703-24.708l-.248 15.32 15.274.252.25-15.323-15.276-.25" fill="#A4AFBF"/><path d="M29.588 220l-.099-2.11 13.703-.798c.028.654.063 1.36.097 2.11l-13.7.798m19.734-1.15c-.034-.758-.066-1.466-.097-2.11l13.699-.798.099 2.11-13.7.798M29 190.62c.015-.375.048-1.102.095-2.123l34.087-1.986c-.002.737.005 1.444.023 2.118L29 190.62m39.365-2.391a3.64 3.64 0 0 1-1.333-.229c-1.063-.367-2.072-.925-2.965-1.54L72 186c-.691 1.39-2.117 2.23-3.635 2.23M32.29 256c-.075-.649-.15-1.321-.223-2.017l13.834-.766c.077.702.154 1.376.23 2.017l-13.84.766m19.858-1.098c-.071-.654-.142-1.327-.212-2.02l13.846-.767c.07.7.144 1.372.217 2.02l-13.851.767m-22.036-27.01L30 225.87l13.836-.767c.036.663.073 1.34.113 2.025l-13.836.765m19.924-1.102c-.038-.688-.077-1.365-.111-2.024L63.762 224c.036.66.073 1.336.113 2.025l-13.838.765" fill="#7A91BC"/><path d="M37.758 166l-8.683-.143c.31-4.843.667-9.919 1.072-14.744l7.853.129L37.758 166m-12.423-.203L23 165.758l.088-5.375c.563 1.52 1.341 3.381 2.247 5.414m-2.158-10.922L23.24 151l2.446.04c-1.025 1.471-1.883 2.776-2.509 3.835M56.758 166L42 165.758 42.24 151l14.76.24-.242 14.76" fill="#729ABC"/><path d="M30.208 250c-.071-1.574-.141-3.184-.208-4.816l1.837-.184.163 4.82-1.792.18" fill="#527FB4"/><path d="M86 286c1.128-5.406 2.223-10.806 3.081-15.362a9.399 9.399 0 0 0 2.16-2.117l8.463-.861c-.815 4.767-2.068 11.168-3.409 17.73L86 286m17.11-1.01c1.001-6.562 1.98-13.033 2.71-17.953L116 266c-.689 4.623-1.687 11.355-2.744 18.38l-10.147.61" fill="#3F4286"/><path d="M90.993 267a9.183 9.183 0 0 0 1.879-5.575v-113.52h3.065a38.12 38.12 0 0 1 .21-5.067 15.22 15.22 0 0 1-3.275-1.639v-26.832c0-3.897-2.43-7.235-5.872-8.613A14.282 14.282 0 0 1 93.8 104c2.748 0 5.438.848 7.49 2.692 1.467 1.318 2.267 2.505 2.667 3.673.59.15 1.162.301 1.753.508 15.774 5.557 11.373 17.556 11.373 17.556 0 8.306-6.667 15.05-14.993 15.35a35.979 35.979 0 0 0-.133 4.126h10.82c.401 0 .782.075 1.144.188.838 0 1.676.32 2.286.98.663.723 3.62 4.012 6.784 8.17l-.556 9.668c-1.29-2.046-2.837-4.22-4.437-6.31 1.452 9.996 2.513 22.723 3.061 30.222l-.243 4.251c-.214 3.732 2.67 6.928 6.446 7.14l1.351.076c.423.752.52 1.677.187 2.538a3.022 3.022 0 0 1-2.8 1.883c-.382 0-.744-.056-1.106-.207-.266-.094-1.848-.734-3.6-1.752-.343 12.922-1.181 38.332-2.21 42.72h-.953c-.457 6.179-1.01 11.83-1.581 15.616l-.221 1.42-10.417 1.025c.225-1.464.427-2.788.598-3.933.515-3.41 1.01-8.495 1.429-14.127h-6.458c-.305 6.159-.724 11.81-1.315 15.615a148.82 148.82 0 0 1-.512 3.06l-8.66.852M89 268c.116-.313.226-.618.331-.914L91 267a8.647 8.647 0 0 1-2 1" fill="#4B5A98"/><path d="M88.373 267c.395-2.145.72-4.047.954-5.6.5-3.403.87-8.507 1.167-14.178h-.538s-5.31-25.198-2.042-41.53a17.21 17.21 0 0 1-.965.416 2.727 2.727 0 0 1-1.077.208 2.928 2.928 0 0 1-2.73-1.89c-.593-1.532.15-3.27 1.653-3.875.316-.114.854-.36 1.467-.681-4.322-4.227-11.809-12.99-12.262-23.489.583-.786.906-1.78.845-2.839l-.195-3.384c1.63-5.939 6.236-13.695 9.05-18.093a122.88 122.88 0 0 1 2.19-3.308l.13-.17.13-.152.242-.246a3.291 3.291 0 0 1 2.246-.888H92v113.922c0 2.1-.681 4.038-1.83 5.596l-1.797.181M86.67 158.492c-2.989 4.99-6.256 11.209-6.72 14.895-1.244 10.264 7.667 19.678 11.361 23.08.761-11.53-2.246-25.67-4.64-37.975m-5.05-15.577s2.58-4.026 3.397-8.43l-.446-.265a5.01 5.01 0 0 1-.575-6.937c-2.636-5.18-5.42-7.94-3.249-15.52.86-2.982 2.946-5.302 5.53-6.763 3.355 1.384 5.722 4.733 5.722 8.644v26.928c-.306-.21-.603-.43-.893-.662-4.585 2.665-9.486 3.005-9.486 3.005" fill="#5271A9"/><path d="M74.01 177c-.017-.79-.013-1.587.016-2.395A29.014 29.014 0 0 1 74.36 171l.105 3.262c.033 1.021-.141 1.98-.455 2.738" fill="#7A91BC"/><path d="M129.369 203l-1.448-.077c-4.047-.21-7.138-3.404-6.91-7.131l.262-4.247c.1 1.262.184 2.376.251 3.302 2.675-4.497 5.88-11.816 4.798-19.888-.238-1.803-1.633-4.428-3.575-7.3l.597-9.659c4.212 5.157 8.767 11.649 9.39 16.225 1.571 11.76-4.186 21.826-7.392 26.38 1 .527 1.96.922 2.39 1.072a3.167 3.167 0 0 1 1.637 1.323" fill="#416EA6"/><path d="M29.29 79.04c3.44-.64 9.867 6.532 1.86 17.163-5.697 7.56-8.736-2.137-9.067-6.38-.35-4.454.115-9.462 7.208-10.783" fill="#2DA567"/><path d="M26.985 118.06c-1.956-1.615-4.87-1.356-6.504.582-6.053 7.17-20.256 24.514-21.401 30.706-.939 5.078 6.573 18.985 13.027 29.652l5.716-3.424c-7.428-10.55-7.787-20.234-9.614-24.725 1.073-3.39 11.339-14.437 19.918-24.601 1.633-1.935.818-6.574-1.142-8.19" fill="#454B8D"/><path d="M8.675 185.663c-2.106-.774-3.265-1.785-4.006-3.603-2.095-5.123 1.192-3.725 3.553-4.538 1.17-.403 2.85-3.094 3.506-3.86 1.618-1.886 4.043-2.255 5.947-.65 1.898 1.607 1.465 4.034.509 6.322-.545 1.302-1.59 4.013-5.126 5.93-1.56.847-2.51.94-4.383.399M45 111.1c0 3.879-.51 8.635-2.518 12.01-2.588 4.328-3.099 5.223-3.152 5.316-.95 1.66-2.606 2.574-4.314 2.574-.88 0-1.76-.242-2.57-.746-2.377-1.51-3.152-4.756-1.744-7.293 0 0 .405-.727 3.276-5.539.493-.82.757-2.369.88-4.14.158-2.406.035-5.223-.247-7.181-.422-2.891 1.48-5.614 4.226-6.043 2.73-.429 5.3 1.567 5.705 4.476.141.895.458 3.47.458 6.565" fill="#F0A880"/><path d="M59.943 119.467c-2.66 15.379-7.848 53.995-6.72 69.533H15s2.304-57.23 5.926-71.173a3.774 3.774 0 0 1 3.65-2.827h31.64c2.348 0 4.13 2.134 3.727 4.467" fill="#454B8D"/><path d="M51.36 214s4.61-8.577 1.647-25H15.164s-.536 12.5.331 25h35.866" fill="#252334"/><path d="M56.604 267.422c-2.098-14.043-1.514-55.75-2.368-60.542-.744-4.161-7.15-3.957-11.306-3.83-4.18.17-8.094 5.78-7.925 10.006.067 1.698 4.994 41.707 7.213 56.575 1.602 10.714 8.607 38.827 11.183 51.369L63 319.895c-1.923-12.57-4.8-41.77-6.396-52.473M33.86 268.826c-1.136-14.52-1.642-55.556-1.659-55.967-.169-4.263-5.797-6.982-9.947-6.855-4.173.173-7.417 3.771-7.248 8.035.067 1.714 1.687 42.09 3.901 57.095 1.599 10.812 5.46 40.142 8.485 52.866L36 322.889c-1.917-12.684-1.29-43.174-2.14-54.063" fill="#252334"/><path d="M59.993 118.895a4.577 4.577 0 0 0-6.414-1.009c-2.047 1.502-2.68 5.608-1.186 7.667 8.237 11.35 16.799 24.727 17.682 28.4-8.18 6.629-4.299 11.048-20.075 21.846L54.065 181c22.358-18.917 25.89-25.2 25.933-26.859.173-6.446-12.46-24.849-20.005-35.246" fill="#454B8D"/><path d="M48 111.57c-2.73 1.555-5.906 2.43-9.303 2.43-.789 0-1.578-.039-2.346-.156.182-2.507.04-5.443-.283-7.484-.486-3.014 1.698-5.852 4.853-6.3 3.135-.447 6.088 1.634 6.553 4.666.162.934.526 3.617.526 6.844" fill="#E1855E"/><path d="M22 93.92c0 9.744 7.057 18.08 16.643 18.08C46.808 112 56 103.388 56 93.642 56 83.901 48.231 76 38.643 76 29.057 76 22 84.177 22 93.92M58.182 186c-1.146.013-2.103-.386-3.505-1.285-1.904-1.22-3.346-2.376-4.782-4.406-1.422-2.005-1.124-4.625.712-6.236 1.833-1.61 4.588-1.382 6.15.508.765.917 2.073 2.967 3.172 3.285 3.477 1.008 4.9 2.043 3.591 4.128-1.129 1.797-3.575 3.985-5.338 4.006" fill="#F0A880"/><path d="M49.702 79.034c-3.443-.63-10.522 7.496-.698 16.231 5.394 4.796 7.581-1.433 7.913-5.61.35-4.388-.116-9.32-7.215-10.62" fill="#51B47D"/><path d="M41.953 72.483c6.63-2.354 14.615 5.116 11.252 7.864-1.481 1.21-1.411 1.027-5.175 2.172-3.764 1.147-19.525 2.414-23.408.483-3.88-1.931-3.9-8.95 2.981-11.002 0 0 .08 5.551 14.35.483" fill="#51B47D"/><path d="M57 96c0 1.792-.828 3.397-2.128 4.47-1.525 1.259-3.872.125-3.872-1.824v-5.293c0-1.946 2.347-3.082 3.872-1.824C56.172 92.602 57 94.208 57 96" fill="#F0A880"/><path d="M44 137.924l-8.363-9.37a1.643 1.643 0 0 0-2.347-.116L23 137.924h4.362l-.791 8.237c-.097.984.67 1.839 1.647 1.839h8.95c.853 0 1.568-.657 1.648-1.516l.824-8.56H44" fill="#F0F5F8"/><path d="M32.152 115c-.854 3.553 1.96 5.648 6.888 4.82 3.442-.58 7.136-2.44 9.96-4.82H32.152" fill="#F0A880"/><path d="M59.048 323c-.068-.429-6.889-43.071-7.937-56.806C50.006 251.757 48 215.242 48 209.57V189h.964v20.57c0 5.66 2.004 42.128 3.107 56.554 1.046 13.697 7.86 56.3 7.929 56.729l-.952.147M34 214h.5v-25H34zM34 209c-2.758 0-5-2.066-5-4.608V189h1v15.392c0 2.033 1.794 3.686 4 3.686V209" fill="#3E3A57"/><path d="M111.617 93.996c-6.877-6.044-20.01-2.467-22.704 6.463-2.697 8.93 1.132 11.83 4.369 18.316C96.517 125.263 89.927 135 89.927 135s20.283-1.341 20.266-18.658c-.012-10.79 9.797-14.992 1.424-22.346" fill="#3E4287"/><path d="M116.24 158.52a3.92 3.92 0 0 1-1.846.48c-1.237 0-2.433-.572-3.102-1.605-.04-.055-.609-.903-3.711-5.367-2.515-3.652-2.738-9.37-2.515-13.224.122-2.066.345-3.597.426-4.003.304-1.807 2.15-3.025 4.096-2.766 1.988.276 3.346 1.936 3.042 3.725a31.404 31.404 0 0 0-.385 4.538c-.081 3.117.243 6.492 1.46 8.226 3.305 4.777 3.792 5.496 3.792 5.496 1.014 1.568.446 3.578-1.257 4.5M115 214.81c-.02 1.34-.615 25.562-1.73 43.616-.02.189-.02.377-.04.566-.345 5.075-1 9.999-1.518 13.281-2.289 14.885-13.193 55.01-13.597 56.727L94 328.68c.115-.416.462-40.824 5.23-58.312.75-2.736.808-6.66 1.078-11.036.019-.208.019-.415.038-.623 1.135-17.827 1.23-43.748 1.25-44.068 0-3.113 2.577-5.641 5.77-5.641h.019c3.192 0 7.615 2.698 7.615 5.81M131.995 214.861c-.055 1.315-1.03 25.585-2.481 43.468l-.018.169c-.423 5.24-.883 9.918-1.379 13.299-1.69 11.44-10.31 44.369-12.11 56.203l-4.007-.864c0-33.793 3.05-47.769 4.999-55.771.68-2.78.386-8.171.257-12.698l-.018-.451c-.515-18.785.294-33.662.183-42.772.13-3.118 6.175-6.5 9.281-6.443 3.05.131 5.422 2.742 5.293 5.86" fill="#F0A880"/><path d="M111.96 135.625a31.685 31.685 0 0 0-.354 4.375c-2.351-.053-4.59-.551-6.606-1.44.112-1.992.317-3.468.392-3.86.28-1.742 1.978-2.916 3.77-2.667 1.828.267 3.079 1.867 2.799 3.592" fill="#E1855E"/><path d="M126.83 119.318c-1.49 9.54-6.315 18.682-15.623 18.682S95 129.481 95 119.918c0-9.565 6.393-17.918 15.701-17.918s17.601 7.873 16.128 17.318M141.849 200.393c-1.703-.508-3.052.472-5.1-1.984 6.302-10.252 11.617-15.804 9.937-28.976-1.183-9.268-16.018-25.51-17.707-27.331-1.268-1.368-3.435-1.476-4.843-.247a3.266 3.266 0 0 0-.257 4.705c5.818 6.282 15.306 18.267 15.997 23.69 1.882 14.762-8.405 27.341-8.503 27.46l-.135.197-.196.292-.139.284-.129.313-.077.307-.062.32-.015.312.002.325.044.305.066.326.104.288.133.31.16.268.198.288.214.232.179.195.133.106.017.019.012.006c2.7 2.32 5.05 3.199 5.49 3.365.412.157.836.232 1.254.232 1.368 0 3.934-1.173 4.465-2.484.692-1.716.567-2.58-1.242-3.123" fill="#F0A880"/><path d="M114 214.888c-.018 1.357-.586 25.901-1.65 44.194-.018.192-.018.383-.036.574L100 260c.018-.21.018-.42.037-.63 1.08-18.065 1.172-44.33 1.19-44.654 0-3.155 2.456-5.716 5.498-5.716h.018c3.042 0 7.257 2.734 7.257 5.888M131.995 214.9c-.055 1.325-1.034 25.757-2.492 43.76l-12.31.34-.02-.454c-.516-18.91.296-33.887.185-43.059.13-3.14 6.202-6.543 9.321-6.486 3.064.132 5.445 2.76 5.316 5.9" fill="#E1855E"/><path d="M98.569 255s-8.983-41.929 1.555-57H133s-1.132 50.254-2.714 57H98.57" fill="#51B47D"/><path d="M132.359 194.136c.091 1.195.128 1.864.128 1.864h-31.803l.11-1.864c0-.185.018-.371.018-.56.074-2.256.019-4.586-.128-6.971-.018-.242-.018-.487-.036-.746-.055-.876-.11-1.771-.202-2.666-.018-.263-.055-.503-.073-.764a150.29 150.29 0 0 0-.825-6.75c-.018-.207-.055-.41-.091-.615a147.19 147.19 0 0 0-.422-2.797c-.018-.17-.055-.317-.091-.486a227.131 227.131 0 0 0-1.228-7.046l-.018-.058c-.201-1.042-.385-2.105-.586-3.151l-.037-.203c-.44-2.24-.86-4.458-1.3-6.6-.055-.317-.129-.618-.184-.914-.128-.71-.274-1.417-.403-2.109-.073-.429-.165-.874-.238-1.303-.33-1.697-.623-3.337-.897-4.94l-.037-.337c-.073-.82.11-1.603.494-2.256A3.729 3.729 0 0 1 97.735 141h25.3c1.336 0 2.564.727 3.205 1.864.183.28.311.616.403.95.11.466.238.952.33 1.456.293 1.267.586 2.701.86 4.25a6.827 6.827 0 0 1 1.778.877c.623.408 1.19.932 1.667 1.51.476.56.861 1.212 1.136 1.902.165.373.293.762.384 1.154a7.93 7.93 0 0 1 .202 1.753c0 1.735-.568 3.339-1.539 4.607l-.22.26a6.783 6.783 0 0 1-1.539 1.455c.055.522.129 1.063.165 1.602l.019.095c.256 2.293.494 4.624.714 6.917l.055.615c.092.895.165 1.771.238 2.627.019.263.055.524.074.785.183 2.256.384 4.438.53 6.488.037.355.074.688.092 1.026.055.82.129 1.602.165 2.35.037.353.074.708.092 1.062.201 2.647.348 4.866.44 6.488.036.392.054.726.073 1.043" fill="#252334"/><path d="M133 193.526a463.6 463.6 0 0 0-31.833.474c.074-2.205.018-4.482-.13-6.814-.018-.237-.018-.474-.037-.729a441.919 441.919 0 0 1 31.463-.31c.037.346.074.693.092 1.039.204 2.587.352 4.755.445 6.34M132 183.73a417.661 417.661 0 0 0-31.085.27c-.22-2.295-.494-4.628-.824-6.981-.018-.212-.054-.424-.091-.636a426.061 426.061 0 0 1 31.396-.174c.019.27.055.54.073.81.183 2.333.385 4.59.531 6.711M132 171.877a494.061 494.061 0 0 0-32.713.123c-.378-2.22-.814-4.457-1.268-6.658l-.019-.053a510.187 510.187 0 0 1 33.243-.035l.019.088c.265 2.166.51 4.368.738 6.535M134 157.216c0 1.705-.58 3.28-1.57 4.527l-.225.257a480.007 480.007 0 0 0-34.84-.055l-.037-.202c-.45-2.2-.88-4.38-1.328-6.488 12.586-.404 25.19-.33 37.794.238.131.55.206 1.136.206 1.723M132 152a476.19 476.19 0 0 0-36.804-.205c-.075-.427-.168-.874-.243-1.301a219.663 219.663 0 0 1-.916-4.929L94 145.23a470.959 470.959 0 0 1 33.61.15c.299 1.264.597 2.696.878 4.24a7.088 7.088 0 0 1 1.812.874c.635.409 1.214.93 1.7 1.506" fill="#29283C"/><path d="M103.672 202.175l.16-.423.068-.202.07-.423.03-.217-.013-.444-.01-.2-.098-.433-.05-.201-.157-.361-.115-.247-.192-.271-.206-.28-.03-.041-.233-.21-.194-.184c-.166-.13-15.118-12.976-14.86-27.695.113-6.428 9.172-19.499 12.335-24.017a3.387 3.387 0 0 0-.822-4.71 3.365 3.365 0 0 0-4.698.822c-1.263 1.802-12.373 17.874-13.512 27.073-1.691 13.71 11.843 24.746 17.409 30.092-2.24 2.137-3.804 1.307-5.143 1.507-1.843.275-1.968 1.623-1.565 3.449.28 1.268.656 1.89 1.144 2.543 1.11 1.483 2.93.73 3.315.524 1.588-.845 3.776-1.924 6.43-4.27l.02-.019.154-.129.303-.338.087-.089.019-.029.26-.417.094-.16" fill="#F0A880"/><path d="M102.333 111.1c6.894 3.936 23.106 2.893 26.043 7.9 0 0 4.856-13.322-12.535-19.495-15.966-5.67-23.099 6.118-13.508 11.594" fill="#454B8D"/><path d="M104.452 104.647C109.132 106.26 102.405 121 94.9 121c-3.242 0-3.646-20.9 9.552-16.353" fill="#454B8D"/><path d="M93 124c0 1.792.827 3.397 2.128 4.47 1.526 1.26 3.872.123 3.872-1.824v-5.291c0-1.95-2.346-3.083-3.872-1.826-1.301 1.073-2.128 2.678-2.128 4.472" fill="#F0A880"/><path fill="#33AC6E" d="M104.818 250l-.818-.46L128.182 205l.818.46L104.818 250M117.89 248l-.89-.3 13.112-37.7.888.3-13.11 37.7"/><path d="M102 141l.27.366c.875 1.183 2.007 2.293 3.366 3.312 2.805 2.08 6.083 3.322 8.77 3.322 1.524 0 2.75-.408 3.57-1.181 1.378-1.304 1.364-3.466-.032-5.819H102" fill="#FFFFFE"/><path d="M102 141c.73 1.032 1.717 2.056 2.926 2.995 3.831 2.967 8.44 3.897 10.297 2.066 1.153-1.136.98-3.057-.238-5.061H102" fill="#F0A880"/></g></g></svg>
