<svg width="513" height="513" xmlns="http://www.w3.org/2000/svg" xmlns:xlink="http://www.w3.org/1999/xlink"><defs><path d="M300.582 510.356c-63.36-.006-126.746-19.938-179.92-59.793 48.162 36.104 104.691 55.847 162 59.252l.082.006a304.006 304.006 0 0 0 17.856.528c76.35.001 152.694-28.929 211.234-86.786-58.548 57.86-134.893 86.799-211.252 86.793m-179.928-59.798l-.181-.135.181.135m-.288-.215c-.024-.02-.058-.043-.08-.062l.08.062m-.225-.17a.402.402 0 0 1-.045-.034l.045.033m-23.285-19.438l-.004-.004.004.004m-8.884-8.543l-.026-.028a.36.36 0 0 1 .026.028m-.352-.356l-.004-.002.004.002m-13.224-14.152l-.011-.014.011.014m-.159-.182l-.002-.002.002.002m-.144-.165c-.013-.015-.019-.02-.03-.035.007.01.022.026.03.035m-.163-.187l-.026-.028.026.028m-.137-.157l-.048-.054.048.054M73.496 406.65l-.062-.07.062.07m-.169-.194a2.788 2.788 0 0 1-.071-.083l.071.083M73.031 406.116a4.469 4.469 0 0 0-.09-.105c.034.037.059.067.09.105M72.741 405.779C-28.076 288.78-23.862 112.515 85.456.379h416.672c5.463 0 9.934 4.469 9.934 9.93v312.235c-31.587 5.054-67.862 19.478-106.987 37.765 8.99-7.098 14.761-18.092 14.761-30.433 0-21.404-17.358-38.76-38.769-38.76-21.407 0-38.767 17.356-38.767 38.76 0 21.404 17.36 38.757 38.767 38.757 2.891 0 5.709-.316 8.42-.915-18.073 8.713-36.697 18.08-55.668 27.57-27.653-16.757-52.218-37.91-71.112-62.404C197.53 248.387 60.869 236.758 6.132 150.432c-17.811 88.353 4.385 183.137 66.61 255.347m341.912-219.024a3.546 3.546 0 0 0-3.552 3.55 3.546 3.546 0 0 0 3.552 3.551 3.544 3.544 0 0 0 3.55-3.55 3.544 3.544 0 0 0-3.55-3.551m-51.006-80.523c-13.067 0-23.606 10.536-23.606 23.601 0 13.064 10.54 23.613 23.606 23.613 13.081 0 23.605-10.55 23.605-23.613a23.556 23.556 0 0 0-23.605-23.601m-261.877 7.064c-10.725 0-19.421 8.694-19.421 19.416 0 10.724 8.696 19.416 19.42 19.416 10.727 0 19.422-8.692 19.422-19.416 0-10.722-8.695-19.416-19.421-19.416m164.487 19.854a3.544 3.544 0 0 0-3.551 3.55 3.547 3.547 0 0 0 3.551 3.552 3.545 3.545 0 0 0 3.55-3.553 3.541 3.541 0 0 0-3.55-3.549" id="a"/><linearGradient x1="85.837%" y1="9.527%" x2="46.028%" y2="55.639%" id="b"><stop stop-color="#682A7A" offset="0%"/><stop stop-color="#973B85" offset="100%"/></linearGradient><path d="M18.604 188.349a304.074 304.074 0 0 1-17.812-.526 302.54 302.54 0 0 0 17.767.522c70.188 0 140.359-24.435 196.716-73.308-5.746.436-11.544.652-17.378.652-49.606 0-101.803-15.555-146.074-42.37 18.971-9.488 37.594-18.851 55.667-27.562a38.628 38.628 0 0 0 15.588-7.407C162.202 20.068 198.476 5.648 230.062.595V101.36l-.228.227c-58.539 57.841-134.88 86.764-211.23 86.762M.75 187.82l-.082-.006.082.006" id="d"/><linearGradient x1="68.866%" y1=".143%" x2="16.786%" y2="73.554%" id="e"><stop stop-color="#682A7A" offset="0%"/><stop stop-color="#973B85" offset="100%"/></linearGradient><path d="M300.541 360.345c-5.923 0-11.853-.174-17.767-.522l-.043-.001-.082-.006c-57.306-3.402-113.833-23.132-161.993-59.21l-.007-.005-.182-.135-.106-.08-.08-.062-.145-.109-.045-.033a301.707 301.707 0 0 1-23.24-19.391l-.003-.004-.082-.077a305.215 305.215 0 0 1-8.824-8.484l-.326-.328-.004-.001a304.09 304.09 0 0 1-13.219-14.141l-.011-.013c-.05-.056-.1-.112-.148-.169l-.002-.001-.142-.163c-.008-.01-.023-.026-.03-.036a9.622 9.622 0 0 1-.133-.151l-.026-.028-.11-.13-.05-.054c-.035-.043-.08-.093-.118-.136a1.939 1.939 0 0 1-.056-.064l-.075-.086a2.407 2.407 0 0 0-.061-.07c-.038-.044-.07-.083-.107-.124-.02-.025-.05-.06-.071-.083l-.053-.061a11.33 11.33 0 0 1-.172-.197c-.032-.037-.056-.067-.09-.104a.132.132 0 0 1-.013-.017l-.185-.215h-.002C10.516 183.694-11.679 88.978 6.131.688 60.866 86.952 197.523 98.574 262.695 183.01c18.894 24.477 43.457 45.615 71.11 62.36 44.269 26.803 96.465 42.35 146.07 42.35 5.834 0 11.632-.214 17.378-.65-56.356 48.85-126.526 73.275-196.712 73.275M199.981 212.61c-46.357 0-86.32 27.302-104.715 66.679 57.706 54.032 131.506 81.043 205.303 81.047 3.462 0 6.909-.06 10.368-.178a115.244 115.244 0 0 0 4.57-32.125c0-63.742-51.726-115.423-115.526-115.423m129.957 31.783a3.544 3.544 0 0 0-3.55 3.549 3.545 3.545 0 0 0 3.55 3.548 3.544 3.544 0 0 0 3.552-3.548 3.543 3.543 0 0 0-3.552-3.549M56.384 88.877a12.639 12.639 0 0 0-12.665 12.656 12.646 12.646 0 0 0 12.665 12.663c7.021 0 12.67-5.658 12.67-12.663a12.636 12.636 0 0 0-12.67-12.656" id="g"/><linearGradient x1="49.349%" y1="64.716%" x2="-5.893%" y2="-10.174%" id="h"><stop stop-color="#682A7A" offset="0%"/><stop stop-color="#973B85" offset="100%"/></linearGradient><path d="M205.216 148.334C131.63 148.33 58.042 121.225.501 67.006 18.843 27.493 58.691.096 104.916.096c63.617 0 115.195 51.86 115.195 115.823 0 11.19-1.609 21.998-4.557 32.236-3.45.119-6.886.179-10.338.179" id="j"/><linearGradient x1="68.205%" y1="14.103%" x2="-56.47%" y2="-168.227%" id="k"><stop stop-color="#7A4086" offset="0%"/><stop stop-color="#A14F8F" offset="100%"/></linearGradient><path d="M62.08.733C32.247.733 7.229 21.195.4 48.777 36.813 72.09 77.17 86.797 118.563 92.87a62.631 62.631 0 0 0 7.056-28.933c0-34.904-28.44-63.204-63.54-63.204" id="m"/><linearGradient x1="66.401%" y1="-4.712%" x2="52.411%" y2="55.128%" id="n"><stop stop-color="#FFFFFE" offset="0%"/><stop stop-color="#DBADC6" offset="100%"/></linearGradient><path id="p" d="M55.055 118.99L.171 64.623 102.153.51l17.63 17.463L55.054 118.99"/><linearGradient x1="58.147%" y1="41.854%" x2="90.4%" y2="9.6%" id="q"><stop stop-color="#FFFFFE" offset="0%"/><stop stop-color="#DBADC6" offset="100%"/></linearGradient><path id="s" d="M55.042 118.977L.158 64.61 102.142.494l17.629 17.463-64.73 101.02"/><linearGradient x1="58.146%" y1="41.855%" x2="90.399%" y2="9.601%" id="t"><stop stop-color="#FFFFFE" offset="0%"/><stop stop-color="#DBADC6" offset="100%"/></linearGradient><path d="M62.912 40.701C53.537 49.951.403 68.895.403 68.895S19.597 16.452 28.97 7.2c9.373-9.253 24.568-9.253 33.945 0a23.471 23.471 0 0 1-.002 33.501" id="v"/><linearGradient x1="10.389%" y1="89.606%" x2="65%" y2="34.996%" id="w"><stop stop-color="#FDE91D" offset="0%"/><stop stop-color="#EFA72D" offset="100%"/></linearGradient><path d="M31.057 42.627c-.828 1.293-2.39 1.464-3.48.376L1.27 16.703c-1.083-1.084-.912-2.648.379-3.477L19.976 1.47c1.295-.826 3.236-.615 4.32.467L42.344 19.98c1.084 1.082 1.297 3.028.467 4.32L31.057 42.628" id="y"/><linearGradient x1="20.039%" y1="10.977%" x2="89.011%" y2="79.964%" id="z"><stop stop-color="#2D809F" offset="0%"/><stop stop-color="#283361" offset="100%"/></linearGradient><path d="M32.87 129.772a3.735 3.735 0 0 1-5.263 0l-26.1-26.102a3.734 3.734 0 0 1 0-5.265L91.862 8.048c1.448-1.446 4.288-2.88 6.313-3.18L127.689.455c2.025-.302 3.432 1.107 3.13 3.133L126.41 33.1c-.301 2.025-1.735 4.867-3.183 6.315l-90.356 90.356" id="B"/><linearGradient x1="36.119%" y1="6.421%" x2="58.569%" y2="60.149%" id="C"><stop stop-color="#FFFFFE" offset="0%"/><stop stop-color="#DBADC6" offset="100%"/></linearGradient><path d="M130.125 1.158c-.566-.574-1.424-.853-2.436-.7l-29.514 4.44c-2.025.303-4.865 1.746-6.313 3.2L1.507 99.027c-1.448 1.458-1.448 3.844 0 5.3l13.05 13.133L130.124 1.158" id="E"/><linearGradient x1="53.212%" y1="1.431%" x2="47.124%" y2="81.209%" id="F"><stop stop-color="#FFFFFE" offset="0%"/><stop stop-color="#DBADC6" offset="100%"/></linearGradient><path d="M133.652 2.808c1.46-1.448.966-2.603-1.097-2.566L21.425 2.117c-2.062.036-4.944 1.249-6.4 2.695L1.761 17.969a3.714 3.714 0 0 0 0 5.262l53.003 52.6a3.782 3.782 0 0 0 5.304-.002l73.583-73.021" id="H"/><linearGradient x1="51.379%" y1="-31.384%" x2="45.759%" y2="153.225%" id="I"><stop stop-color="#2D809F" offset="0%"/><stop stop-color="#283361" offset="100%"/></linearGradient><path id="K" d="M62.539 58.49L4.919.613.116 5.438l57.617 57.879 4.807-4.826"/><linearGradient x1="53.804%" y1="-22.158%" x2="44.96%" y2="145.573%" id="L"><stop stop-color="#FDE91D" offset="0%"/><stop stop-color="#EFA72D" offset="100%"/></linearGradient><path id="N" d="M24.096 2.926l-2.714 8.586 5.233 7.327-9.004.075-5.353 7.243-2.854-8.539-8.54-2.859 7.239-5.35.075-9.003 7.33 5.23 8.588-2.71"/><linearGradient x1="54.624%" y1="-24.143%" x2="45.446%" y2="149.952%" id="O"><stop stop-color="#FDE91D" offset="0%"/><stop stop-color="#EFA72D" offset="100%"/></linearGradient><path d="M1.664 13.235c-1.292.83-1.46 2.393-.374 3.48l26.3 26.307c1.083 1.084 2.648.915 3.476-.376l11.756-18.33c.826-1.295.614-3.235-.468-4.319L24.313 1.95c-1.084-1.083-3.03-1.296-4.32-.466L1.664 13.235" id="Q"/><linearGradient x1="89.024%" y1="79.955%" x2="20.037%" y2="10.98%" id="R"><stop stop-color="#2D809F" offset="0%"/><stop stop-color="#283361" offset="100%"/></linearGradient><path d="M1.518 98.42a3.732 3.732 0 0 0 0 5.263l26.1 26.1a3.734 3.734 0 0 0 5.266 0L123.24 39.43c1.447-1.448 2.88-4.29 3.183-6.314l4.41-29.513c.301-2.026-1.108-3.433-3.131-3.131L98.188 4.88c-2.023.3-4.865 1.734-6.313 3.18L1.518 98.42" id="T"/><linearGradient x1="93.582%" y1="63.88%" x2="39.853%" y2="41.429%" id="U"><stop stop-color="#FFFFFE" offset="0%"/><stop stop-color="#DBADC6" offset="100%"/></linearGradient><path d="M117.135.014c.57.569.85 1.43.696 2.441l-4.437 29.548c-.305 2.026-1.747 4.87-3.203 6.32l-90.927 90.46a3.771 3.771 0 0 1-5.299 0L.832 115.717 117.135.014" id="W"/><linearGradient x1="98.564%" y1="46.789%" x2="18.786%" y2="52.877%" id="X"><stop stop-color="#FFFFFE" offset="0%"/><stop stop-color="#DBADC6" offset="100%"/></linearGradient><path d="M74.751 1.639c1.455-1.457 2.613-.966 2.575 1.097l-1.88 111.129c-.037 2.063-1.253 4.946-2.706 6.405l-13.202 13.258a3.739 3.739 0 0 1-5.282 0L1.47 80.526a3.771 3.771 0 0 1 0-5.305L74.75 1.64" id="Z"/><linearGradient x1="131.377%" y1="48.622%" x2="-53.224%" y2="54.241%" id="aa"><stop stop-color="#2D809F" offset="0%"/><stop stop-color="#283361" offset="100%"/></linearGradient><path id="ac" d="M5.8.754L63.676 58.63l-4.826 4.827L.972 5.58 5.8.754"/><linearGradient x1="122.155%" y1="46.196%" x2="-45.581%" y2="55.04%" id="ad"><stop stop-color="#FDE91D" offset="0%"/><stop stop-color="#EFA72D" offset="100%"/></linearGradient><path id="af" d="M23.359 3.197l-8.614 2.712L7.395.676 7.32 9.681.055 15.034l8.566 2.853 2.866 8.542 5.368-7.24 9.032-.076-5.249-7.329 2.72-8.587"/><linearGradient x1="124.141%" y1="45.372%" x2="-49.966%" y2="54.552%" id="ag"><stop stop-color="#FDE91D" offset="0%"/><stop stop-color="#EFA72D" offset="100%"/></linearGradient><path d="M41.764 56.19c-1.119 1.733-3.228 1.96-4.689.506L1.6 21.396c-1.463-1.453-1.235-3.553.505-4.664L26.825.962c1.738-1.112 4.36-.83 5.821.626l24.336 24.209c1.462 1.454 1.744 4.064.63 5.796L41.763 56.191" id="ai"/><linearGradient x1="20.038%" y1="10.971%" x2="89.018%" y2="79.965%" id="aj"><stop stop-color="#2D809F" offset="0%"/><stop stop-color="#283361" offset="100%"/></linearGradient><path d="M53.94 160.117c-5.107 5.107-13.47 5.107-18.576 0L4.178 128.929c-5.11-5.109-5.11-13.47 0-18.578l98.635-98.637c5.108-5.107 15.194-9.57 22.412-9.913L151.231.562c7.218-.345 12.843 5.28 12.5 12.498l-1.24 26.008c-.345 7.216-4.804 17.302-9.914 22.412L53.94 160.117" id="al"/><linearGradient x1="40.276%" y1="30.485%" x2="83.721%" y2="73.931%" id="am"><stop stop-color="#FFFFFE" offset="0%"/><stop stop-color="#DBADC6" offset="100%"/></linearGradient><path d="M159.993 3.97c-2.262-2.261-5.467-3.579-9.069-3.406L124.971 1.8c-7.204.343-17.269 4.799-22.367 9.897L4.169 110.175c-5.1 5.1-5.1 13.448 0 18.548l15.56 15.569L159.994 3.97" id="ao"/><linearGradient x1="53.409%" y1="-29.417%" x2="44.674%" y2="154.666%" id="ap"><stop stop-color="#FFFFFE" offset="0%"/><stop stop-color="#DBADC6" offset="100%"/></linearGradient><path d="M30.183 38.104a5.261 5.261 0 0 1-1.532-3.974l.93-19.62c.107-2.266-1.645-4.026-3.903-3.92l-19.537.936c-2.888.14-5.35-2.103-5.484-5.012-.138-2.907 2.095-5.37 4.988-5.51L25.182.07c4.117-.196 7.947 1.267 10.78 4.112 2.84 2.85 4.29 6.696 4.095 10.827l-.932 19.623c-.136 2.903-2.591 5.146-5.486 5.01a5.21 5.21 0 0 1-3.456-1.537" id="ar"/><linearGradient x1="19.577%" y1="-9.393%" x2="109.398%" y2="80.425%" id="as"><stop stop-color="#2D809F" offset="0%"/><stop stop-color="#283361" offset="100%"/></linearGradient><path id="au" d="M49.709 57.537L.032 7.552 7.318.222l49.677 49.982-7.286 7.333"/><path id="aw" d="M50.174 57.727L.565 8.117 7.839.84l49.61 49.613-7.275 7.274"/><path id="ay" d="M50.204 56.995L.222 7.318 7.552.032l49.985 49.675-7.333 7.288"/><path d="M8.614 18.677c4.86 4.861 11.136 7.42 17.5 7.733l.634-13.358C27.092 5.828 21.463.199 14.24.545L.885 1.18c.311 6.365 2.868 12.636 7.729 17.497" id="aA"/><path d="M20.599 39.78C9.619 39.78.715 30.878.715 19.896.715 8.916 9.619.012 20.599.012c10.981 0 19.883 8.904 19.883 19.884 0 10.982-8.902 19.884-19.883 19.884" id="aC"/><linearGradient x1="919.657%" y1="-165.661%" x2="395.021%" y2="439.916%" id="aD"><stop stop-color="#7A4086" offset="0%"/><stop stop-color="#A14F8F" offset="100%"/></linearGradient><path d="M20.443 10.327c0 5.521-4.564 9.996-10.198 9.996-5.632 0-10.197-4.475-10.197-9.996C.048 4.807 4.613.33 10.245.33c5.634 0 10.198 4.476 10.198 9.996" id="aF"/><radialGradient cx="8.903%" cy="42.533%" fx="8.903%" fy="42.533%" r="83.561%" gradientTransform="matrix(.81852 .55022 -.53935 .83502 .246 .021)" id="aG"><stop stop-color="#EB94A6" offset="0%"/><stop stop-color="#E46C86" offset="100%"/></radialGradient><path d="M39.062 77.89C17.71 77.89.397 60.673.397 39.436.397 18.2 17.711.981 39.062.981 60.416.98 77.728 18.2 77.728 39.436c0 12.245-5.755 23.153-14.722 30.196a1459.44 1459.44 0 0 0-15.547 7.35 39.086 39.086 0 0 1-8.397.908" id="aI"/><linearGradient x1="125.441%" y1="-312.385%" x2="-137.377%" y2="-9.019%" id="aJ"><stop stop-color="#7A4086" offset="0%"/><stop stop-color="#A14F8F" offset="100%"/></linearGradient><path d="M.057 8.904A1454.623 1454.623 0 0 1 15.917.988C11.34 4.782 5.946 7.534.056 8.904" id="aL"/><linearGradient x1="328.153%" y1="-506.139%" x2="-438.263%" y2="1354.826%" id="aM"><stop stop-color="#7A4086" offset="0%"/><stop stop-color="#A14F8F" offset="100%"/></linearGradient><path d="M42.88 21.863c0 11.847-9.542 21.454-21.318 21.454C9.79 43.317.247 33.71.247 21.863.247 10.015 9.79.41 21.562.41c11.776 0 21.318 9.606 21.318 21.454" id="aO"/><linearGradient x1="0%" y1="50%" x2="99.999%" y2="50%" id="aP"><stop stop-color="#BCD455" offset="0%"/><stop stop-color="#47AD47" offset="100%"/></linearGradient><path d="M4.023 8.11C1.83 8.11.06 6.366.06 4.206S1.829.304 4.023.304s3.962 1.743 3.962 3.903-1.768 3.902-3.962 3.902" id="aR"/><linearGradient x1="400.765%" y1="-1940.248%" x2="-2468.758%" y2="1371.112%" id="aS"><stop stop-color="#753982" offset="0%"/><stop stop-color="#9D488B" offset="100%"/></linearGradient><path d="M4.592 8c-2.158 0-3.9-1.772-3.9-3.965 0-2.194 1.742-3.964 3.9-3.964 2.162 0 3.902 1.77 3.902 3.964C8.494 6.228 6.754 8 4.592 8" id="aU"/><linearGradient x1="-1139.336%" y1="-154.296%" x2="-5006.117%" y2="-3949.763%" id="aV"><stop stop-color="#753982" offset="0%"/><stop stop-color="#9D488B" offset="100%"/></linearGradient><path d="M4.55 5.894C2.39 5.894.648 4.622.648 3.046.648 1.472 2.39.204 4.55.204c2.162 0 3.9 1.268 3.9 2.844 0 1.575-1.738 2.847-3.9 2.847" id="aX"/><linearGradient x1="2490.403%" y1="-1185.424%" x2="-379.119%" y2="2125.936%" id="aY"><stop stop-color="#753982" offset="0%"/><stop stop-color="#9D488B" offset="100%"/></linearGradient><path d="M13.726 26.393C6.503 26.393.679 20.712.679 13.677.679 6.642 6.503.97 13.726.97c7.232 0 13.05 5.673 13.05 12.708s-5.818 12.716-13.05 12.716" id="ba"/><linearGradient x1="796.401%" y1="570.988%" x2="-287.452%" y2="-492.841%" id="bb"><stop stop-color="#753982" offset="0%"/><stop stop-color="#9D488B" offset="100%"/></linearGradient><path d="M23.35 46.96C10.428 46.96.005 36.522.005 23.598.004 10.674 10.427.249 23.35.249c12.938 0 23.347 10.425 23.347 23.35 0 12.924-10.409 23.36-23.347 23.36m0-32.252a8.875 8.875 0 0 0-8.89 8.892 8.881 8.881 0 0 0 8.89 8.892 8.877 8.877 0 0 0 8.887-8.892 8.871 8.871 0 0 0-8.887-8.892" id="bd"/><linearGradient x1="210.799%" y1="-121.289%" x2="-220.836%" y2="376.78%" id="be"><stop stop-color="#753982" offset="0%"/><stop stop-color="#9D488B" offset="100%"/></linearGradient><path d="M9.563 17.59a8.772 8.772 0 0 1-8.78-8.782A8.766 8.766 0 0 1 9.563.026a8.761 8.761 0 0 1 8.777 8.782 8.767 8.767 0 0 1-8.777 8.783" id="bg"/><linearGradient x1="472.375%" y1="-399.844%" x2="-661.385%" y2="908.288%" id="bh"><stop stop-color="#A97BA9" offset="0%"/><stop stop-color="#C387AF" offset="100%"/></linearGradient></defs><g fill="none" fill-rule="evenodd"><path fill="#682A7A" fill-rule="nonzero" d="M0 0h513v513H0z"/><g transform="translate(0 1)"><mask id="c" fill="#fff"><use xlink:href="#a"/></mask><path d="M300.582 510.356c-63.36-.006-126.746-19.938-179.92-59.793 48.162 36.104 104.691 55.847 162 59.252l.082.006a304.006 304.006 0 0 0 17.856.528c76.35.001 152.694-28.929 211.234-86.786-58.548 57.86-134.893 86.799-211.252 86.793m-179.928-59.798l-.181-.135.181.135m-.288-.215c-.024-.02-.058-.043-.08-.062l.08.062m-.225-.17a.402.402 0 0 1-.045-.034l.045.033m-23.285-19.438l-.004-.004.004.004m-8.884-8.543l-.026-.028a.36.36 0 0 1 .026.028m-.352-.356l-.004-.002.004.002m-13.224-14.152l-.011-.014.011.014m-.159-.182l-.002-.002.002.002m-.144-.165c-.013-.015-.019-.02-.03-.035.007.01.022.026.03.035m-.163-.187l-.026-.028.026.028m-.137-.157l-.048-.054.048.054M73.496 406.65l-.062-.07.062.07m-.169-.194a2.788 2.788 0 0 1-.071-.083l.071.083M73.031 406.116a4.469 4.469 0 0 0-.09-.105c.034.037.059.067.09.105M72.741 405.779C-28.076 288.78-23.862 112.515 85.456.379h416.672c5.463 0 9.934 4.469 9.934 9.93v312.235c-31.587 5.054-67.862 19.478-106.987 37.765 8.99-7.098 14.761-18.092 14.761-30.433 0-21.404-17.358-38.76-38.769-38.76-21.407 0-38.767 17.356-38.767 38.76 0 21.404 17.36 38.757 38.767 38.757 2.891 0 5.709-.316 8.42-.915-18.073 8.713-36.697 18.08-55.668 27.57-27.653-16.757-52.218-37.91-71.112-62.404C197.53 248.387 60.869 236.758 6.132 150.432c-17.811 88.353 4.385 183.137 66.61 255.347m341.912-219.024a3.546 3.546 0 0 0-3.552 3.55 3.546 3.546 0 0 0 3.552 3.551 3.544 3.544 0 0 0 3.55-3.55 3.544 3.544 0 0 0-3.55-3.551m-51.006-80.523c-13.067 0-23.606 10.536-23.606 23.601 0 13.064 10.54 23.613 23.606 23.613 13.081 0 23.605-10.55 23.605-23.613a23.556 23.556 0 0 0-23.605-23.601m-261.877 7.064c-10.725 0-19.421 8.694-19.421 19.416 0 10.724 8.696 19.416 19.42 19.416 10.727 0 19.422-8.692 19.422-19.416 0-10.722-8.695-19.416-19.421-19.416m164.487 19.854a3.544 3.544 0 0 0-3.551 3.55 3.547 3.547 0 0 0 3.551 3.552 3.545 3.545 0 0 0 3.55-3.553 3.541 3.541 0 0 0-3.55-3.549" fill="url(#b)" mask="url(#c)"/></g><g transform="translate(282 323)"><mask id="f" fill="#fff"><use xlink:href="#d"/></mask><path d="M18.604 188.349a304.074 304.074 0 0 1-17.812-.526 302.54 302.54 0 0 0 17.767.522c70.188 0 140.359-24.435 196.716-73.308-5.746.436-11.544.652-17.378.652-49.606 0-101.803-15.555-146.074-42.37 18.971-9.488 37.594-18.851 55.667-27.562a38.628 38.628 0 0 0 15.588-7.407C162.202 20.068 198.476 5.648 230.062.595V101.36l-.228.227c-58.539 57.841-134.88 86.764-211.23 86.762M.75 187.82l-.082-.006.082.006" fill="url(#e)" mask="url(#f)"/></g><g transform="translate(0 151)"><mask id="i" fill="#fff"><use xlink:href="#g"/></mask><path d="M300.541 360.345c-5.923 0-11.853-.174-17.767-.522l-.043-.001-.082-.006c-57.306-3.402-113.833-23.132-161.993-59.21l-.007-.005-.182-.135-.106-.08-.08-.062-.145-.109-.045-.033a301.707 301.707 0 0 1-23.24-19.391l-.003-.004-.082-.077a305.215 305.215 0 0 1-8.824-8.484l-.326-.328-.004-.001a304.09 304.09 0 0 1-13.219-14.141l-.011-.013c-.05-.056-.1-.112-.148-.169l-.002-.001-.142-.163c-.008-.01-.023-.026-.03-.036a9.622 9.622 0 0 1-.133-.151l-.026-.028-.11-.13-.05-.054c-.035-.043-.08-.093-.118-.136a1.939 1.939 0 0 1-.056-.064l-.075-.086a2.407 2.407 0 0 0-.061-.07c-.038-.044-.07-.083-.107-.124-.02-.025-.05-.06-.071-.083l-.053-.061a11.33 11.33 0 0 1-.172-.197c-.032-.037-.056-.067-.09-.104a.132.132 0 0 1-.013-.017l-.185-.215h-.002C10.516 183.694-11.679 88.978 6.131.688 60.866 86.952 197.523 98.574 262.695 183.01c18.894 24.477 43.457 45.615 71.11 62.36 44.269 26.803 96.465 42.35 146.07 42.35 5.834 0 11.632-.214 17.378-.65-56.356 48.85-126.526 73.275-196.712 73.275M199.981 212.61c-46.357 0-86.32 27.302-104.715 66.679 57.706 54.032 131.506 81.043 205.303 81.047 3.462 0 6.909-.06 10.368-.178a115.244 115.244 0 0 0 4.57-32.125c0-63.742-51.726-115.423-115.526-115.423m129.957 31.783a3.544 3.544 0 0 0-3.55 3.549 3.545 3.545 0 0 0 3.55 3.548 3.544 3.544 0 0 0 3.552-3.548 3.543 3.543 0 0 0-3.552-3.549M56.384 88.877a12.639 12.639 0 0 0-12.665 12.656 12.646 12.646 0 0 0 12.665 12.663c7.021 0 12.67-5.658 12.67-12.663a12.636 12.636 0 0 0-12.67-12.656" fill="url(#h)" mask="url(#i)"/></g><g transform="translate(94 363)"><mask id="l" fill="#fff"><use xlink:href="#j"/></mask><path d="M205.216 148.334C131.63 148.33 58.042 121.225.501 67.006 18.843 27.493 58.691.096 104.916.096c63.617 0 115.195 51.86 115.195 115.823 0 11.19-1.609 21.998-4.557 32.236-3.45.119-6.886.179-10.338.179" fill="url(#k)" mask="url(#l)"/></g><g transform="translate(138 415)"><mask id="o" fill="#fff"><use xlink:href="#m"/></mask><path d="M62.08.733C32.247.733 7.229 21.195.4 48.777 36.813 72.09 77.17 86.797 118.563 92.87a62.631 62.631 0 0 0 7.056-28.933c0-34.904-28.44-63.204-63.54-63.204" fill="url(#n)" mask="url(#o)"/></g><g transform="translate(85 375)"><mask id="r" fill="#fff"><use xlink:href="#p"/></mask><path fill="url(#q)" mask="url(#r)" d="M55.055 118.99L.171 64.623 102.153.51l17.63 17.463L55.054 118.99"/></g><g transform="translate(14 304)"><mask id="u" fill="#fff"><use xlink:href="#s"/></mask><path fill="url(#t)" mask="url(#u)" d="M55.042 118.977L.158 64.61 102.142.494l17.629 17.463-64.73 101.02"/></g><g transform="translate(103 337)"><mask id="x" fill="#fff"><use xlink:href="#v"/></mask><path d="M62.912 40.701C53.537 49.951.403 68.895.403 68.895S19.597 16.452 28.97 7.2c9.373-9.253 24.568-9.253 33.945 0a23.471 23.471 0 0 1-.002 33.501" fill="url(#w)" mask="url(#x)"/></g><g transform="translate(106 287)"><mask id="A" fill="#fff"><use xlink:href="#y"/></mask><path d="M31.057 42.627c-.828 1.293-2.39 1.464-3.48.376L1.27 16.703c-1.083-1.084-.912-2.648.379-3.477L19.976 1.47c1.295-.826 3.236-.615 4.32.467L42.344 19.98c1.084 1.082 1.297 3.028.467 4.32L31.057 42.628" fill="url(#z)" mask="url(#A)"/></g><g transform="translate(115 190)"><mask id="D" fill="#fff"><use xlink:href="#B"/></mask><path d="M32.87 129.772a3.735 3.735 0 0 1-5.263 0l-26.1-26.102a3.734 3.734 0 0 1 0-5.265L91.862 8.048c1.448-1.446 4.288-2.88 6.313-3.18L127.689.455c2.025-.302 3.432 1.107 3.13 3.133L126.41 33.1c-.301 2.025-1.735 4.867-3.183 6.315l-90.356 90.356" fill="url(#C)" mask="url(#D)"/></g><g transform="translate(115 190)"><mask id="G" fill="#fff"><use xlink:href="#E"/></mask><path d="M130.125 1.158c-.566-.574-1.424-.853-2.436-.7l-29.514 4.44c-2.025.303-4.865 1.746-6.313 3.2L1.507 99.027c-1.448 1.458-1.448 3.844 0 5.3l13.05 13.133L130.124 1.158" fill="url(#F)" mask="url(#G)"/></g><g transform="translate(102 232)"><mask id="J" fill="#fff"><use xlink:href="#H"/></mask><path d="M133.652 2.808c1.46-1.448.966-2.603-1.097-2.566L21.425 2.117c-2.062.036-4.944 1.249-6.4 2.695L1.761 17.969a3.714 3.714 0 0 0 0 5.262l53.003 52.6a3.782 3.782 0 0 0 5.304-.002l73.583-73.021" fill="url(#I)" mask="url(#J)"/></g><path d="M160.594 307.909l73.567-73.331c1.46-1.454.965-2.614-1.097-2.577l-18.55.316-67.195 66.98-.319.347 8.291 8.267a3.77 3.77 0 0 0 5.303-.002" fill="#234A71"/><g transform="translate(105 243)"><mask id="M" fill="#fff"><use xlink:href="#K"/></mask><path fill="url(#L)" mask="url(#M)" d="M62.539 58.49L4.919.613.116 5.438l57.617 57.879 4.807-4.826"/></g><g transform="translate(141 248)"><mask id="P" fill="#fff"><use xlink:href="#N"/></mask><path fill="url(#O)" mask="url(#P)" d="M24.096 2.926l-2.714 8.586 5.233 7.327-9.004.075-5.353 7.243-2.854-8.539-8.54-2.859 7.239-5.35.075-9.003 7.33 5.23 8.588-2.71"/></g><g transform="translate(177 358)"><mask id="S" fill="#fff"><use xlink:href="#Q"/></mask><path d="M1.664 13.235c-1.292.83-1.46 2.393-.374 3.48l26.3 26.307c1.083 1.084 2.648.915 3.476-.376l11.756-18.33c.826-1.295.614-3.235-.468-4.319L24.313 1.95c-1.084-1.083-3.03-1.296-4.32-.466L1.664 13.235" fill="url(#R)" mask="url(#S)"/></g><g transform="translate(187 262)"><mask id="V" fill="#fff"><use xlink:href="#T"/></mask><path d="M1.518 98.42a3.732 3.732 0 0 0 0 5.263l26.1 26.1a3.734 3.734 0 0 0 5.266 0L123.24 39.43c1.447-1.448 2.88-4.29 3.183-6.314l4.41-29.513c.301-2.026-1.108-3.433-3.131-3.131L98.188 4.88c-2.023.3-4.865 1.734-6.313 3.18L1.518 98.42" fill="url(#U)" mask="url(#V)"/></g><g transform="translate(201 263)"><mask id="Y" fill="#fff"><use xlink:href="#W"/></mask><path d="M117.135.014c.57.569.85 1.43.696 2.441l-4.437 29.548c-.305 2.026-1.747 4.87-3.203 6.32l-90.927 90.46a3.771 3.771 0 0 1-5.299 0L.832 115.717 117.135.014" fill="url(#X)" mask="url(#Y)"/></g><g transform="translate(200 273)"><mask id="ab" fill="#fff"><use xlink:href="#Z"/></mask><path d="M74.751 1.639c1.455-1.457 2.613-.966 2.575 1.097l-1.88 111.129c-.037 2.063-1.253 4.946-2.706 6.405l-13.202 13.258a3.739 3.739 0 0 1-5.282 0L1.47 80.526a3.771 3.771 0 0 1 0-5.305L74.75 1.64" fill="url(#aa)" mask="url(#ab)"/></g><path d="M201.091 348.405l73.331-73.567c1.456-1.457 2.614-.966 2.577 1.096l-.316 18.552-66.976 67.195-.351.319-8.265-8.291a3.768 3.768 0 0 1 0-5.304" fill="#234A71"/><g transform="translate(202 340)"><mask id="ae" fill="#fff"><use xlink:href="#ac"/></mask><path fill="url(#ad)" mask="url(#ae)" d="M5.8.754L63.676 58.63l-4.826 4.827L.972 5.58 5.8.754"/></g><g transform="translate(235 341)"><mask id="ah" fill="#fff"><use xlink:href="#af"/></mask><path fill="url(#ag)" mask="url(#ah)" d="M23.359 3.197l-8.614 2.712L7.395.676 7.32 9.681.055 15.034l8.566 2.853 2.866 8.542 5.368-7.24 9.032-.076-5.249-7.329 2.72-8.587"/></g><g transform="translate(137 313)"><mask id="ak" fill="#fff"><use xlink:href="#ai"/></mask><path d="M41.764 56.19c-1.119 1.733-3.228 1.96-4.689.506L1.6 21.396c-1.463-1.453-1.235-3.553.505-4.664L26.825.962c1.738-1.112 4.36-.83 5.821.626l24.336 24.209c1.462 1.454 1.744 4.064.63 5.796L41.763 56.191" fill="url(#aj)" mask="url(#ak)"/></g><g transform="translate(150 195)"><mask id="an" fill="#fff"><use xlink:href="#al"/></mask><path d="M53.94 160.117c-5.107 5.107-13.47 5.107-18.576 0L4.178 128.929c-5.11-5.109-5.11-13.47 0-18.578l98.635-98.637c5.108-5.107 15.194-9.57 22.412-9.913L151.231.562c7.218-.345 12.843 5.28 12.5 12.498l-1.24 26.008c-.345 7.216-4.804 17.302-9.914 22.412L53.94 160.117" fill="url(#am)" mask="url(#an)"/></g><g transform="translate(150 195)"><mask id="aq" fill="#fff"><use xlink:href="#ao"/></mask><path d="M159.993 3.97c-2.262-2.261-5.467-3.579-9.069-3.406L124.971 1.8c-7.204.343-17.269 4.799-22.367 9.897L4.169 110.175c-5.1 5.1-5.1 13.448 0 18.548l15.56 15.569L159.994 3.97" fill="url(#ap)" mask="url(#aq)"/></g><g transform="translate(253 216)"><mask id="at" fill="#fff"><use xlink:href="#ar"/></mask><path d="M30.183 38.104a5.261 5.261 0 0 1-1.532-3.974l.93-19.62c.107-2.266-1.645-4.026-3.903-3.92l-19.537.936c-2.888.14-5.35-2.103-5.484-5.012-.138-2.907 2.095-5.37 4.988-5.51L25.182.07c4.117-.196 7.947 1.267 10.78 4.112 2.84 2.85 4.29 6.696 4.095 10.827l-.932 19.623c-.136 2.903-2.591 5.146-5.486 5.01a5.21 5.21 0 0 1-3.456-1.537" fill="url(#as)" mask="url(#at)"/></g><g transform="translate(184 267)"><mask id="av" fill="#fff"><use xlink:href="#au"/></mask><path mask="url(#av)" d="M49.709 57.537L.032 7.552 7.318.222l49.677 49.982-7.286 7.333"/></g><g transform="translate(204 247)"><mask id="ax" fill="#fff"><use xlink:href="#aw"/></mask><path mask="url(#ax)" d="M50.174 57.727L.565 8.117 7.839.84l49.61 49.613-7.275 7.274"/></g><g transform="translate(162 290)"><mask id="az" fill="#fff"><use xlink:href="#ay"/></mask><path mask="url(#az)" d="M50.204 56.995L.222 7.318 7.552.032l49.985 49.675-7.333 7.288"/></g><g transform="translate(285 195)"><mask id="aB" fill="#fff"><use xlink:href="#aA"/></mask><path d="M8.614 18.677c4.86 4.861 11.136 7.42 17.5 7.733l.634-13.358C27.092 5.828 21.463.199 14.24.545L.885 1.18c.311 6.365 2.868 12.636 7.729 17.497" mask="url(#aB)"/></g><g transform="translate(82 114)"><mask id="aE" fill="#fff"><use xlink:href="#aC"/></mask><path d="M20.599 39.78C9.619 39.78.715 30.878.715 19.896.715 8.916 9.619.012 20.599.012c10.981 0 19.883 8.904 19.883 19.884 0 10.982-8.902 19.884-19.883 19.884" fill="url(#aD)" mask="url(#aE)"/></g><g transform="translate(91 122)"><mask id="aH" fill="#fff"><use xlink:href="#aF"/></mask><path d="M20.443 10.327c0 5.521-4.564 9.996-10.198 9.996-5.632 0-10.197-4.475-10.197-9.996C.048 4.807 4.613.33 10.245.33c5.634 0 10.198 4.476 10.198 9.996" fill="url(#aG)" mask="url(#aH)"/></g><g transform="translate(342 292)"><mask id="aK" fill="#fff"><use xlink:href="#aI"/></mask><path d="M39.062 77.89C17.71 77.89.397 60.673.397 39.436.397 18.2 17.711.981 39.062.981 60.416.98 77.728 18.2 77.728 39.436c0 12.245-5.755 23.153-14.722 30.196a1459.44 1459.44 0 0 0-15.547 7.35 39.086 39.086 0 0 1-8.397.908" fill="url(#aJ)" mask="url(#aK)"/></g><g transform="translate(390 361)"><mask id="aN" fill="#fff"><use xlink:href="#aL"/></mask><path d="M.057 8.904A1454.623 1454.623 0 0 1 15.917.988C11.34 4.782 5.946 7.534.056 8.904" fill="url(#aM)" mask="url(#aN)"/></g><g transform="translate(360 309)"><mask id="aQ" fill="#fff"><use xlink:href="#aO"/></mask><path d="M42.88 21.863c0 11.847-9.542 21.454-21.318 21.454C9.79 43.317.247 33.71.247 21.863.247 10.015 9.79.41 21.562.41c11.776 0 21.318 9.606 21.318 21.454" fill="url(#aP)" mask="url(#aQ)"/></g><g transform="translate(411 188)"><mask id="aT" fill="#fff"><use xlink:href="#aR"/></mask><path d="M4.023 8.11C1.83 8.11.06 6.366.06 4.206S1.829.304 4.023.304s3.962 1.743 3.962 3.903-1.768 3.902-3.962 3.902" fill="url(#aS)" mask="url(#aT)"/></g><path d="M416 191a1 1 0 1 1-2.001.001A1 1 0 0 1 416 191" fill="#FFFFFE"/><g transform="translate(326 395)"><mask id="aW" fill="#fff"><use xlink:href="#aU"/></mask><path d="M4.592 8c-2.158 0-3.9-1.772-3.9-3.965 0-2.194 1.742-3.964 3.9-3.964 2.162 0 3.902 1.77 3.902 3.964C8.494 6.228 6.754 8 4.592 8" fill="url(#aV)" mask="url(#aW)"/></g><path d="M330 399.001a.999.999 0 0 1-1.001.999.997.997 0 0 1-.999-.999.999.999 0 1 1 2 0" fill="#FFFFFE"/><g transform="translate(262 134)"><mask id="aZ" fill="#fff"><use xlink:href="#aX"/></mask><path d="M4.55 5.894C2.39 5.894.648 4.622.648 3.046.648 1.472 2.39.204 4.55.204c2.162 0 3.9 1.268 3.9 2.844 0 1.575-1.738 2.847-3.9 2.847" fill="url(#aY)" mask="url(#aZ)"/></g><path d="M267 138c0 .554-.446 1-1 1s-1-.446-1-1 .446-1 1-1 1 .446 1 1" fill="#FFFFFE"/><g transform="translate(43 238)"><mask id="bc" fill="#fff"><use xlink:href="#ba"/></mask><path d="M13.726 26.393C6.503 26.393.679 20.712.679 13.677.679 6.642 6.503.97 13.726.97c7.232 0 13.05 5.673 13.05 12.708s-5.818 12.716-13.05 12.716" fill="url(#bb)" mask="url(#bc)"/></g><path d="M58 251.5c0 1.382-1.115 2.5-2.5 2.5a2.497 2.497 0 0 1-2.5-2.5c0-1.385 1.117-2.5 2.5-2.5 1.385 0 2.5 1.115 2.5 2.5" fill="#FFFFFE"/><g transform="translate(340 107)"><mask id="bf" fill="#fff"><use xlink:href="#bd"/></mask><path d="M23.35 46.96C10.428 46.96.005 36.522.005 23.598.004 10.674 10.427.249 23.35.249c12.938 0 23.347 10.425 23.347 23.35 0 12.924-10.409 23.36-23.347 23.36m0-32.252a8.875 8.875 0 0 0-8.89 8.892 8.881 8.881 0 0 0 8.89 8.892 8.877 8.877 0 0 0 8.887-8.892 8.871 8.871 0 0 0-8.887-8.892" fill="url(#be)" mask="url(#bf)"/></g><g transform="translate(354 122)"><mask id="bi" fill="#fff"><use xlink:href="#bg"/></mask><path d="M9.563 17.59a8.772 8.772 0 0 1-8.78-8.782A8.766 8.766 0 0 1 9.563.026a8.761 8.761 0 0 1 8.777 8.782 8.767 8.767 0 0 1-8.777 8.783" fill="url(#bh)" mask="url(#bi)"/></g><path d="M167 167.23c0 .425-.448.77-1 .77s-1-.345-1-.77v-8.46c0-.427.448-.77 1-.77s1 .343 1 .77v8.46" fill="#FFFFFE"/><path d="M161.77 164c-.425 0-.77-.448-.77-1s.345-1 .77-1h8.46c.425 0 .77.448.77 1s-.345 1-.77 1h-8.46M469 292.23c0 .425-.448.77-1 .77s-1-.345-1-.77v-8.46c0-.425.448-.77 1-.77s1 .345 1 .77v8.46" fill="#FFFFFE"/><path d="M463.77 289c-.427 0-.77-.448-.77-1s.343-1 .77-1h8.46c.425 0 .77.448.77 1s-.345 1-.77 1h-8.46M376.962 467.614c0 .212-.214.386-.48.386-.268 0-.482-.174-.482-.386v-4.23c0-.212.214-.384.482-.384.266 0 .48.172.48.384v4.23" fill="#FFFFFE"/><path d="M373.385 466.962c-.213 0-.385-.214-.385-.48 0-.268.172-.482.385-.482h4.23c.214 0 .385.214.385.482 0 .266-.17.48-.385.48h-4.23" fill="#FFFFFE"/><g fill="#FFF" fill-rule="nonzero"><path d="M447.502 31c-21.225 0-19.9 9.184-19.9 9.184l.025 9.514h20.254v2.857h-28.3S406 51.018 406 72.386s11.854 20.61 11.854 20.61h7.075v-9.915s-.381-11.828 11.665-11.828h20.089s11.286.182 11.286-10.884V42.073S469.683 31 447.502 31zm-11.168 6.398a3.636 3.636 0 1 1 0 7.271 3.636 3.636 0 1 1 0-7.271z"/><path d="M448.498 114c21.225 0 19.9-9.184 19.9-9.184l-.025-9.514H448.12v-2.857h28.3S490 93.982 490 72.614s-11.854-20.61-11.854-20.61h-7.075v9.915s.381 11.828-11.665 11.828h-20.089s-11.286-.182-11.286 10.884v18.296S426.317 114 448.498 114zm11.168-6.398a3.636 3.636 0 1 1 0-7.271 3.636 3.636 0 1 1 0 7.271z"/></g></g></svg>
