<svg width="400" height="400" xmlns="http://www.w3.org/2000/svg" xmlns:xlink="http://www.w3.org/1999/xlink"><defs><linearGradient x1="50%" y1="0%" x2="50%" y2="100%" id="a"><stop stop-color="#714091" offset="0%"/><stop stop-color="#3E2576" offset="100%"/></linearGradient><path d="M.535 1.658c-.114 0-.172-.004-.172-.012-.002-.016.212-.048.616-.09L.97 1.65" id="b"/><path d="M65.43 150.153l-15.067-2.262S60.898 12.167 53.27 12.167c-.049 0-.1.005-.15.015-2.413.544-4.487 22.55-10.102 46.616-7.795 33.397-26.586 90.367-26.586 90.367-.128.003-.258.005-.388.005-4.104 0-8.612-1.52-11.893-2.845-1.862-.751-2.96-1.96-2.96-1.96s15.988-59.65 19.091-72.021C24.304 56.323 31.177 14.26 32.947 3.28l19.237-1.446a82.579 82.579 0 0 0-.077 3.807c-.005.618-.042 1.426.533 1.872.31.23.65.312.962.312.233 0 .452-.045.633-.108a3.38 3.38 0 0 0 .925-.51c.196-.148.293-.243.28-.262-.003-.007-.008-.01-.017-.01-.097 0-.535.313-1.262.534a1.77 1.77 0 0 1-.456.062c-.291 0-.603-.076-.852-.28-.402-.312-.392-.95-.381-1.61a83.632 83.632 0 0 0-.065-3.823L69.786.514c16.265 37.605-4.356 149.639-4.356 149.639" id="d"/><linearGradient x1="225.553%" y1="48.234%" x2="227.063%" y2="48.234%" id="e"><stop stop-color="#44AFCD" offset="0%"/><stop stop-color="#72C5CA" offset="100%"/></linearGradient><path d="M12.442 10.793l.004-.004v.002l-.004.002M.73 1.261C.49.993.37.835.388.82L.393.818c.032 0 .179.12.425.342L.73 1.26" id="g"/><path d="M1.84 1.493c-.086-.007-.13-.016-.13-.026-.001-.01.034-.021.102-.035l.028.061" id="i"/><path d="M.912 1.65c-.108 0-.165-.004-.165-.011-.001-.016.223-.048.644-.093l-.009.093c-.205.007-.363.01-.47.01" id="k"/></defs><g fill="none" fill-rule="evenodd"><g fill="url(#a)" fill-rule="nonzero"><path d="M0 0h400v200H0zM0 400h400V200H0z"/></g><path d="M300.707 229.632H67.995a5.569 5.569 0 0 1-5.574-5.564V80.809a5.568 5.568 0 0 1 5.574-5.563h232.712a5.568 5.568 0 0 1 5.574 5.563v143.259a5.569 5.569 0 0 1-5.574 5.564" fill="#FCFCFC"/><path d="M147.509 213.842H79.086c-1.452 0-2.63-1.164-2.63-2.602V93.637c0-1.438 1.178-2.602 2.63-2.602h68.423c1.452 0 2.631 1.164 2.631 2.602V211.24c0 1.438-1.18 2.602-2.631 2.602" fill="#E3E9F0"/><path d="M134.015 112.088h-43.19a2.098 2.098 0 0 1-2.088-2.106v-6.315c0-1.164.935-2.106 2.088-2.106h43.19c1.153 0 2.09.942 2.09 2.106v6.315a2.1 2.1 0 0 1-2.09 2.106M104 169.982h-9.475c-2.227 0-4.034-1.965-4.034-4.387 0-2.422 1.807-4.384 4.034-4.384h9.476c2.227 0 4.034 1.962 4.034 4.384 0 2.422-1.807 4.387-4.034 4.387" fill="#79ABD0"/><path d="M132.07 169.982h-9.476c-2.227 0-4.033-1.965-4.033-4.387 0-2.422 1.806-4.384 4.033-4.384h9.477c2.23 0 4.034 1.962 4.034 4.384 0 2.422-1.805 4.387-4.034 4.387" fill="#7B68A0"/><path fill="#FCFCFC" d="M88.737 131.386h50.877v-8.772H88.737zM88.737 145.421h50.877v-8.772H88.737z"/><path fill="#CBCEDE" d="M99.263 150.521h29.825v-1.591H99.263z"/><path d="M301.314 192.79h-91.82c-5.652 0-10.23-4.711-10.23-10.526 0-5.812 4.578-10.527 10.23-10.527h91.82c5.65 0 10.23 4.715 10.23 10.527 0 5.815-4.58 10.525-10.23 10.525" fill="#7B68A0"/><path d="M220.725 106.825h-56.961c-4.617 0-8.36-3.928-8.36-8.771 0-4.846 3.743-8.773 8.36-8.773h56.961c4.617 0 8.363 3.927 8.363 8.773 0 4.843-3.746 8.77-8.363 8.77" fill="#E3E9F0"/><path d="M178.21 97.175a2.632 2.632 0 1 1-5.263 0 2.632 2.632 0 0 1 5.264 0" fill="#F5BD48"/><path d="M197.509 97.175a2.632 2.632 0 1 1-5.264 0 2.632 2.632 0 0 1 5.264 0" fill="#87BB43"/><path d="M213.298 97.175a2.632 2.632 0 1 1-5.264 0 2.632 2.632 0 0 1 5.264 0" fill="#D94B2B"/><path d="M230.222 159.456h-47.885a4.125 4.125 0 0 1-4.126-4.125v-28.594a4.124 4.124 0 0 1 4.126-4.123h47.885a4.126 4.126 0 0 1 4.129 4.123v28.594c0 2.28-1.85 4.125-4.129 4.125" fill="#E3E9F0"/><path d="M206.336 141.912h-.11c-.246 0-.488-.066-.703-.196l-21.301-12.678c-.701-.415-.956-1.363-.564-2.114.39-.752 1.271-1.022 1.975-.605l20.647 12.291 20.651-12.291c.702-.417 1.584-.147 1.974.605.39.751.137 1.699-.565 2.114l-21.3 12.678c-.215.13-.458.196-.704.196" fill="#DE4844"/><path d="M313.115 155.947h-62.79c-2.04 0-3.693-1.631-3.693-3.642V70.114c0-2.01 1.652-3.64 3.692-3.64h62.79c2.04 0 3.693 1.63 3.693 3.64v82.191c0 2.01-1.653 3.642-3.692 3.642" fill="#4F4C8E"/><path d="M261.998 78.558h-4.414c-.236 0-.426-.347-.426-.78 0-.429.19-.778.426-.778h4.414c.235 0 .423.35.423.779 0 .432-.188.779-.423.779M291.789 78.558h-27.155c-.252 0-.459-.347-.459-.78 0-.429.207-.778.46-.778h27.154c.254 0 .457.35.457.779 0 .432-.203.779-.457.779" fill="#42BEE2"/><path d="M272.527 82.067h-7.931c-.231 0-.42-.35-.42-.78 0-.43.189-.778.42-.778h7.931c.231 0 .42.349.42.779 0 .43-.189.779-.42.779" fill="#DF5392"/><path d="M286.564 82.067h-11.442c-.23 0-.42-.35-.42-.78 0-.43.19-.778.42-.778h11.442c.23 0 .418.349.418.779 0 .43-.187.779-.418.779M291.789 99.61h-27.155c-.252 0-.459-.349-.459-.778 0-.43.207-.78.46-.78h27.154c.254 0 .457.35.457.78 0 .43-.203.779-.457.779" fill="#E3E9F0"/><path d="M261.998 103.12h-4.414c-.236 0-.426-.35-.426-.78 0-.43.19-.779.426-.779h4.414c.235 0 .423.35.423.78 0 .43-.188.778-.423.778" fill="#42BEE2"/><path d="M272.527 103.12h-7.931c-.231 0-.42-.35-.42-.78 0-.43.189-.779.42-.779h7.931c.231 0 .42.35.42.78 0 .43-.189.778-.42.778" fill="#E3E9F0"/><path d="M286.564 103.12h-11.442c-.23 0-.42-.35-.42-.78 0-.43.19-.779.42-.779h11.442c.23 0 .418.35.418.78 0 .43-.187.778-.418.778M297.071 85.577h-32.456c-.242 0-.44-.349-.44-.779 0-.431.198-.78.44-.78h32.456c.242 0 .438.349.438.78 0 .43-.196.78-.438.78" fill="#DF5392"/><path d="M291.767 89.086h-7.814c-.264 0-.48-.184-.48-.41v-.74c0-.225.216-.41.48-.41h7.814c.266 0 .479.185.479.41v.74c0 .226-.213.41-.48.41" fill="#42BEE2"/><path d="M275.995 89.086h-11.357c-.254 0-.463-.35-.463-.78 0-.43.209-.78.463-.78h11.357c.255 0 .461.35.461.78 0 .43-.206.78-.46.78" fill="#E3E9F0"/><path d="M281.272 89.086h-4.37c-.248 0-.446-.35-.446-.78 0-.43.198-.78.445-.78h4.371c.247 0 .447.35.447.78 0 .43-.2.78-.447.78" fill="#42BEE2"/><path d="M261.998 92.593h-4.414c-.236 0-.426-.35-.426-.779 0-.43.19-.779.426-.779h4.414c.235 0 .423.35.423.779 0 .43-.188.779-.423.779M297.071 92.593h-32.456c-.242 0-.44-.35-.44-.779 0-.43.198-.779.44-.779h32.456c.242 0 .438.35.438.779 0 .43-.196.779-.438.779M261.998 106.628h-4.414c-.236 0-.426-.347-.426-.779 0-.43.19-.779.426-.779h4.414c.235 0 .423.35.423.78 0 .43-.188.778-.423.778M295.183 106.628h-11.14c-.315 0-.57-.216-.57-.482v-.593c0-.267.255-.483.57-.483h11.14c.317 0 .571.216.571.483v.593c0 .266-.254.482-.571.482M275.995 106.628h-11.357c-.254 0-.463-.347-.463-.779 0-.43.209-.779.463-.779h11.357c.255 0 .461.35.461.78 0 .43-.206.778-.46.778" fill="#E3E9F0"/><path d="M281.272 106.628h-4.37c-.248 0-.446-.347-.446-.779 0-.43.198-.779.445-.779h4.371c.247 0 .447.35.447.78 0 .43-.2.778-.447.778" fill="#E3E9F0"/><path d="M261.998 110.137h-4.414c-.236 0-.426-.35-.426-.78 0-.43.19-.778.426-.778h4.414c.235 0 .423.347.423.779 0 .43-.188.779-.423.779" fill="#F6BE5D"/><path d="M270.72 110.137h-6.07c-.26 0-.475-.35-.475-.78 0-.43.214-.778.475-.778h6.07c.261 0 .473.347.473.779 0 .43-.212.779-.473.779M257.584 96.102c-.236 0-.426-.35-.426-.78 0-.43.19-.778.426-.778h4.414c.235 0 .423.347.423.779 0 .43-.188.779-.423.779" fill="#42BEE2"/><path d="M296.895 96.102h-12.808c-.339 0-.613-.23-.613-.514v-.532c0-.282.274-.512.613-.512h12.808c.34 0 .614.23.614.512v.532c0 .284-.275.514-.614.514" fill="#E3E9F0"/><path d="M275.995 96.102h-11.357c-.254 0-.463-.35-.463-.78 0-.43.209-.778.463-.778h11.357c.255 0 .461.347.461.779 0 .43-.206.779-.46.779" fill="#F6BE5D"/><path d="M281.272 96.102h-4.37c-.248 0-.446-.35-.446-.78 0-.43.198-.778.445-.778h4.371c.247 0 .447.347.447.779 0 .43-.2.779-.447.779" fill="#F6BE5D"/><path d="M291.789 113.646h-27.155c-.252 0-.459-.35-.459-.78 0-.43.207-.778.46-.778h27.154c.254 0 .457.349.457.779 0 .43-.203.779-.457.779M272.527 118.909h-7.931c-.231 0-.42-.35-.42-.78 0-.43.189-.778.42-.778h7.931c.231 0 .42.347.42.779 0 .43-.189.779-.42.779M286.564 118.909h-11.442c-.23 0-.42-.35-.42-.78 0-.43.19-.778.42-.778h11.442c.23 0 .418.347.418.779 0 .43-.187.779-.418.779M291.789 136.453h-27.155c-.252 0-.459-.348-.459-.78 0-.43.207-.778.46-.778h27.154c.254 0 .457.349.457.779 0 .431-.203.779-.457.779" fill="#E3E9F0"/><path d="M261.998 138.207h-4.414c-.236 0-.426-.347-.426-.779 0-.43.19-.779.426-.779h4.414c.235 0 .423.35.423.78 0 .43-.188.778-.423.778" fill="#DF5392"/><path d="M272.527 138.207h-7.931c-.231 0-.42-.347-.42-.779 0-.43.189-.779.42-.779h7.931c.231 0 .42.35.42.78 0 .43-.189.778-.42.778" fill="#42BEE2"/><path d="M286.564 138.207h-11.442c-.23 0-.42-.347-.42-.779 0-.43.19-.779.42-.779h11.442c.23 0 .418.35.418.78 0 .43-.187.778-.418.778" fill="#E3E9F0"/><path d="M261.998 122.418h-4.414c-.236 0-.426-.35-.426-.78 0-.431.19-.778.426-.778h4.414c.235 0 .423.347.423.779 0 .43-.188.779-.423.779M288.198 122.418h-23.484c-.297 0-.539-.211-.539-.469v-.62c0-.26.242-.47.54-.47h23.483c.298 0 .539.21.539.47v.62c0 .258-.241.469-.539.469" fill="#DF5392"/><path d="M261.998 124.172h-4.414c-.236 0-.426-.35-.426-.78 0-.43.19-.778.426-.778h4.414c.235 0 .423.347.423.777 0 .432-.188.78-.423.78M275.995 124.172h-11.357c-.254 0-.463-.35-.463-.78 0-.43.209-.778.463-.778h11.357c.255 0 .461.347.461.777 0 .432-.206.78-.46.78" fill="#E3E9F0"/><path d="M281.272 124.172h-4.37c-.248 0-.446-.35-.446-.78 0-.43.198-.778.445-.778h4.371c.247 0 .447.347.447.777 0 .432-.2.78-.447.78M261.998 127.68h-4.414c-.236 0-.426-.348-.426-.778 0-.43.19-.78.426-.78h4.414c.235 0 .423.35.423.78 0 .43-.188.779-.423.779M295.139 127.68H264.79c-.338 0-.616-.234-.616-.524v-.507c0-.291.278-.526.616-.526h30.348c.34 0 .615.235.615.526v.507c0 .29-.275.525-.615.525M261.998 141.716h-4.414c-.236 0-.426-.35-.426-.78 0-.429.19-.778.426-.778h4.414c.235 0 .423.349.423.779 0 .43-.188.779-.423.779M298.812 141.716h-14.883c-.25 0-.455-.35-.455-.78 0-.429.205-.778.455-.778h14.883c.25 0 .451.349.451.779 0 .43-.201.779-.451.779M275.995 141.716h-11.357c-.254 0-.463-.35-.463-.78 0-.429.209-.778.463-.778h11.357c.255 0 .461.349.461.779 0 .43-.206.779-.46.779" fill="#E3E9F0"/><path d="M281.272 141.716h-4.37c-.248 0-.446-.35-.446-.78 0-.429.198-.778.445-.778h4.371c.247 0 .447.349.447.779 0 .43-.2.779-.447.779" fill="#E3E9F0"/><path d="M284.725 146.979H264.68c-.278 0-.506-.191-.506-.426v-.706c0-.235.228-.426.506-.426h20.044c.277 0 .503.191.503.426v.706c0 .235-.226.426-.503.426" fill="#F6BE5D"/><path d="M296.913 132.944H284.07c-.328 0-.595-.237-.595-.528v-.502c0-.291.267-.528.595-.528h12.844c.329 0 .596.237.596.528v.502c0 .291-.267.528-.596.528" fill="#DF5392"/><path d="M275.995 132.944h-11.357c-.254 0-.463-.35-.463-.78 0-.429.209-.778.463-.778h11.357c.255 0 .461.35.461.779 0 .43-.206.779-.46.779" fill="#F6BE5D"/><path d="M281.272 132.944h-4.37c-.248 0-.446-.35-.446-.78 0-.429.198-.778.445-.778h4.371c.247 0 .447.35.447.779 0 .43-.2.779-.447.779" fill="#F6BE5D"/><path d="M327.333 67.352c0 8.235-6.677 14.911-14.91 14.911-8.237 0-14.914-6.676-14.914-14.911 0-8.238 6.677-14.913 14.913-14.913 8.234 0 14.911 6.675 14.911 14.913" fill="#C85993"/><path fill="#FCFCFC" d="M309.79 66.93l-6.136 2.174 6.135 2.157v2.23l-8.771-3.227v-2.32l8.771-3.225v2.21M311.544 64.72l8.772 3.225v2.319l-8.772 3.227v-2.23l6.137-2.157-6.137-2.175v-2.21"/><path d="M301.806 179.455a1.93 1.93 0 1 1 0-3.859 1.93 1.93 0 0 1 0 3.86zm-6.052 7.916a5.02 5.02 0 0 1-4.971-4.34h9.943a5.021 5.021 0 0 1-4.972 4.34zm-7.981-9.844c0-1.068.863-1.93 1.93-1.93 1.064 0 1.927.862 1.927 1.93a1.928 1.928 0 0 1-3.857 0zm7.981-14.562c-8.719 0-15.79 7.069-15.79 15.79 0 8.72 7.071 15.789 15.79 15.789 8.72 0 15.79-7.07 15.79-15.789 0-8.721-7.07-15.79-15.79-15.79z" fill="#F7C324"/><g><path d="M53.302 134.023c-3.053-4.74-3.66-11.009-1.42-16.184 2.24-5.176 7.313-9.057 12.913-9.704 5.601-.649 11.5 2.042 14.55 6.784 5.406 8.406 1.529 20.704 7.678 28.58 5.144 6.587 15.637 7.668 19.763 14.936 2.716 4.788 1.777 10.853 3.753 15.991 1.454 3.788 4.47 7.01 4.972 11.037.714 5.726-4.276 11.002-9.893 12.326-5.62 1.325-11.516-.42-16.746-2.86-8.909-4.157-16.739-10.306-24.047-16.878-4.727-4.25-9.4-8.88-11.781-14.774-3.672-9.091-1.265-19.372 1.18-28.866l-.922-.388" fill="#211E44"/><path d="M72.779 114.072l-.074 24.116-5.458 1.377.764 10.442-11.07.9S55.8 117.754 55.681 117.3c-.117-.454 17.097-3.228 17.097-3.228" fill="#EFB4A0"/><path d="M68.846 122.112c.042.142.945.004 1.954.469 1.01.444 1.728 1.047 1.83.945.105-.087-.493-.912-1.628-1.417-1.165-.532-2.23-.123-2.156.003M68.16 125.918a.684.684 0 1 0 1.364.095.684.684 0 0 0-1.364-.095M58.484 125.539a.616.616 0 0 0 1.228.086.615.615 0 0 0-1.228-.086M59.104 122.305c.075.127.838-.214 1.83-.349.99-.147 1.817-.033 1.854-.177.047-.126-.818-.491-1.927-.33-1.11.155-1.836.747-1.757.856" fill="#211E44"/><path d="M67.956 129.456c-.012.355.863.73 1.956.837 1.092.107 2.023-.09 2.081-.44.058-.348-.818-.725-1.956-.835-1.139-.113-2.07.086-2.08.438M58.805 128.696c-.009.353.723.664 1.637.69.916.026 1.665-.239 1.676-.593.01-.353-.723-.661-1.637-.69-.914-.026-1.665.24-1.676.593M62.11 133.521c-.345.054-.482.805.057 1.444.544.637 1.307.623 1.417.291.125-.337-.137-.749-.438-1.12-.318-.359-.683-.683-1.035-.615M62.28 140.925c.095.342 1.367.29 2.846-.111 1.478-.403 2.599-1.009 2.506-1.35-.093-.341-1.367-.292-2.844.111-1.477.404-2.6 1.007-2.507 1.35" fill="#EEA492"/><path d="M56.042 124.998s-3.861-2.203-4.079.906c-.217 3.108.874 4.524 4.309 4.317" fill="#EFB4A0"/><path d="M55.135 128.35c-.05-.054-.256.1-.575.024-.307-.046-.623-.45-.551-.944.075-.488.423-.955.682-1.05.293-.112.488.055.54.016.083-.005-.071-.422-.62-.368-.529.1-.983.625-1.11 1.335-.134.753.5 1.426 1.025 1.372.516-.016.672-.365.61-.386" fill="#EEA492"/><path d="M75.92 121.735c-16.138-.707-18.622-6.184-18.622-6.184l-.728 10.416-1.344-2.17-.742-6.862 18.784-5.31 3.578 5.373M65.08 131.35c-.036.04.42.452 1.37.517.113.001.246.017.418-.044.186-.042.353-.334.278-.537-.127-.377-.34-.525-.535-.767a6.755 6.755 0 0 0-1.543-1.226l.116.3.039-.15c.691-2.718 1.135-4.941.996-4.964-.14-.023-.807 2.13-1.486 4.809l-.037.147-.052.205.168.097c.567.326 1.06.714 1.463 1.109.188.193.425.42.464.542.056.054-.043.112-.288.123-.839.033-1.339-.237-1.37-.162" fill="#211E44"/><path d="M64.777 133.363c-.193.386-.393.78-.716 1.065-.324.284-.807.432-1.196.246-.38-.183-.569-.639-.558-1.062.009-.423.179-.824.344-1.212" fill="#FFFFFE"/><path d="M55.11 129.514c.132.002-.375-.718-1.292-.247-.858.568-1.01 1.873-.84 3.14.183 1.365 1.627 2.268 2.527 1.809.891-.38.862-1.13.788-1.086-.065-.032-.182.538-.904.742-.68.261-1.735-.428-1.908-1.565-.162-1.103-.018-2.342.531-2.735.62-.423 1.08-.012 1.099-.058" fill="#8780B0"/><path d="M98.39 344.307s-17.972-54.49-25.427-86.43c-5.372-23.017-7.31-44.335-9.663-44.584-14.374-1.525-3.24 130.679-3.24 130.679l-8.534 1.28s-20.658-118.71-.22-148.177l30.882 5.164s2.886 52.507 7.324 70.201c2.969 11.832 15.513 69.22 15.513 69.22l-6.636 2.647M43.305 182.023s-11.273 38.561-9.796 42.573l-7.84 1.38s3.35-40.057 7.633-49.48l10.003 5.527" fill="#EFB4A0"/><path d="M92.61 169.82S84.805 155.52 82.51 153.8c-2.295-1.72-5.335-5.105-15.38-5.479-9.457-.35-23.841 1.254-30.024 16.69-3.935 9.826-5.801 18.185-5.801 18.185s4.984 3.093 11.101 1.946l6.237-13.254s2.805.57.377 14.866l-3.082 15.27 38.48 2.89-3.238-34.893 2.221 6.475 9.21-6.677" fill="#EFB4A0"/><g transform="matrix(-1 0 0 1 85.228 201.561)"><mask id="c" fill="#fff"><use xlink:href="#b"/></mask><path d="M.535 1.658c-.114 0-.172-.004-.172-.012-.002-.016.212-.048.616-.09L.97 1.65c-.188.005-.333.009-.435.009" mask="url(#c)"/></g><path d="M84.258 203.21l-.009-.092c-2.142-.232-9.626-.823-18.537-1.457-9.717-.69-17.752-1.193-19.008-1.193-.113 0-.17.006-.172.013-.007.101 8.57.793 19.152 1.545 8.934.635 16.442 1.11 18.574 1.185" fill="#B58A89"/><path d="M45.1 209.596c-.009.036.65.225 1.735.122 1.07-.095 2.58-.57 3.826-1.704 1.243-1.137 1.855-2.596 2.046-3.654.204-1.07.074-1.744.039-1.739-.065 0-.032.667-.292 1.683-.249 1.005-.866 2.368-2.04 3.44-1.175 1.07-2.59 1.561-3.612 1.717-1.035.165-1.695.07-1.702.135M75.796 204.43c-.022-.004-.089.214-.16.62a8.706 8.706 0 0 0-.103 1.74c.034 1.466.492 3.549 1.788 5.428 1.298 1.878 3.084 3.043 4.442 3.594a8.704 8.704 0 0 0 1.665.518c.405.079.632.095.635.072.016-.067-.884-.214-2.195-.825-1.3-.6-2.996-1.758-4.247-3.566-1.247-1.811-1.732-3.807-1.83-5.236-.11-1.44.072-2.336.005-2.345M61.08 208.282c-.013.02.08.113.266.255.19.138.468.344.886.49.405.138 1.01.192 1.531-.194.555-.43.518-1.205.514-1.796-.005-2.537-.09-4.591-.191-4.591-.1 0-.179 2.054-.175 4.59.01.632.017 1.241-.36 1.536-.369.3-.88.305-1.247.207-.757-.23-1.19-.563-1.223-.497" fill="#211E44"/><path d="M81.426 170.353l-1.293-18.22s-1.29-.87-3.1-1.658c-1.117-.487-2.433-.943-3.765-1.142 0 0-.675 16.151-9.449 15.497-8.773-.655-9.715-16.551-9.715-16.551l-6.497 4.172s3.17 28.191-.325 39.345l-1.473 10.667 38.856 2.783-3.239-34.893" fill="#FFFFFE"/><path d="M131.621 346.367s-19.967-1.504-27.217-6.923l-7.104 3.461v5.72h33.72l.601-2.258" fill="#EFBA80"/><path d="M97.07 347.942c0 .01.123.021.353.026l1.005.01c1.093-.004 2.318-.011 3.697-.018 3.419-.014 7.587-.027 12.196-.044 4.609.035 8.777.07 12.197.098 1.378.01 2.603.023 3.696.035l1.005-.005c.23-.005.351-.016.353-.028 0-.01-.121-.028-.35-.046l-1.004-.063-3.695-.153a408.075 408.075 0 0 0-12.202-.203c-4.765-.01-9.079.06-12.2.15l-3.696.136c-.353.02-.683.038-1.004.058-.23.019-.35.035-.35.047M101.647 345.13c-.014.1 1.232.361 2.783.586 1.55.223 2.82.323 2.833.223.014-.1-1.231-.362-2.78-.586-1.551-.223-2.82-.323-2.836-.223M113.03 346.307c.088.047.517-.584.958-1.41.438-.829.723-1.536.633-1.583-.088-.05-.517.584-.958 1.41-.438.827-.723 1.536-.633 1.583M111.353 345.791c.093.039.466-.628.833-1.491.367-.863.59-1.595.496-1.633-.093-.04-.466.628-.833 1.49-.367.862-.59 1.594-.496 1.634M108.986 345.265c.09.047.542-.614 1.012-1.479.47-.867.78-1.607.691-1.654-.087-.048-.542.614-1.012 1.48-.47.865-.78 1.606-.691 1.653M108.598 342.526s.276-.324.642-.996a11.8 11.8 0 0 0 1.118-3.032 12.048 12.048 0 0 0 .265-3.477c-.009-.207-.027-.46-.162-.696-.105-.286-.62-.378-.817-.114-.895 1.719-1.209 3.663-1.291 5.77 0 .382-.028.768.07 1.175.06.393.444.87.942.814.465-.049.767-.335 1.033-.586a16.067 16.067 0 0 0 2.95-3.975l.168-.318-.34.098a6.325 6.325 0 0 0-3.799 3.055c-.565 1.061-.586 1.763-.586 1.763.05.016.146-.67.739-1.675.579-.981 1.78-2.323 3.724-2.848l-.175-.22a16.276 16.276 0 0 1-2.207 3.115c-.465.463-.95 1.144-1.53 1.23-.282.026-.495-.207-.567-.539-.08-.323-.057-.703-.057-1.082.047-2.007.45-4.074 1.16-5.537.226-.25.433.177.424.595a12.43 12.43 0 0 1-.196 3.398c-.545 2.65-1.594 4.047-1.508 4.082" fill="#211E44"/><path d="M27.825 346.76s19.966-1.507 27.219-6.927l7.102 3.463v5.722H28.428l-.603-2.258" fill="#EFBA80"/><path d="M62.375 348.332c0-.013-.119-.027-.349-.046-.32-.018-.652-.039-1.003-.058l-3.697-.137c-3.122-.09-7.437-.16-12.201-.149-4.767.009-9.081.1-12.202.205-1.38.057-2.604.106-3.695.153-.353.02-.684.042-1.003.063-.23.018-.35.033-.35.046 0 .012.121.02.351.028l1.006.003 3.696-.036 12.198-.097c4.61.016 8.778.03 12.195.044l3.698.02c.351-.004.685-.008 1.006-.01.23-.007.35-.017.35-.03M57.798 345.523c-.014-.1-1.282 0-2.833.223-1.551.224-2.797.486-2.78.586.013.098 1.282 0 2.833-.223 1.55-.225 2.796-.488 2.78-.586M46.418 346.698c.089-.049-.195-.756-.636-1.582-.44-.827-.868-1.458-.957-1.41-.09.048.196.755.635 1.582.44.826.868 1.458.958 1.41M48.093 346.184c.095-.04-.128-.772-.497-1.635-.366-.863-.738-1.531-.831-1.493-.093.04.128.772.496 1.635.367.863.74 1.532.832 1.493M50.461 345.656c.088-.049-.22-.788-.69-1.654-.471-.867-.925-1.528-1.015-1.48-.088.048.221.789.691 1.655.472.863.925 1.527 1.014 1.48M50.85 342.916c.085-.034-.964-1.43-1.508-4.08a12.086 12.086 0 0 1-.235-2.18c-.005-.395 0-.802.039-1.22-.01-.418.198-.84.42-.592.713 1.461 1.116 3.528 1.162 5.535.002.379.023.76-.058 1.082-.072.332-.282.565-.565.54-.58-.085-1.063-.77-1.53-1.23a16.222 16.222 0 0 1-2.207-3.115l-.175.22c1.944.524 3.146 1.868 3.726 2.845.592 1.007.686 1.691.735 1.675 0 0-.019-.698-.584-1.763a6.323 6.323 0 0 0-3.798-3.052l-.339-.097.165.316a15.91 15.91 0 0 0 2.218 3.202c.233.263.477.52.733.775.265.248.569.537 1.033.584.499.058.883-.42.943-.812.098-.409.068-.795.07-1.175-.083-2.107-.397-4.053-1.291-5.772-.199-.262-.713-.172-.82.112-.135.237-.149.493-.16.698a12.126 12.126 0 0 0 1.384 6.509c.366.672.641.995.641.995" fill="#211E44"/><path d="M83.056 175.909s19.491 35.131 18.935 39.37l7.95-.383s-12.092-38.333-18.345-46.582l-8.54 7.595" fill="#EFB4A0"/><path d="M92.61 167.22s-6.731-16.313-19.342-17.887l6.585 27.956M54.104 148.279c-.057.777-14.99 3.716-19.855 24.591l12.283 7.574 3.38-9.604 4.192-22.561" fill="#FFFFFE"/><path d="M115.81 219.374c-.747-.693-2.692-3.556-3.996-5.53a3.218 3.218 0 0 0-3.52-1.332l-6.934 2.665a1.668 1.668 0 0 0-1.046 1.884c.404 2.05.975 5.813.05 7.132-1.45 2.065-1.99 2.384-1.476 2.846 1.382 1.243 5.435-.23 5.69-6.535l11.233-1.13" fill="#EFB4A0"/><path d="M103.082 219.207s6.367 11.94 7.74 12.63c1.373.69-1.013-7.867-2.271-9.476 0 0 6.426 8.493 7.754 8.199 1.328-.297-4.309-9.172-4.373-9.013-.065.158 6.552 8.097 7.433 7.053.64-.76-3.969-6.847-3.969-6.847s5.288 3.093 5.785 1.815c.245-.635-7.837-6.36-7.837-6.36l-10.262 1.999M20.921 230.614c.558-.853 1.763-4.098 2.558-6.325a3.215 3.215 0 0 1 3.096-2.136l7.372.931a1.67 1.67 0 0 1 1.467 1.58c.098 2.085.442 5.876 1.656 6.936 1.902 1.658 2.502 1.839 2.114 2.41-1.045 1.54-5.333 1.076-7.09-4.984" fill="#EFB4A0"/><path d="M33.239 227.409s-3.328 13.116-4.497 14.114c-1.168.998-.896-7.88-.058-9.744 0 0-4.212 9.782-5.572 9.812-1.361.032 1.992-9.935 2.093-9.796.102.14-4.426 9.43-5.531 8.626-.804-.584 2.214-7.596 2.214-7.596s-4.393 4.266-5.181 3.145c-.39-.558 6.09-8.049 6.09-8.049l10.442-.512" fill="#EFB4A0"/><path d="M112.409 168.705c.005.102.524.162 1.163.137.639-.026 1.154-.128 1.15-.23-.004-.1-.526-.161-1.164-.135-.639.025-1.153.127-1.15.228M90.71 346.528c-.003.026.392.102 1.106.223.717.123 1.756.27 3.045.423 2.578.308 6.16.594 10.123.63 3.965.031 7.551-.192 10.134-.455a66.133 66.133 0 0 0 3.052-.372c.718-.109 1.112-.179 1.109-.203-.004-.027-.404-.002-1.126.063-.942.079-1.953.161-3.058.252-2.581.199-6.156.381-10.107.348-3.951-.035-7.521-.277-10.1-.52-1.102-.11-2.11-.213-3.053-.306-.721-.078-1.121-.11-1.124-.083M102.084 344.798c.005.104 2.177.091 4.855.162 2.675.065 4.843.19 4.854.084.003-.05-.535-.144-1.41-.237a46.087 46.087 0 0 0-3.437-.212 44.58 44.58 0 0 0-3.44.038c-.88.048-1.424.114-1.422.165M103.3 342.8c.002.1 1.979.161 4.416.133 2.437-.028 4.412-.13 4.41-.231 0-.1-1.977-.162-4.415-.134-2.437.028-4.411.13-4.411.232M107.223 342.258s.193-.351.326-1.056a6.597 6.597 0 0 0-.149-3.013c-.096-.31-.191-.626-.363-.954-.17-.307-.451-.672-.916-.728-.461-.074-.895.302-1.046.691-.187.39-.233.837-.214 1.251.044.855-.09 1.721.106 2.676.09.48.61.99 1.19.905.543-.055.973-.36 1.368-.626a25.12 25.12 0 0 0 4.157-3.555c.257-.331.632-.533.753-1.07.054-.333-.344-.556-.57-.483-.235.034-.42.153-.574.25a6.78 6.78 0 0 0-1.6 1.366 6.39 6.39 0 0 0-1.391 2.674c-.16.702-.121 1.1-.121 1.1.091.054.025-1.702 1.705-3.604.418-.46.935-.907 1.563-1.275.288-.221.71-.284.669-.056-.04.263-.414.567-.677.867a26.126 26.126 0 0 1-4.121 3.482c-.39.274-.786.53-1.192.568-.405.044-.714-.238-.815-.645-.178-.828-.064-1.744-.113-2.555-.077-.777.237-1.717.891-1.66.636.097.874.908 1.064 1.455.712 2.43-.037 4.005.07 3.995" fill="#211E44"/></g><g><path d="M310.632 140.75c-.628.597-6.423 6.673-6.423 6.673l-15.31-22.198-6.874 3.14s16.464 35.835 22.219 32.356c8.623-5.21 15.717-12.884 15.717-12.884l-9.33-7.086" fill="#EFB4A0"/><path d="M267.54 328.605s20.876-1.573 28.46-7.24l7.425 3.621v5.98H268.17l-.63-2.36" fill="#CADCE0"/><path d="M303.665 330.25c0 .011-.126.022-.367.027-.335.004-.682.005-1.052.009l-3.865-.023c-3.55-.012-7.921-.028-12.751-.047-4.834.038-9.204.075-12.753.105l-3.865.039c-.37 0-.717-.002-1.052-.004-.239-.005-.367-.014-.367-.026 0-.01.126-.028.365-.048.335-.02.68-.04 1.05-.064 1.129-.044 2.411-.097 3.864-.157 3.261-.107 7.774-.198 12.758-.21 4.98-.01 9.491.061 12.754.154 1.453.053 2.735.1 3.865.139.37.023.716.04 1.051.06.24.019.365.035.365.047M298.879 327.312c.014.099-1.288.37-2.909.604-1.623.233-2.949.342-2.961.242-.014-.098 1.287-.37 2.909-.605 1.622-.232 2.947-.34 2.96-.24M286.979 328.542c-.09.047-.535-.616-.993-1.479-.461-.863-.761-1.602-.672-1.649.09-.05.535.614.993 1.477.46.865.761 1.604.672 1.651M288.733 328.004c-.093.04-.479-.66-.863-1.562-.384-.903-.62-1.668-.528-1.707.093-.039.48.66.863 1.563.384.902.621 1.667.528 1.706M291.207 327.453c-.09.047-.56-.646-1.05-1.551-.494-.906-.82-1.677-.73-1.725.087-.049.557.646 1.05 1.55.491.905.82 1.677.73 1.726M291.614 324.588s-.286-.339-.668-1.042a12.32 12.32 0 0 1-1.167-3.169 12.624 12.624 0 0 1-.274-3.635c.009-.214.025-.479.165-.724.11-.295.639-.388.844-.118.933 1.791 1.261 3.826 1.347 6.028 0 .398.03.802-.073 1.228-.062.405-.458.902-.974.844-.482-.05-.8-.35-1.077-.61a16.767 16.767 0 0 1-3.082-4.154l-.169-.317.34.097a6.616 6.616 0 0 1 3.97 3.188c.59 1.108.613 1.84.613 1.84-.05.016-.148-.7-.767-1.755-.605-1.024-1.861-2.428-3.895-2.978l.176-.22a17.073 17.073 0 0 0 2.307 3.26c.49.482.993 1.196 1.605 1.288.3.028.525-.223.6-.57.084-.343.061-.74.06-1.134-.05-2.102-.469-4.26-1.216-5.793-.246-.267-.467.191-.454.625a12.81 12.81 0 0 0 .205 3.556c.572 2.77 1.67 4.23 1.584 4.265" fill="#211E44"/><g transform="translate(290.491 177)"><mask id="f" fill="#fff"><use xlink:href="#d"/></mask><path d="M65.43 150.153l-15.067-2.262S60.898 12.167 53.27 12.167c-.049 0-.1.005-.15.015-2.413.544-4.487 22.55-10.102 46.616-7.795 33.397-26.586 90.367-26.586 90.367-.128.003-.258.005-.388.005-4.104 0-8.612-1.52-11.893-2.845-1.862-.751-2.96-1.96-2.96-1.96s15.988-59.65 19.091-72.021C24.304 56.323 31.177 14.26 32.947 3.28l19.237-1.446a82.579 82.579 0 0 0-.077 3.807c-.005.618-.042 1.426.533 1.872.31.23.65.312.962.312.233 0 .452-.045.633-.108a3.38 3.38 0 0 0 .925-.51c.196-.148.293-.243.28-.262-.003-.007-.008-.01-.017-.01-.097 0-.535.313-1.262.534a1.77 1.77 0 0 1-.456.062c-.291 0-.603-.076-.852-.28-.402-.312-.392-.95-.381-1.61a83.632 83.632 0 0 0-.065-3.823L69.786.514c16.265 37.605-4.356 149.639-4.356 149.639" fill="url(#e)" mask="url(#f)"/></g><path d="M364.518 156.49s11.786 40.319 10.24 44.514l8.198 1.44s-3.503-41.88-7.98-51.732l-10.458 5.777" fill="#EFB4A0"/><path d="M304.768 320.816c.095.03-.128.988-.498 2.138-.37 1.155-.749 2.062-.845 2.032-.097-.032.126-.991.498-2.142.37-1.151.749-2.06.845-2.028M309.935 304.437c.098.03-.4 1.89-1.109 4.15-.708 2.264-1.361 4.073-1.458 4.045-.098-.032.4-1.892 1.11-4.153.708-2.263 1.36-4.072 1.457-4.042M314.984 288.007c.097.032-.388 1.895-1.08 4.165-.693 2.27-1.332 4.088-1.43 4.058-.095-.032.387-1.895 1.08-4.165.693-2.27 1.332-4.086 1.43-4.058M319.898 271.537c.097.028-.37 1.896-1.044 4.174-.675 2.275-1.298 4.096-1.396 4.068-.097-.03.372-1.897 1.046-4.174.673-2.275 1.298-4.098 1.394-4.068M324.647 255.03c.095.026-.35 1.9-1.001 4.18-.651 2.285-1.255 4.111-1.351 4.085-.099-.028.349-1.902 1-4.183.649-2.282 1.254-4.11 1.352-4.082M329.177 238.45c.097.025-.324 1.904-.94 4.196-.618 2.293-1.195 4.128-1.293 4.103-.097-.028.324-1.905.938-4.198.618-2.29 1.197-4.126 1.295-4.102M333.37 221.78c.098.024-.279 1.911-.844 4.218-.563 2.307-1.101 4.156-1.2 4.13-.096-.023.283-1.912.846-4.216.563-2.305 1.102-4.154 1.198-4.131M336.925 204.958c.098.017-.193 1.92-.651 4.253s-.91 4.205-1.01 4.184c-.097-.021.194-1.927.652-4.255.456-2.326.909-4.2 1.009-4.182M338.333 192.053c.1-.004.137.979.081 2.193-.056 1.215-.182 2.193-.282 2.182-.1-.012-.137-.993-.083-2.195.056-1.201.183-2.177.284-2.18M354.088 318.482c.1.013-.107 1.967-.462 4.362-.354 2.396-.722 4.324-.82 4.309-.1-.016.105-1.969.459-4.364.354-2.393.723-4.32.823-4.307M356.382 301.093c.099.012-.066 1.97-.371 4.374-.307 2.403-.637 4.338-.736 4.324-.101-.01.067-1.97.372-4.372.306-2.4.634-4.337.735-4.326M358.36 283.663c.098.01-.032 1.972-.293 4.38-.263 2.41-.556 4.352-.656 4.341-.1-.012.03-1.972.293-4.382.26-2.407.554-4.35.656-4.339M359.99 266.193c.101.009.01 1.972-.202 4.386-.213 2.414-.467 4.363-.567 4.353-.1-.01-.01-1.972.202-4.386.212-2.413.466-4.362.566-4.353M361.205 248.702c.1.005.06 1.97-.093 4.387-.15 2.42-.356 4.372-.458 4.365-.098-.007-.058-1.972.093-4.387.153-2.416.357-4.37.458-4.365M361.875 231.165c.102.002.127 1.967.057 4.39-.072 2.422-.21 4.382-.313 4.378-.1-.005-.124-1.968-.052-4.39.07-2.42.208-4.38.308-4.378M361.77 213.621c.102-.003.221 1.958.269 4.383.049 2.424.005 4.389-.095 4.389-.102 0-.221-1.961-.27-4.382-.048-2.42-.006-4.386.096-4.39M360.379 196.133c.102-.014.386 1.932.637 4.344.25 2.414.372 4.377.272 4.384-.1.007-.384-1.938-.637-4.345-.25-2.405-.372-4.369-.272-4.383M356.193 179.13c.091-.042.965 1.74 1.675 4.072.72 2.326 1.057 4.273.964 4.293-.104.024-.6-1.877-1.313-4.186-.703-2.31-1.42-4.137-1.326-4.18" fill="#211E44"/><path d="M362.639 185.32c.003.022-.165.071-.478.113a5.974 5.974 0 0 1-1.335.007c-1.119-.101-2.694-.598-3.996-1.782-1.298-1.186-1.937-2.71-2.139-3.816a5.968 5.968 0 0 1-.116-1.33c.013-.316.048-.487.069-.486.065 0 .03.697.298 1.758.26 1.055.907 2.48 2.135 3.604 1.23 1.12 2.71 1.633 3.783 1.796 1.084.172 1.773.07 1.779.135M330.546 179.918c.022-.004.09.224.163.647.073.424.13 1.047.105 1.82-.037 1.53-.516 3.708-1.868 5.671-1.357 1.962-3.223 3.18-4.644 3.758a9.225 9.225 0 0 1-1.739.544c-.42.082-.66.1-.663.077-.014-.068.928-.22 2.298-.858 1.36-.624 3.137-1.837 4.446-3.73 1.305-1.893 1.81-3.982 1.914-5.477.11-1.507-.08-2.444-.012-2.452M345.932 183.946c.012.019-.085.114-.281.263a3.38 3.38 0 0 1-.925.509c-.422.145-1.054.2-1.594-.204-.576-.446-.539-1.254-.534-1.872.004-2.65.09-4.8.191-4.8.1 0 .18 2.15.174 4.8-.01.66-.02 1.298.38 1.61.39.316.925.322 1.31.218.793-.242 1.243-.593 1.279-.524M308.204 322.5c-.002.025-.24.033-.67.028-.432 0-1.057-.04-1.822-.126-1.533-.169-3.638-.591-5.854-1.413-2.212-.824-4.083-1.882-5.353-2.757a17.467 17.467 0 0 1-1.461-1.093c-.33-.28-.504-.443-.488-.462.037-.047.793.53 2.09 1.339a30.181 30.181 0 0 0 5.34 2.631 30.15 30.15 0 0 0 5.76 1.499c1.512.235 2.461.29 2.458.354M357.379 323.398c-.01.102-3.765-.196-8.384-.665-4.623-.468-8.36-.928-8.35-1.03.011-.1 3.764.199 8.385.665 4.62.469 8.36.93 8.349 1.03" fill="#211E44"/><path d="M309.223 139.444s9.395-11.195 11.795-12.993c2.4-1.798 8.794-6.597 18.59-5.198 9.796 1.4 27.72.854 34.183 16.993 4.116 10.273 5.198 15.79 5.198 15.79s-8.794 4-15.193 2.8l-4.86-10.941s-2.932.594-.394 15.542l3.223 15.965-40.233 3.02 3.282-35.38-4.596 4.272-10.995-9.87" fill="#EEF0F1"/><g transform="translate(309.79 136.65)"><mask id="h" fill="#fff"><use xlink:href="#g"/></mask><path d="M12.442 10.793l.004-.004v.002l-.004.002M.73 1.261C.49.993.37.835.388.82L.393.818c.032 0 .179.12.425.342L.73 1.26" mask="url(#h)"/></g><path d="M322.228 147.442c-.082 0-.83-.435-1.961-1.195a57.558 57.558 0 0 1-4.442-3.331 57.862 57.862 0 0 1-4.107-3.739 32.221 32.221 0 0 1-1.199-1.266l.088-.102c.297.265.737.673 1.29 1.182 1.042.958 2.498 2.265 4.16 3.642 1.666 1.376 3.22 2.56 4.359 3.404 1.13.838 1.838 1.352 1.82 1.402l-.004.003h-.004M350.144 151.753c-.683 0-1.325-.339-1.76-.76-1.13-1.167-1.668-2.514-2.028-3.64a9.78 9.78 0 0 1-.412-2.772c.003-.662.088-1.023.088-1.023h.001c.083 0-.135 1.495.569 3.717.372 1.08.952 2.41 2.012 3.47.397.38.954.653 1.518.653.182 0 .364-.028.543-.091.74-.254 1.034-1.146 1.15-1.996.32-2.15.303-4.215.312-5.993-.95.089-1.826.122-2.607.122-.825 0-1.544-.038-2.134-.086-.594-.049-1.06-.108-1.377-.158-.314-.05-.48-.087-.479-.105.002-.007.032-.01.088-.01.22 0 .84.049 1.777.084a32.435 32.435 0 0 0 4.877-.183l.176-.02.002.178c.014 1.818.063 3.964-.274 6.225-.116.86-.428 1.935-1.39 2.279a1.982 1.982 0 0 1-.652.109" fill="#B2B3BD"/><g transform="translate(360.667 152.439)"><mask id="j" fill="#fff"><use xlink:href="#i"/></mask><path d="M1.84 1.493c-.086-.007-.13-.016-.13-.026-.001-.01.034-.021.102-.035l.028.061" mask="url(#j)"/></g><path d="M363.184 153.95c-.056 0-.11-.003-.161-.003a7.934 7.934 0 0 1-.516-.015l-.028-.062c.279-.049 1.102-.117 2.288-.214 1.472-.13 3.515-.302 5.686-.875 2.168-.572 3.99-1.535 5.142-2.44 1.131-.87 1.679-1.604 1.758-1.604.003 0 .005 0 .007.002.015.012-.102.212-.358.542-.258.33-.672.777-1.246 1.261-1.137.98-2.993 2.009-5.209 2.591-2.214.586-4.286.716-5.765.781-.652.025-1.194.035-1.598.035" fill="#B2B3BD"/><g transform="translate(320.316 177)"><mask id="l" fill="#fff"><use xlink:href="#k"/></mask><path d="M.912 1.65c-.108 0-.165-.004-.165-.011-.001-.016.223-.048.644-.093l-.009.093c-.205.007-.363.01-.47.01" mask="url(#l)"/></g><path d="M321.698 178.639l.009-.093c2.239-.237 10.067-.853 19.384-1.514 10.198-.725 18.623-1.255 19.888-1.255.107 0 .163.004.163.012.007.1-8.96.82-20.026 1.607-9.337.664-17.188 1.164-19.418 1.243" fill="#B2B3BD"/><path d="M334.286 104.947c.256-3.712-1.275-8.124-3.258-11.272-1.182-1.88-2.732-3.56-3.524-5.636-1.002-2.618-1.443-6.093.3-8.292 1.742-2.196 5.64-2.97 8.349-2.25 1.75.463 3.263 1.612 4.454 2.975 1.193 1.365 2.104 2.95 3.004 4.521.345-1.191 1.64-1.958 2.878-1.904 1.24.055 2.374.807 3.12 1.8.745.992 1.145 2.2 1.405 3.415 1.384-1.064 3.907.631 4.5 2.273.554 1.527-.225 4.816-1.244 6.68-1.233 2.255-1.245 7.971-3.31 11.106" fill="#211E44"/><path d="M333.847 84.968l.278 28.186 4.536 1.604-.638 9.037 11.131 1.693s3.5-33.448 3.651-33.899c.15-.45-18.958-6.62-18.958-6.62" fill="#EFB4A0"/><path d="M339.15 95.525c-.029.101-.957-.146-2.034.261-1.072.386-1.827.98-1.893.9-.072-.065.609-.823 1.773-1.244 1.193-.447 2.22-.002 2.155.083M336.805 99.598a.692.692 0 1 1-1.384.002.692.692 0 0 1 1.384-.002M345.61 99.598a.623.623 0 1 1-1.245 0 .623.623 0 0 1 1.246 0M348.99 96.409c-.06.09-.799-.348-1.81-.556-1.01-.225-1.862-.13-1.88-.237-.028-.09.863-.362 1.956-.121 1.093.23 1.797.844 1.733.914M345.909 105.228c.04-.01.175.295.156.823a2.835 2.835 0 0 1-.823 1.853 2.84 2.84 0 0 1-1.858.814c-.526.017-.831-.12-.82-.162-.02-.1 1.348.14 2.422-.912 1.054-1.065.821-2.437.923-2.416" fill="#211E44"/><path d="M346.625 106.104c-.095.031-.295-.365-.737-.522-.442-.16-.848.02-.9-.066-.084-.063.365-.495 1.023-.277.649.249.72.87.614.865" fill="#211E44"/><path d="M339.532 103.016c-.01.25-.925.482-2.043.514-1.119.031-2.045-.148-2.07-.398-.023-.253.892-.483 2.044-.516 1.153-.032 2.08.147 2.069.4" fill="#EEA492"/><path d="M342.975 105.521c.072-.016-.42.661-1.431.314-.483-.179-.88-.8-.772-1.477.068-.707.874-1.29 1.661-1.12l.399.143-.267.194a15.621 15.621 0 0 1-.32-3.315c.015-.846.097-1.358.141-1.355.109.002.003 2.063.535 4.599l.08.38-.348-.186-.288-.102c-.598-.119-1.195.292-1.26.816-.1.528.18 1.021.546 1.188.796.354 1.32-.144 1.324-.079" fill="#211E44"/><path d="M348.839 102.893c-.01.253-.77.426-1.697.388-.926-.037-1.668-.272-1.658-.523.01-.253.769-.426 1.697-.39.924.039 1.668.274 1.658.525M346.254 107.539c.244.054.258.754-.298 1.322-.552.567-1.254.569-1.314.328-.074-.245.29-.575.662-.968.382-.379.705-.75.95-.682M344.039 116.87c-.083.237-1.339.014-2.804-.498-1.467-.512-2.588-1.12-2.503-1.358.084-.239 1.338-.016 2.805.497 1.465.512 2.586 1.12 2.502 1.36" fill="#EEA492"/><path d="M351.896 99.35s4.06-1.955 4.06 1.203c0 3.16-1.202 4.514-4.663 4.063" fill="#EFB4A0"/><path d="M352.575 102.802c.037-.039.225.16.583.12.346-.008.744-.427.698-.975-.045-.533-.38-1.038-.677-1.156-.326-.13-.532.063-.563.03-.063-.003.124-.377.638-.277.488.135.895.688.967 1.38.075.732-.563 1.332-1.058 1.257-.493-.035-.637-.372-.588-.38" fill="#EEA492"/><path d="M331.658 91.628c0-.175 2.32 1.23 6.8-.032 4.48-1.26 12.835 1.45 12.835 1.45v7.245l1.512-2.1 1.237-6.887-19.584-9.046-3.035 7.53M357.002 251.775c.066.076-.955 1.078-2.28 2.237-1.327 1.162-2.454 2.04-2.52 1.965-.067-.075.954-1.079 2.28-2.238 1.323-1.16 2.453-2.039 2.52-1.964M357.932 256.925c.06.09-1.462 1.094-3.097 2.61-1.647 1.505-2.772 2.937-2.86 2.87-.077-.05.936-1.603 2.611-3.138 1.668-1.544 3.303-2.423 3.346-2.342M324.298 230.772c.074.068-.738 1.065-1.817 2.224-1.076 1.162-2.01 2.046-2.083 1.978-.073-.069.739-1.065 1.816-2.227 1.075-1.16 2.01-2.043 2.084-1.975M324.898 237.074c.063.077-1.428 1.417-3.333 2.99-1.907 1.576-3.504 2.787-3.567 2.71-.065-.078 1.428-1.416 3.334-2.992 1.905-1.571 3.501-2.786 3.566-2.708" fill="#211E44"/><path fill="#CADCE0" d="M340.679 332.493l.946-6.925 8.026-.79 17.468 6.613v2.046l-26.44-.944"/><path d="M366.65 331.76c.004.026-.362.096-1.029.203-.665.11-1.632.239-2.832.369a82.09 82.09 0 0 1-9.414.447c-3.684-.04-7.01-.33-9.405-.639a57.392 57.392 0 0 1-2.823-.426c-.663-.123-1.028-.2-1.024-.225.003-.026.375.007 1.045.083.888.096 1.823.2 2.832.31 2.393.246 5.71.492 9.38.532 3.67.033 6.988-.144 9.385-.339l2.839-.254c.67-.063 1.043-.088 1.047-.061M356.12 329.361c-.011.106-2.025-.038-4.51 0-2.484.03-4.494.23-4.506.123-.016-.095 1.99-.458 4.501-.488 2.51-.038 4.527.27 4.514.365M355.025 327.8c-.004.102-1.84.125-4.102.054-2.263-.072-4.095-.21-4.091-.31.003-.102 1.84-.126 4.101-.056 2.263.072 4.095.21 4.092.312M351.393 327.188s-.175-.35-.288-1.039a7.001 7.001 0 0 1 .156-2.942c.081-.307.18-.614.323-.937.155-.307.369-.679.816-.802.458-.135.914.244 1.054.627.169.38.239.82.21 1.224-.04.83.02 1.685-.103 2.602-.065.435-.394 1.05-1.014 1.061-.566.006-.986-.328-1.36-.605a23.923 23.923 0 0 1-3.868-3.682c-.235-.335-.58-.56-.686-1.076-.063-.301.314-.573.555-.484.237.046.403.174.55.276a6.54 6.54 0 0 1 1.48 1.428 6.532 6.532 0 0 1 1.214 2.682c.128.688.082 1.077.082 1.077-.096.048.014-1.649-1.502-3.602a6.343 6.343 0 0 0-1.445-1.335c-.281-.233-.655-.312-.613-.07.037.267.378.577.621.886a24.94 24.94 0 0 0 3.834 3.609c.36.28.75.544 1.123.533.375-.001.601-.368.68-.773.113-.84.069-1.714.113-2.513.071-.744-.232-1.701-.857-1.57-.577.184-.779.976-.96 1.514-.659 2.374-.015 3.92-.115 3.91" fill="#211E44"/><path d="M274.728 122.437c.76.62 3.018 3.693 4.397 5.509a3.106 3.106 0 0 0 3.471 1.063l6.508-3.002a1.615 1.615 0 0 0 .887-1.88c-.517-1.946-1.303-5.534-.496-6.86 1.265-2.08 1.765-2.42 1.242-2.832-1.409-1.11-5.218.561-5.067 6.646" fill="#EFB4A0"/><path d="M287.191 122.235s-6.879-11.091-8.244-11.668c-1.363-.578 1.47 7.507 2.783 8.977 0 0-2.304-2.432-3.562-2.065-1.26.368.307 3.22.36 3.061.053-.156-1.654-2.5-2.437-1.44-.568.77-.252 2.177-.252 2.177s-1.858.069-1.11 1.16c1.69 2.474 2.278 2.788 2.278 2.788l10.184-2.99M368.982 208.686s.016 2.439 2.462 1.11c2.444-1.326 3.31-1.61 3.31-1.61s.374 4.591-.622 4.482l-1.521.151s1.501 4.044 4.06 1.197c0 0 .633 3.261 3.382-.598 0 0 1.275 2.56 3.045-.292 1.77-2.85 2.356-6.747-.409-13.69l-7.79.348s.389 6.569-5.917 8.902" fill="#EFB4A0"/></g></g></svg>
